<svg width="24" height="24" viewBox="0 0 24 24" fill="none" xmlns="http://www.w3.org/2000/svg">
<path d="M14.8676 2.04189L14.8676 2.04188C14.4393 1.99426 14.014 1.96777 13.5849 1.98422L13.5843 1.98424C10.2443 2.10614 7.28761 4.09253 5.60256 5.95844L5.60191 15.1059L5.90983 15.1413L5.91002 15.1413C7.74556 15.3533 9.10058 15.9523 9.83516 16.997L9.83519 16.997C10.6433 18.1466 10.4236 19.4762 10.3427 19.8439L10.3427 19.8441C10.1224 20.8428 10.7072 21.8209 11.6545 22.0059C12.2844 22.128 12.9171 22.1883 13.545 22.1883C13.9825 22.1883 14.4194 22.1482 14.8601 22.0887M14.8676 2.04189L14.9036 22.4108M14.8676 2.04189C19.1076 2.51291 23.4927 6.53837 23.5372 12.0273M14.8676 2.04189L23.8622 12.0247M14.8601 22.0887L14.9036 22.4108M14.8601 22.0887C14.8601 22.0887 14.8601 22.0887 14.86 22.0887L14.9036 22.4108M14.8601 22.0887C19.7785 21.4241 23.5777 17.1873 23.5372 12.0273M14.9036 22.4108C19.9824 21.7246 23.904 17.3502 23.8622 12.0247M23.5372 12.0273L23.8622 12.0247M23.5372 12.0273C23.5372 12.0273 23.5372 12.0273 23.5372 12.0273L23.8622 12.0247" fill="white" stroke="black" stroke-width="0.650065"/>
<path d="M18.634 9.42754L18.6056 9.45631C17.9289 10.1099 16.8529 10.1007 16.1874 9.42822C15.5109 8.74202 15.5111 7.62447 16.1867 6.93905C16.8631 6.25561 17.9593 6.25595 18.634 6.93904C19.3111 7.62454 19.3111 8.7421 18.634 9.42754Z" fill="white" stroke="black" stroke-width="0.650065"/>
<path d="M10.4401 7.19756L10.44 7.197C10.1927 6.26722 10.7335 5.29694 11.665 5.04481L11.6651 5.04477C12.581 4.79649 13.5362 5.34834 13.7847 6.2866L13.7847 6.28672C14.0342 7.22718 13.4828 8.18961 12.5596 8.43979L12.5595 8.43982C11.6359 8.69044 10.6882 8.13705 10.4401 7.19756Z" fill="white" stroke="black" stroke-width="0.650065"/>
<path d="M6.56199 10.2152L6.56191 10.2155C6.31305 11.1539 6.86659 12.1186 7.78709 12.3686L6.56199 10.2152ZM6.56199 10.2152C6.80918 9.27909 7.75606 8.72205 8.68059 8.9735L8.68097 8.9736M6.56199 10.2152L8.68097 8.9736M8.68097 8.9736C9.60407 9.22345 10.1567 10.1842 9.90664 11.1266L9.90656 11.1269M8.68097 8.9736L9.90656 11.1269M9.90656 11.1269C9.65709 12.0706 8.70441 12.6174 7.78718 12.3686L9.90656 11.1269Z" fill="white" stroke="black" stroke-width="0.650065"/>
<path d="M18.3837 15.2433L18.3833 15.2432C17.4626 14.9936 16.9077 14.0342 17.1582 13.0901L17.1583 13.0898C17.4076 12.1467 18.3607 11.599 19.2777 11.8481L19.2777 11.8481C20.1982 12.0981 20.7518 13.0627 20.5029 14.0012L20.5028 14.0016C20.2543 14.9426 19.3025 15.4935 18.3837 15.2433Z" fill="white" stroke="black" stroke-width="0.650065"/>
<mask id="path-7-inside-1_493_14602" fill="white">
<path fill-rule="evenodd" clip-rule="evenodd" d="M2.5625 12.1064C2.5625 6.72345 2.91938 0.259766 4.61933 0.259766C6.31928 0.259766 6.67616 6.7234 6.67616 12.1064C6.67616 12.2812 6.67473 12.4419 6.6733 12.603C6.67271 12.6685 6.67213 12.734 6.67164 12.8005L6.67046 12.8013H6.67225C6.65308 15.5099 6.53017 17.1653 6.48181 17.8166C6.47299 17.9354 6.46665 18.0208 6.46387 18.0731H4.61994H2.77602C2.77484 18.0508 2.77129 18.002 2.76592 17.9281C2.7266 17.3874 2.58951 15.5019 2.56796 12.8013H2.56893L2.56734 12.8005C2.56683 12.7353 2.56621 12.6708 2.5656 12.6063C2.56405 12.443 2.5625 12.2798 2.5625 12.1064Z"/>
</mask>
<path fill-rule="evenodd" clip-rule="evenodd" d="M2.5625 12.1064C2.5625 6.72345 2.91938 0.259766 4.61933 0.259766C6.31928 0.259766 6.67616 6.7234 6.67616 12.1064C6.67616 12.2812 6.67473 12.4419 6.6733 12.603C6.67271 12.6685 6.67213 12.734 6.67164 12.8005L6.67046 12.8013H6.67225C6.65308 15.5099 6.53017 17.1653 6.48181 17.8166C6.47299 17.9354 6.46665 18.0208 6.46387 18.0731H4.61994H2.77602C2.77484 18.0508 2.77129 18.002 2.76592 17.9281C2.7266 17.3874 2.58951 15.5019 2.56796 12.8013H2.56893L2.56734 12.8005C2.56683 12.7353 2.56621 12.6708 2.5656 12.6063C2.56405 12.443 2.5625 12.2798 2.5625 12.1064Z" fill="white"/>
<path d="M6.6733 12.603L7.32333 12.6088V12.6088L6.6733 12.603ZM6.67164 12.8005L7.02287 13.3475L7.3191 13.1573L7.32169 12.8053L6.67164 12.8005ZM6.67046 12.8013L6.31922 12.2543L4.45493 13.4514H6.67046V12.8013ZM6.67225 12.8013L7.3223 12.8059L7.32694 12.1512H6.67225V12.8013ZM6.48181 17.8166L7.13009 17.8648L6.48181 17.8166ZM6.46387 18.0731V18.7232H7.08031L7.11302 18.1076L6.46387 18.0731ZM2.77602 18.0731L2.12685 18.1073L2.15931 18.7232H2.77602V18.0731ZM2.76592 17.9281L2.11757 17.9752H2.11757L2.76592 17.9281ZM2.56796 12.8013V12.1512H1.91268L1.91791 12.8065L2.56796 12.8013ZM2.56893 12.8013V13.4514L2.8493 12.2148L2.56893 12.8013ZM2.56734 12.8005L1.9173 12.8057L1.92053 13.2119L2.28697 13.387L2.56734 12.8005ZM2.5656 12.6063L1.91557 12.6125L2.5656 12.6063ZM4.61933 -0.390299C4.17568 -0.390299 3.82217 -0.171927 3.5647 0.107643C3.31584 0.377867 3.1267 0.733846 2.97616 1.11506C2.67393 1.88039 2.46182 2.9198 2.30895 4.07952C2.00148 6.41197 1.91243 9.40827 1.91243 12.1064H3.21257C3.21257 9.42157 3.30197 6.49456 3.59792 4.24943C3.74676 3.12036 3.94262 2.20742 4.18541 1.59259C4.30739 1.28372 4.42502 1.09267 4.52106 0.988388C4.56633 0.939233 4.59709 0.92004 4.60998 0.913507C4.61317 0.911891 4.6154 0.910973 4.61671 0.910484C4.61801 0.91 4.61865 0.909842 4.61872 0.909822C4.61879 0.909805 4.61868 0.909833 4.61852 0.909852C4.61837 0.909871 4.61859 0.909831 4.61933 0.909831V-0.390299ZM7.32623 12.1064C7.32623 9.40825 7.23719 6.41195 6.92972 4.0795C6.77684 2.91978 6.56473 1.88038 6.2625 1.11505C6.11196 0.73384 5.92282 0.377862 5.67396 0.10764C5.4165 -0.171929 5.06298 -0.390299 4.61933 -0.390299V0.909831C4.62008 0.909831 4.6203 0.909871 4.62014 0.909852C4.61998 0.909833 4.61987 0.909805 4.61994 0.909823C4.62002 0.909842 4.62066 0.910001 4.62195 0.910484C4.62326 0.910974 4.62549 0.911891 4.62868 0.913507C4.64157 0.920041 4.67234 0.939233 4.7176 0.988387C4.81364 1.09267 4.93128 1.28372 5.05325 1.59259C5.29605 2.20741 5.4919 3.12035 5.64074 4.24942C5.9367 6.49454 6.0261 9.42155 6.0261 12.1064H7.32623ZM7.32333 12.6088C7.32477 12.448 7.32623 12.2845 7.32623 12.1064H6.0261C6.0261 12.2779 6.02469 12.4358 6.02326 12.5972L7.32333 12.6088ZM7.32169 12.8053C7.32217 12.7394 7.32275 12.6743 7.32333 12.6088L6.02326 12.5972C6.02267 12.6626 6.02208 12.7286 6.02159 12.7958L7.32169 12.8053ZM7.0217 13.3483L7.02287 13.3475L6.3204 12.2535L6.31922 12.2543L7.0217 13.3483ZM6.67225 12.1512H6.67046V13.4514H6.67225V12.1512ZM7.13009 17.8648C7.17908 17.205 7.30299 15.534 7.3223 12.8059L6.0222 12.7967C6.00317 15.4858 5.88126 17.1257 5.83353 17.7685L7.13009 17.8648ZM7.11302 18.1076C7.11534 18.064 7.12098 17.9875 7.13009 17.8648L5.83353 17.7685C5.825 17.8833 5.81796 17.9776 5.81472 18.0386L7.11302 18.1076ZM4.61994 18.7232H6.46387V17.423H4.61994V18.7232ZM2.77602 18.7232H4.61994V17.423H2.77602V18.7232ZM2.11757 17.9752C2.12329 18.054 2.12612 18.0934 2.12685 18.1073L3.42518 18.0389C3.42356 18.0082 3.41929 17.95 3.41427 17.881L2.11757 17.9752ZM1.91791 12.8065C1.93962 15.5268 2.07776 17.4278 2.11757 17.9752L3.41427 17.881C3.37545 17.347 3.2394 15.477 3.218 12.7961L1.91791 12.8065ZM2.56893 12.1512H2.56796V13.4514H2.56893V12.1512ZM2.28697 13.387L2.28856 13.3878L2.8493 12.2148L2.84772 12.214L2.28697 13.387ZM1.91557 12.6125C1.91618 12.6771 1.91679 12.7411 1.9173 12.8057L3.21739 12.7954C3.21687 12.7296 3.21625 12.6646 3.21564 12.6001L1.91557 12.6125ZM1.91243 12.1064C1.91243 12.2834 1.91402 12.4495 1.91557 12.6125L3.21564 12.6001C3.21408 12.4364 3.21257 12.2763 3.21257 12.1064H1.91243Z" fill="black" mask="url(#path-7-inside-1_493_14602)"/>
<mask id="path-9-inside-2_493_14602" fill="white">
<path fill-rule="evenodd" clip-rule="evenodd" d="M1.87689 19.7414C1.87689 18.2101 3.10683 16.9648 4.61933 16.9648C6.03731 16.9648 7.20693 18.0593 7.3476 19.4579C7.35697 19.5511 7.36178 19.6457 7.36178 19.7414C7.36178 19.7414 7.36178 19.7414 7.36178 19.7414C7.36178 19.7485 7.36176 19.7555 7.36172 19.7626C7.36131 19.8455 7.35848 19.9279 7.3533 20.0097C7.24613 21.7031 6.13267 23.1504 4.61933 23.6967V23.6967C4.18831 23.8523 3.73128 23.9525 3.24811 23.9525H0.459961V22.5642C1.21587 22.5642 1.87689 21.895 1.87689 21.1297V19.7414Z"/>
</mask>
<path fill-rule="evenodd" clip-rule="evenodd" d="M1.87689 19.7414C1.87689 18.2101 3.10683 16.9648 4.61933 16.9648C6.03731 16.9648 7.20693 18.0593 7.3476 19.4579C7.35697 19.5511 7.36178 19.6457 7.36178 19.7414C7.36178 19.7414 7.36178 19.7414 7.36178 19.7414C7.36178 19.7485 7.36176 19.7555 7.36172 19.7626C7.36131 19.8455 7.35848 19.9279 7.3533 20.0097C7.24613 21.7031 6.13267 23.1504 4.61933 23.6967V23.6967C4.18831 23.8523 3.73128 23.9525 3.24811 23.9525H0.459961V22.5642C1.21587 22.5642 1.87689 21.895 1.87689 21.1297V19.7414Z" fill="white"/>
<path d="M7.3476 19.4579L7.9944 19.3928V19.3928L7.3476 19.4579ZM7.36172 19.7626L8.01178 19.7658L8.01178 19.7658L7.36172 19.7626ZM7.3533 20.0097L6.70454 19.9686L6.70454 19.9686L7.3533 20.0097ZM4.61933 23.6967H3.96927V24.6225L4.84006 24.3082L4.61933 23.6967ZM4.61933 23.6967H5.2694V22.7709L4.39863 23.0852L4.61933 23.6967ZM0.459961 23.9525H-0.190104V24.6026H0.459961V23.9525ZM0.459961 22.5642V21.9142H-0.190104V22.5642H0.459961ZM4.61933 16.3148C2.74026 16.3148 1.22683 17.8587 1.22683 19.7414H2.52696C2.52696 18.5615 3.4734 17.6149 4.61933 17.6149V16.3148ZM7.9944 19.3928C7.82135 17.6722 6.38122 16.3148 4.61933 16.3148V17.6149C5.69339 17.6149 6.59252 18.4464 6.70079 19.5229L7.9944 19.3928ZM8.01184 19.7414C8.01184 19.6239 8.00594 19.5076 7.9944 19.3928L6.70079 19.5229C6.708 19.5946 6.71171 19.6675 6.71171 19.7414H8.01184ZM8.01184 19.7414C8.01184 19.7344 8.01173 19.7287 8.01164 19.7253C8.0116 19.7235 8.01156 19.7221 8.01153 19.7213C8.01152 19.7208 8.01151 19.7205 8.0115 19.7203C8.0115 19.7202 8.01149 19.7201 8.01149 19.72C8.01149 19.72 8.01149 19.72 8.01149 19.72C8.01149 19.72 8.01149 19.7199 8.01149 19.7199C8.01149 19.7199 8.01149 19.7199 8.01149 19.7199C8.01149 19.7199 8.01149 19.7199 8.01149 19.7199C8.01149 19.7199 8.01149 19.7199 8.01149 19.7199C8.01147 19.7195 8.01156 19.7222 8.01164 19.7253C8.01173 19.7287 8.01184 19.7343 8.01184 19.7414H6.71171C6.71171 19.7485 6.71183 19.7542 6.71191 19.7576C6.71196 19.7593 6.712 19.7607 6.71202 19.7616C6.71204 19.762 6.71205 19.7623 6.71206 19.7626C6.71206 19.7627 6.71206 19.7628 6.71206 19.7628C6.71207 19.7628 6.71207 19.7629 6.71207 19.7629C6.71207 19.7629 6.71207 19.7629 6.71207 19.7629C6.71207 19.7629 6.71207 19.7629 6.71207 19.7629C6.71207 19.7629 6.71207 19.7629 6.71207 19.7629C6.71207 19.7629 6.71207 19.7629 6.71207 19.7629C6.71208 19.7633 6.71199 19.7607 6.71191 19.7576C6.71183 19.7542 6.71171 19.7485 6.71171 19.7414H8.01184ZM8.01178 19.7658C8.01182 19.7577 8.01184 19.7496 8.01184 19.7414H6.71171C6.71171 19.7473 6.7117 19.7533 6.71167 19.7594L8.01178 19.7658ZM8.00207 20.0508C8.00804 19.9564 8.01131 19.8614 8.01178 19.7658L6.71167 19.7593C6.71132 19.8296 6.70892 19.8994 6.70454 19.9686L8.00207 20.0508ZM4.84006 24.3082C6.59763 23.6737 7.87859 22.0018 8.00207 20.0508L6.70454 19.9686C6.61367 21.4044 5.66772 22.6272 4.39861 23.0853L4.84006 24.3082ZM3.96927 23.6967V23.6967H5.2694V23.6967H3.96927ZM3.24811 24.6026C3.82245 24.6026 4.35495 24.4832 4.84004 24.3081L4.39863 23.0852C4.02168 23.2213 3.64012 23.3024 3.24811 23.3024V24.6026ZM0.459961 24.6026H3.24811V23.3024H0.459961V24.6026ZM-0.190104 22.5642V23.9525H1.11003V22.5642H-0.190104ZM1.22683 21.1297C1.22683 21.5436 0.849297 21.9142 0.459961 21.9142V23.2143C1.58244 23.2143 2.52696 22.2464 2.52696 21.1297H1.22683ZM1.22683 19.7414V21.1297H2.52696V19.7414H1.22683Z" fill="black" mask="url(#path-9-inside-2_493_14602)"/>
<path d="M16.6348 17.6605C16.6348 18.6349 15.8557 19.4179 14.903 19.4179C13.9504 19.4179 13.1712 18.6349 13.1712 17.6605C13.1712 16.6862 13.9504 15.9032 14.903 15.9032C15.8557 15.9032 16.6348 16.6862 16.6348 17.6605Z" fill="white" stroke="black" stroke-width="0.650065"/>
</svg>
