<svg width="25" height="24" viewBox="0 0 25 24" fill="none" xmlns="http://www.w3.org/2000/svg">
<g clip-path="url(#clip0_493_14606)">
<path d="M24.0324 6.79309V17.4209C24.0324 19.0944 22.6881 20.4495 21.0454 20.4495H4.26706C2.62435 20.4495 1.28011 19.0944 1.28011 17.4209V6.79309C1.28011 5.11957 2.62435 3.76449 4.26706 3.76449H21.0454C22.6881 3.76449 24.0324 5.11957 24.0324 6.79309Z" fill="white" stroke="black" stroke-width="0.650065"/>
<path d="M9.64482 14.6067C9.79044 14.676 9.86324 14.7835 9.86324 14.9291C9.86324 15.0401 9.82511 15.1337 9.74883 15.21C9.67256 15.2793 9.57548 15.314 9.4576 15.314C9.38826 15.314 9.30852 15.2966 9.21838 15.262L5.17237 13.473C5.0545 13.4245 4.96089 13.3516 4.89155 13.2546C4.82221 13.1506 4.78754 13.0327 4.78754 12.9009C4.78754 12.7692 4.82221 12.6548 4.89155 12.5577C4.96089 12.4606 5.0545 12.3844 5.17237 12.3289L9.21838 10.5399C9.30852 10.5052 9.3848 10.4879 9.4472 10.4879C9.56508 10.4879 9.66216 10.526 9.73843 10.6023C9.82164 10.6716 9.86324 10.7653 9.86324 10.8831C9.86324 11.0287 9.79044 11.1362 9.64482 11.2056L5.73403 12.9009L9.64482 14.6067ZM11.8302 16.2293C11.7955 16.3402 11.74 16.42 11.6638 16.4685C11.5875 16.524 11.5043 16.5517 11.4141 16.5517C11.2963 16.5517 11.1922 16.5136 11.1021 16.4373C11.012 16.361 10.9669 16.2605 10.9669 16.1357C10.9669 16.0871 10.9773 16.0317 10.9981 15.9692L13.4319 8.34528C13.4666 8.23434 13.5221 8.1546 13.5984 8.10606C13.6746 8.05059 13.7578 8.02285 13.848 8.02285C13.9659 8.02285 14.0699 8.06099 14.16 8.13726C14.2502 8.21353 14.2952 8.31408 14.2952 8.43889C14.2952 8.48743 14.2848 8.5429 14.264 8.60531L11.8302 16.2293ZM20.0927 12.3289C20.2106 12.3844 20.3042 12.4606 20.3736 12.5577C20.4429 12.6548 20.4776 12.7692 20.4776 12.9009C20.4776 13.0327 20.4429 13.1506 20.3736 13.2546C20.3042 13.3516 20.2106 13.4245 20.0927 13.473L16.0467 15.262C15.9566 15.2966 15.8769 15.314 15.8075 15.314C15.6896 15.314 15.5926 15.2793 15.5163 15.21C15.44 15.1337 15.4019 15.0401 15.4019 14.9291C15.4019 14.7835 15.4747 14.676 15.6203 14.6067L19.5311 12.9009L15.6203 11.2056C15.4747 11.1362 15.4019 11.0287 15.4019 10.8831C15.4019 10.7653 15.44 10.6716 15.5163 10.6023C15.5995 10.526 15.7 10.4879 15.8179 10.4879C15.8803 10.4879 15.9566 10.5052 16.0467 10.5399L20.0927 12.3289Z" fill="black"/>
</g>
<defs>
<clipPath id="clip0_493_14606">
<path d="M0.955078 4.25977C0.955078 2.05063 2.74594 0.259766 4.95508 0.259766H20.3574C22.5666 0.259766 24.3574 2.05063 24.3574 4.25977V19.9532C24.3574 22.1623 22.5666 23.9532 20.3574 23.9532H4.95508C2.74594 23.9532 0.955078 22.1623 0.955078 19.9532V4.25977Z" fill="white"/>
</clipPath>
</defs>
</svg>
