<svg width="150" height="135" viewBox="0 0 150 135" fill="none" xmlns="http://www.w3.org/2000/svg">
<path d="M94.1613 54.4062C94.1613 54.4062 111.444 63.9886 113.057 90.3633L91.2307 94.7331L85.4615 74.1889L94.1613 54.4062Z" fill="#5AB1A2"/>
<path d="M89.3424 39.6099C93.0884 35.3962 96.7486 30.733 97.8154 25.1521C98.1504 23.8782 98.0664 22.5275 97.5763 21.3067C97.0061 20.1331 95.5837 19.3154 94.3943 19.821C94.9338 18.3415 94.0571 16.6997 93.0394 15.5386C90.55 12.6535 87.1032 10.8043 83.3586 10.3448C83.9325 9.9671 84.4029 9.44733 84.7258 8.83414C84.8783 8.52303 84.9125 8.16554 84.822 7.83028C84.7315 7.49502 84.5226 7.2056 84.2353 7.01756C83.9293 6.89576 83.5959 6.86334 83.2728 6.92393C82.0536 7.08023 80.9055 7.59428 79.9682 8.40341C80.7714 8.04758 80.8143 6.75538 80.1583 6.16858C79.8069 5.90437 79.3868 5.75159 78.9506 5.72938C78.5143 5.70717 78.0814 5.81652 77.7059 6.04373C76.9573 6.50828 76.3104 7.12446 75.8053 7.85406C75.8799 7.6778 75.9107 7.48552 75.8949 7.29425C75.8791 7.10298 75.8173 6.91863 75.7148 6.75751C75.6124 6.5964 75.4725 6.46349 75.3075 6.37057C75.1426 6.27764 74.9577 6.22756 74.7692 6.22476C74.4588 6.26554 74.1624 6.38111 73.9047 6.56186C70.361 8.71553 68.1723 12.8044 67.8657 17.0181C67.6558 21.2557 68.9144 25.4338 71.4217 28.8228C73.9296 32.1824 77.1428 34.9294 80.8265 36.8631C83.7449 38.4737 87.4112 39.6785 90.2927 37.9868" fill="white"/>
<path d="M89.3423 39.9223C89.3849 39.923 89.4271 39.9144 89.4662 39.8972C89.5054 39.88 89.5404 39.8545 89.5691 39.8224C93.3764 35.5338 97.0427 30.8019 98.1156 25.2149C98.4589 23.8708 98.3665 22.4497 97.852 21.1635C97.5816 20.5906 97.1481 20.114 96.6079 19.7956C96.0677 19.4771 95.4459 19.3317 94.8233 19.3781C95.087 17.7613 93.9957 16.1819 93.2722 15.3329C90.8952 12.5822 87.6609 10.7483 84.1126 10.1391C84.4996 9.82008 84.8117 9.41697 85.0261 8.95929C85.2135 8.57754 85.2545 8.13841 85.1411 7.72754C85.0278 7.31666 84.7682 6.96351 84.413 6.73695C84.0558 6.58838 83.6643 6.54721 83.2849 6.61834C82.4735 6.71996 81.6878 6.97396 80.9674 7.36745C80.9828 7.10212 80.9408 6.83658 80.8444 6.58958C80.748 6.34257 80.5995 6.12012 80.4095 5.9379C80.0109 5.62933 79.5313 5.44803 79.0315 5.41692C78.5317 5.3858 78.0341 5.50628 77.6015 5.76311C77.049 6.06847 76.5548 6.47231 76.1424 6.95544C76.099 6.82644 76.0414 6.70287 75.9707 6.58713C75.843 6.37448 75.6623 6.20008 75.4469 6.08165C75.2315 5.96323 74.9892 5.90501 74.7445 5.91293C74.3865 5.95762 74.044 6.08812 73.7452 6.29373C70.2567 8.41619 67.884 12.5363 67.559 16.9934C67.3364 21.306 68.6176 25.5599 71.1763 29.0041C73.7068 32.4 76.9545 35.1734 80.6792 37.1194C84.3026 39.1108 87.4233 39.6164 89.8389 38.5489C89.5998 38.8298 89.3545 39.1108 89.1093 39.3854C89.0806 39.4145 89.0578 39.449 89.0422 39.487C89.0266 39.525 89.0186 39.5658 89.0186 39.607C89.0186 39.6483 89.0266 39.689 89.0422 39.7271C89.0578 39.7651 89.0806 39.7996 89.1093 39.8287C89.1719 39.8897 89.2556 39.9234 89.3423 39.9223ZM90.2987 37.675C90.245 37.6778 90.1927 37.6927 90.1454 37.7187C87.2945 39.3917 83.5853 38.0246 80.949 36.5888C77.3112 34.6701 74.1416 31.9462 71.6729 28.6171C69.2085 25.2969 67.9692 21.2 68.1721 17.0434C68.4909 12.761 70.7471 8.85317 74.0701 6.83059C74.2867 6.679 74.5339 6.57874 74.7936 6.53719C74.9269 6.54321 75.0569 6.58174 75.1726 6.64954C75.2883 6.71734 75.3863 6.81244 75.4584 6.92683C75.5305 7.04121 75.5745 7.17156 75.5869 7.30689C75.5992 7.44223 75.5794 7.5786 75.5293 7.70454C75.4926 7.77297 75.4829 7.85306 75.5023 7.92848C75.5217 8.00389 75.5686 8.06893 75.6335 8.11031C75.6962 8.1539 75.7728 8.17169 75.8479 8.16011C75.9229 8.14852 75.9909 8.10843 76.0381 8.04788C76.5251 7.35743 77.1394 6.77011 77.8468 6.3187C78.1701 6.1243 78.5418 6.02913 78.917 6.04464C79.2922 6.06014 79.6551 6.18566 79.9619 6.4061C80.098 6.54222 80.1997 6.70981 80.2584 6.89459C80.3171 7.07937 80.3311 7.27586 80.2991 7.46733C80.2774 7.61034 80.2251 7.74674 80.1459 7.86685C80.0232 7.96049 79.8945 8.06037 79.778 8.16649C79.7218 8.21409 79.6845 8.28092 79.6733 8.35447C79.662 8.42801 79.6774 8.50323 79.7167 8.56601C79.7558 8.6287 79.8152 8.67549 79.8846 8.69829C79.954 8.72109 80.0291 8.71846 80.0968 8.69087C80.2839 8.60481 80.4495 8.47676 80.5812 8.31631C81.3909 7.73163 82.3304 7.36057 83.3156 7.23635C83.5799 7.18431 83.8531 7.20588 84.1064 7.29878C84.3216 7.45185 84.4753 7.67873 84.5395 7.93785C84.6037 8.19696 84.574 8.47095 84.4559 8.70959C84.1435 9.27107 83.7017 9.7467 83.1684 10.0954C83.1203 10.1336 83.0843 10.1853 83.0647 10.2441C83.0451 10.3029 83.0428 10.3662 83.0581 10.4263C83.0733 10.4872 83.107 10.5416 83.1543 10.5819C83.2016 10.6223 83.2602 10.6464 83.3217 10.651C86.989 11.1098 90.3636 12.9222 92.8062 15.7449C93.5236 16.5814 94.6455 18.2107 94.0999 19.7152C94.0792 19.7726 94.0756 19.835 94.0894 19.8945C94.1033 19.954 94.134 20.008 94.1777 20.0499C94.2215 20.0918 94.2764 20.1197 94.3356 20.1301C94.3947 20.1405 94.4556 20.133 94.5107 20.1085C95.5529 19.659 96.8159 20.4518 97.2941 21.4444C97.7723 22.4369 97.8091 23.5169 97.5087 25.0963C96.6013 29.8406 93.7259 33.9919 90.5194 37.7811C90.4922 37.7484 90.4584 37.722 90.4204 37.7036C90.3823 37.6853 90.3408 37.6756 90.2987 37.675Z" fill="#231F20"/>
<path d="M29.9216 133.922H86.9394C87.485 128.685 87.8896 125.139 87.8896 125.139L33.3733 114.283C32.9993 116.936 31.7241 124.128 29.9216 133.922Z" fill="#231F20"/>
<path d="M29.9216 134.197H86.9393C87.0058 134.198 87.0702 134.173 87.12 134.128C87.1698 134.083 87.2015 134.021 87.2091 133.954C87.7486 128.773 88.1532 125.214 88.1594 125.171C88.1666 125.102 88.1479 125.032 88.1069 124.977C88.066 124.921 88.0058 124.883 87.9386 124.871L33.4223 114.015C33.3876 114.006 33.3512 114.005 33.3162 114.013C33.2811 114.021 33.2481 114.036 33.22 114.059C33.1894 114.081 33.1633 114.109 33.1433 114.141C33.1233 114.173 33.1098 114.209 33.1035 114.246C32.7418 116.806 31.5463 123.61 29.6518 133.873C29.6435 133.912 29.6441 133.953 29.6537 133.992C29.6633 134.031 29.6815 134.067 29.707 134.097C29.733 134.13 29.7658 134.155 29.803 134.173C29.8401 134.19 29.8807 134.198 29.9216 134.197ZM86.7002 133.648H30.2465C32.0429 123.897 33.2016 117.343 33.6063 114.608L87.6014 125.377C87.4972 126.244 87.1477 129.378 86.7002 133.648Z" fill="#231F20"/>
<path d="M58.2954 30.658C58.2954 30.658 56.8179 34.4036 52.0909 38.2552L48.1487 33.9291L56.027 23.6602L58.2954 30.658Z" fill="white"/>
<path d="M52.0908 38.6045C52.1599 38.6036 52.2267 38.5794 52.2809 38.5358C57.014 34.6779 58.516 30.9636 58.5774 30.8075C58.6021 30.7369 58.6021 30.6597 58.5774 30.589L56.3089 23.5974C56.2918 23.5432 56.2605 23.4947 56.2184 23.4573C56.1763 23.4199 56.1249 23.395 56.0698 23.3852C56.0153 23.3736 55.9588 23.3781 55.9067 23.398C55.8546 23.4179 55.8091 23.4524 55.7755 23.4975L47.9095 33.7353C47.862 33.7918 47.8359 33.8638 47.8359 33.9382C47.8359 34.0126 47.862 34.0845 47.9095 34.141L51.8456 38.4734C51.8741 38.5126 51.911 38.5448 51.9535 38.5675C51.9959 38.5902 52.0429 38.6028 52.0908 38.6045ZM57.9704 30.6764C57.7006 31.3007 56.1311 34.5281 52.1215 37.8616L48.5533 33.9101L55.9104 24.3153L57.9704 30.6764Z" fill="#231F20"/>
<path d="M48.9581 30.3965C48.9581 30.3965 56.7444 36.8638 55.9105 38.3245C55.0767 39.7853 44.0288 47.9255 44.0227 47.9255C44.9546 47.2451 48.6822 47.9255 49.749 47.9255C54.6537 48.0379 59.5319 48.3417 64.3835 48.837C71.2203 49.5082 78.0127 50.5858 84.726 52.0643C87.4113 52.6886 91.8256 52.9383 94.1615 54.4053C96.4974 55.8723 95.8536 57.9074 95.1731 60.5979C94.8727 61.784 94.56 62.9825 94.3148 64.1811C89.8821 84.0262 89.5081 104.876 87.8957 125.14C87.8957 125.14 47.315 126.388 30.9208 115.539L39.9701 68.2825C39.9701 68.2825 7.7091 70.8669 4.41065 58.3443C1.11221 45.8218 48.9581 30.3965 48.9581 30.3965Z" fill="#5AB1A2"/>
<path d="M68.9939 44.76L66.2411 54.1238C66.2411 54.1238 66.1736 58.762 72.746 59.1865C79.3184 59.611 81.5316 55.6033 81.5316 55.6033L86.0501 37.9806C86.0501 37.9806 83.0153 34.1102 87.3928 24.503C87.3928 24.503 77.0438 24.503 68.3072 20.4453C68.3072 20.4453 64.7267 31.7506 64.0155 36.807C63.3044 41.8635 68.9939 44.76 68.9939 44.76Z" fill="white"/>
<path d="M73.6904 59.5174C79.6252 59.5174 81.6607 55.9029 81.7771 55.7718C81.7815 55.7471 81.7815 55.7217 81.7771 55.6969L86.3018 38.068C86.3129 38.0205 86.3132 37.971 86.3026 37.9234C86.2919 37.8758 86.2707 37.8312 86.2405 37.7933C86.2405 37.7559 83.3957 33.9229 87.6261 24.6465C87.6461 24.5986 87.6544 24.5463 87.65 24.4943C87.6456 24.4424 87.6287 24.3923 87.6009 24.3485C87.573 24.3047 87.535 24.2686 87.4902 24.2433C87.4455 24.218 87.3952 24.2042 87.344 24.2033C87.2459 24.2033 76.9582 24.1409 68.381 20.1706C68.3416 20.1522 68.2987 20.1426 68.2554 20.1426C68.212 20.1426 68.1691 20.1522 68.1297 20.1706C68.0908 20.1884 68.056 20.2143 68.0275 20.2465C67.999 20.2788 67.9774 20.3167 67.9641 20.3579C67.9274 20.4765 64.3714 31.7505 63.6725 36.7758C63.0042 41.4015 67.5227 44.323 68.5772 44.9473L65.898 54.0551C65.892 54.084 65.892 54.1137 65.898 54.1425C65.898 54.1925 65.898 59.0804 72.6911 59.5174C73.0773 59.5049 73.4023 59.5174 73.6904 59.5174ZM81.2438 55.4597C81.0108 55.8592 78.7914 59.2427 72.7708 58.8557C66.8299 58.4749 66.5602 54.6232 66.5479 54.155L69.2884 44.8474C69.3088 44.7767 69.304 44.701 69.2748 44.6336C69.2456 44.5662 69.194 44.5115 69.129 44.4791C69.0738 44.4791 63.6112 41.6013 64.304 36.832C64.9477 32.3373 67.8967 22.7488 68.4914 20.8448C76.0692 24.2533 84.8181 24.7152 86.921 24.7776C83.1627 33.2987 85.2227 37.2627 85.6948 38.0181L81.2438 55.4597Z" fill="#231F20"/>
<path d="M83.3095 36.5508C83.7763 35.7595 84.4848 35.1456 85.3266 34.8029C86.1144 34.5206 86.9438 34.3771 87.779 34.3784C88.2393 34.3292 88.7047 34.3868 89.14 34.5469C89.4345 34.7026 89.6967 34.9146 89.9125 35.1712C90.4732 35.7092 90.8274 36.4328 90.9119 37.2125C90.9033 37.8435 90.7434 38.4629 90.4459 39.0166C90.1765 39.6438 89.8259 40.2317 89.4037 40.7645C88.969 41.2866 88.4367 41.7155 87.8377 42.0262C87.2387 42.3369 86.585 42.5233 85.9147 42.5744C85.2443 42.6255 84.5706 42.5404 83.9329 42.324C83.2951 42.1076 82.706 41.7642 82.1998 41.3138" fill="white"/>
<path d="M85.566 42.875C85.7009 42.875 85.8296 42.875 85.9645 42.875C87.3917 42.7579 88.7148 42.0685 89.6431 40.9585C90.0846 40.4052 90.4516 39.7942 90.7344 39.1419C91.0471 38.5415 91.2153 37.8739 91.2249 37.1943C91.1404 36.3367 90.7551 35.5388 90.1397 34.947C89.8954 34.6698 89.5995 34.4449 89.2691 34.2852C88.7924 34.1014 88.2802 34.033 87.7731 34.0855C86.8942 34.0823 86.0213 34.2322 85.192 34.5287C84.2914 34.8995 83.5324 35.5563 83.0278 36.4015C83.0066 36.4367 82.9926 36.4758 82.9864 36.5165C82.9802 36.5573 82.982 36.5989 82.9917 36.639C83.0014 36.679 83.0188 36.7167 83.0428 36.7499C83.0669 36.7831 83.0972 36.811 83.132 36.8322C83.2022 36.874 83.2857 36.8863 83.3647 36.8665C83.4437 36.8467 83.5119 36.7963 83.555 36.7261C83.981 35.998 84.6259 35.4288 85.3943 35.103C86.1599 34.836 86.9639 34.701 87.7731 34.7035C88.1873 34.6562 88.6065 34.7053 88.9993 34.8471C89.255 34.979 89.4839 35.159 89.6737 35.3777C90.1802 35.8615 90.5035 36.5111 90.5872 37.213C90.5725 37.7937 90.4234 38.3626 90.1519 38.8735C89.8951 39.4762 89.5567 40.0394 89.1465 40.5465C88.3172 41.5301 87.1412 42.1423 85.8725 42.2507C85.2429 42.2979 84.6103 42.2174 84.0115 42.0138C83.4127 41.8102 82.8595 41.4876 82.384 41.0646C82.3561 41.0356 82.3227 41.0125 82.2858 40.9967C82.249 40.981 82.2094 40.9728 82.1695 40.9728C82.1295 40.9728 82.0899 40.981 82.0531 40.9967C82.0162 41.0125 81.9828 41.0356 81.9549 41.0646C81.9261 41.0937 81.9033 41.1282 81.8878 41.1662C81.8722 41.2043 81.8642 41.245 81.8642 41.2863C81.8642 41.3275 81.8722 41.3683 81.8878 41.4063C81.9033 41.4443 81.9261 41.4789 81.9549 41.5079C82.9538 42.398 84.2386 42.8844 85.566 42.875Z" fill="#231F20"/>
<path d="M70.6921 29.2793C70.6921 29.2793 65.8732 32.9749 66.3392 34.0736C66.8051 35.1723 69.1042 35.3783 69.1042 35.3783" fill="white"/>
<path d="M69.1043 35.69C69.1805 35.6887 69.2534 35.6586 69.309 35.6055C69.3645 35.5524 69.3986 35.4802 69.4047 35.4029C69.4089 35.3622 69.4051 35.321 69.3934 35.2819C69.3818 35.2427 69.3625 35.2064 69.3368 35.1749C69.311 35.1435 69.2794 35.1176 69.2437 35.0989C69.2079 35.0801 69.1689 35.0689 69.1288 35.0658C68.5157 35.0158 66.9401 34.7162 66.6213 33.9546C66.419 33.4864 68.4115 31.4201 70.8762 29.5286C70.9084 29.504 70.9355 29.4732 70.956 29.4379C70.9765 29.4027 70.99 29.3636 70.9957 29.3231C71.0014 29.2825 70.9992 29.2412 70.9892 29.2015C70.9792 29.1618 70.9616 29.1244 70.9375 29.0916C70.9133 29.0589 70.8831 29.0312 70.8484 29.0103C70.8138 28.9895 70.7754 28.9757 70.7356 28.9699C70.6957 28.9641 70.6552 28.9664 70.6162 28.9766C70.5772 28.9867 70.5405 29.0046 70.5083 29.0292C69.0001 30.1841 65.5484 32.9995 66.0572 34.198C66.5661 35.3966 68.8223 35.665 69.0737 35.6838L69.1043 35.69Z" fill="#231F20"/>
<path d="M78.1597 28.2746C78.1597 28.2746 77.099 25.3843 74.616 27.1884L78.1597 28.2746Z" fill="white"/>
<path d="M78.1596 28.6187H78.2699C78.308 28.6042 78.3427 28.5821 78.3723 28.5538C78.4019 28.5254 78.4256 28.4914 78.4422 28.4536C78.4587 28.4159 78.4677 28.3752 78.4687 28.3339C78.4696 28.2925 78.4625 28.2514 78.4477 28.2129C78.3063 27.8041 78.0828 27.4299 77.7914 27.1139C77.5001 26.7979 77.1473 26.5471 76.7556 26.3776C76.3561 26.2785 75.9392 26.2778 75.5393 26.3755C75.1395 26.4732 74.7683 26.6665 74.4565 26.9394C74.3918 26.9892 74.3487 27.0625 74.3361 27.1441C74.3235 27.2256 74.3425 27.3089 74.3891 27.3764C74.4368 27.4418 74.5078 27.4856 74.5868 27.4985C74.6659 27.5113 74.7467 27.4921 74.8121 27.4451C75.0494 27.2328 75.3318 27.0795 75.6371 26.9972C75.9424 26.9148 76.2623 26.9058 76.5717 26.9707C76.8731 27.1066 77.1451 27.3018 77.3724 27.5449C77.5996 27.7881 77.7775 28.0745 77.896 28.3877C77.9101 28.4497 77.9433 28.5056 77.9907 28.5471C78.0381 28.5886 78.0972 28.6137 78.1596 28.6187Z" fill="#231F20"/>
<path d="M71.5442 26.3517C71.5442 26.3517 71.1886 24.5414 68.4787 25.8648L71.5442 26.3517Z" fill="white"/>
<path d="M71.5443 26.6566H71.6117C71.6504 26.6484 71.6871 26.6326 71.7197 26.6099C71.7524 26.5873 71.7803 26.5584 71.8019 26.5247C71.8236 26.4911 71.8385 26.4535 71.8458 26.414C71.8532 26.3745 71.8528 26.3339 71.8447 26.2945C71.7918 26.074 71.6926 25.8677 71.5539 25.6899C71.4153 25.5121 71.2405 25.367 71.0416 25.2645C70.3794 24.9274 69.472 25.0398 68.344 25.5891C68.27 25.6247 68.2129 25.6888 68.1853 25.7672C68.1577 25.8456 68.1618 25.932 68.1968 26.0074C68.2318 26.0827 68.2947 26.1408 68.3717 26.1689C68.4488 26.197 68.5336 26.1928 68.6076 26.1572C69.5395 25.7015 70.2875 25.5829 70.7595 25.8201C70.8808 25.8808 70.9873 25.9684 71.0711 26.0764C71.1549 26.1844 71.2139 26.3101 71.2439 26.4443C71.2657 26.5073 71.3065 26.5617 71.3604 26.5998C71.4144 26.6379 71.4787 26.6578 71.5443 26.6566Z" fill="#231F20"/>
<path d="M68.994 44.7598C68.994 44.7598 73.7946 46.1144 76.3879 45.384C76.3879 45.384 73.0221 50.453 67.4245 50.3781L68.994 44.7598Z" fill="#231F20"/>
<path d="M67.5162 50.7279C73.1567 50.7279 76.4981 45.7901 76.6391 45.5779C76.675 45.5269 76.6943 45.4658 76.6943 45.4031C76.6943 45.3403 76.675 45.2792 76.6391 45.2283C76.6037 45.1764 76.5537 45.1368 76.4956 45.1145C76.4376 45.0922 76.3743 45.0883 76.3141 45.1034C73.8311 45.7839 69.1287 44.4792 69.0796 44.4792C69.0016 44.4581 68.9186 44.4692 68.8485 44.5101C68.7785 44.5511 68.7272 44.6184 68.7056 44.6977L67.1361 50.3159C67.1241 50.3626 67.1223 50.4114 67.1308 50.4588C67.1393 50.5063 67.1578 50.5512 67.1852 50.5906C67.2143 50.6287 67.2515 50.6597 67.2939 50.6813C67.3364 50.7029 67.383 50.7145 67.4304 50.7155L67.5162 50.7279ZM75.652 45.8588C74.5791 47.1447 71.8018 49.9539 67.8289 50.0975L69.2084 45.1409C70.1832 45.3968 73.3468 46.1397 75.652 45.8588Z" fill="#231F20"/>
<path d="M28.9957 2.8418L70.0117 40.0661L20.0446 23.4547L28.9957 2.8418Z" fill="white"/>
<path d="M70.0117 40.3777C70.0656 40.3762 70.1183 40.3604 70.1645 40.332C70.2107 40.3035 70.2489 40.2634 70.2753 40.2154C70.3112 40.1538 70.3248 40.0813 70.3136 40.0106C70.3023 39.9399 70.2671 39.8754 70.214 39.8284L29.2041 2.61038C29.168 2.57744 29.1248 2.55352 29.0779 2.54052C29.0311 2.52751 28.982 2.52579 28.9344 2.53547C28.8865 2.54471 28.8417 2.56616 28.8042 2.59782C28.7666 2.62948 28.7376 2.67032 28.7198 2.71651L19.7625 23.3169C19.7445 23.3559 19.7351 23.3986 19.7351 23.4417C19.7351 23.4849 19.7445 23.5275 19.7625 23.5666C19.78 23.6062 19.8054 23.6416 19.837 23.6706C19.8687 23.6996 19.9059 23.7216 19.9464 23.7351L69.9136 40.3465C69.9441 40.3631 69.9773 40.3737 70.0117 40.3777ZM29.106 3.35949L68.7119 39.304L20.4614 23.2607L29.106 3.35949Z" fill="#231F20"/>
<path d="M58.2954 30.6594C55.843 30.3535 53.1515 27.8315 53.3906 25.1285C53.6543 21.6264 56.9159 23.1621 58.4242 24.8975C59.2518 25.8526 61.2505 29.2236 59.9262 30.3347C59.6902 30.4985 59.4239 30.6117 59.1435 30.6675C58.8632 30.7233 58.5747 30.7205 58.2954 30.6594Z" fill="white"/>
<path d="M58.7307 31.0031C59.2184 31.0286 59.6989 30.8758 60.0857 30.5724C60.2507 30.4306 60.3845 30.2551 60.4785 30.0572C60.5725 29.8593 60.6246 29.6435 60.6313 29.4237C60.7539 27.8818 59.3622 25.5409 58.6204 24.6919C57.5475 23.4434 55.702 22.3697 54.4084 22.8191C53.8566 23.0127 53.1822 23.562 53.0535 25.1164C52.8266 28.0317 55.6714 30.666 58.2586 30.9844C58.4156 30.9993 58.5732 31.0056 58.7307 31.0031ZM55.0522 23.331C56.0393 23.331 57.3513 24.1738 58.1606 25.1039C58.8656 25.9154 60.1225 28.0941 59.9998 29.3738C59.9976 29.5099 59.9675 29.644 59.9116 29.7676C59.8557 29.8912 59.775 30.0016 59.6749 30.0917C59.4763 30.2273 59.2525 30.32 59.0174 30.3641C58.7822 30.4081 58.5407 30.4025 58.3077 30.3476C56.0331 30.073 53.4459 27.6946 53.6359 25.1538C53.7156 24.18 54.0283 23.587 54.5801 23.3997C54.7329 23.3517 54.8922 23.3285 55.0522 23.331Z" fill="#231F20"/>
<path d="M72.3721 38.1367C72.3721 38.1367 68.5893 39.0981 69.6561 42.107L72.3721 38.1367Z" fill="white"/>
<path d="M69.6562 42.4202C69.6907 42.4261 69.726 42.4261 69.7605 42.4202C69.8369 42.392 69.8992 42.3341 69.9336 42.2592C69.9681 42.1842 69.972 42.0985 69.9444 42.0206C69.818 41.7233 69.7579 41.4011 69.7685 41.0772C69.7791 40.7534 69.8601 40.436 70.0057 40.1479C70.6188 38.8994 72.4274 38.4437 72.4581 38.4437C72.5373 38.423 72.6054 38.3716 72.6478 38.3004C72.6902 38.2292 72.7035 38.1439 72.6849 38.0629C72.6749 38.0231 72.6573 37.9857 72.6331 37.9528C72.6089 37.92 72.5785 37.8923 72.5437 37.8714C72.509 37.8506 72.4706 37.8369 72.4306 37.8312C72.3907 37.8254 72.35 37.8278 72.3109 37.8381C72.2251 37.8381 70.2509 38.375 69.4784 39.8545C69.2932 40.2164 69.1884 40.6154 69.1715 41.0232C69.1545 41.431 69.2258 41.8376 69.3803 42.2142C69.3995 42.2735 69.4364 42.3252 69.4859 42.3622C69.5353 42.3991 69.5949 42.4194 69.6562 42.4202Z" fill="#231F20"/>
<path d="M20.0482 23.438C16.9908 22.2741 16.2656 16.5555 18.4286 10.6652C20.5915 4.77491 24.8234 0.943437 27.8808 2.10737C30.9382 3.2713 31.6634 8.98987 29.5004 14.8802C27.3375 20.7705 23.1056 24.6019 20.0482 23.438Z" fill="#231F20"/>
<path d="M21.1725 23.9671C24.2012 23.9671 27.8368 20.3027 29.7558 15.0028C31.9752 8.96001 31.1659 3.04833 27.9594 1.82479C26.3654 1.20054 24.4648 1.82479 22.5887 3.52276C20.5708 5.47886 19.037 7.89417 18.1131 10.5706C17.0853 13.2075 16.6861 16.055 16.9483 18.8794C17.2732 21.4139 18.3216 23.1431 19.9095 23.7423C20.3127 23.8981 20.7413 23.9743 21.1725 23.9671ZM26.6903 2.21807C27.0506 2.21532 27.4082 2.28095 27.7448 2.41159C30.6386 3.51028 31.2824 9.0599 29.1856 14.7843C27.0888 20.5087 23.0485 24.248 20.1486 23.1618C18.7814 22.6437 17.8679 21.0955 17.5797 18.792C17.3294 16.0685 17.7182 13.3234 18.714 10.7828C19.5951 8.20069 21.0661 5.86857 23.0056 3.97847C24.2992 2.8236 25.5806 2.21807 26.7148 2.21807H26.6903Z" fill="#231F20"/>
<path d="M27.3588 60.7105C27.408 60.709 27.4562 60.6962 27.4998 60.673C39.216 54.4679 52.7164 41.5022 52.8512 41.3711C52.8798 41.3426 52.9025 41.3086 52.9179 41.2711C52.9334 41.2336 52.9414 41.1933 52.9414 41.1526C52.9414 41.1119 52.9334 41.0716 52.9179 41.0341C52.9025 40.9966 52.8798 40.9626 52.8512 40.9341C52.8227 40.9049 52.7888 40.8816 52.7515 40.8658C52.7141 40.85 52.6741 40.8418 52.6336 40.8418C52.5931 40.8418 52.553 40.85 52.5157 40.8658C52.4783 40.8816 52.4444 40.9049 52.4159 40.9341C52.2811 41.0652 38.842 53.9685 27.2055 60.1299C27.169 60.1484 27.1364 60.1742 27.1098 60.2057C27.0832 60.2372 27.063 60.2738 27.0504 60.3133C27.0378 60.3528 27.0332 60.3945 27.0366 60.4359C27.0401 60.4773 27.0517 60.5176 27.0706 60.5544C27.0999 60.6049 27.1423 60.6462 27.1931 60.6738C27.244 60.7013 27.3013 60.714 27.3588 60.7105Z" fill="#231F20"/>
<path d="M33.8393 100.618C33.9111 100.619 33.981 100.593 34.0361 100.546C34.0912 100.499 34.128 100.434 34.1397 100.362L41.2884 61.3896C41.3027 61.3085 41.285 61.2249 41.239 61.1571C41.1931 61.0892 41.1227 61.0427 41.0431 61.0275C41.0036 61.0194 40.9629 61.0195 40.9234 61.0277C40.884 61.036 40.8465 61.0523 40.8133 61.0756C40.7801 61.0989 40.7519 61.1287 40.7303 61.1634C40.7087 61.198 40.6941 61.2367 40.6875 61.2772L33.545 100.249C33.5307 100.33 33.5484 100.414 33.5943 100.482C33.6403 100.55 33.7107 100.596 33.7902 100.611L33.8393 100.618Z" fill="#231F20"/>
<path d="M71.0048 58.9375L74.0212 63.095L71.0171 64.9678L67.1301 103.64L59.0127 107.979L55.4384 99.8137L68.5524 64.4434L67.0749 61.7092L71.0048 58.9375Z" fill="#231F20"/>
<path d="M59.0129 108.285C59.0615 108.285 59.1095 108.274 59.154 108.254L67.2713 103.915C67.3159 103.891 67.3542 103.856 67.3829 103.814C67.4117 103.772 67.4302 103.723 67.4369 103.672L71.3055 65.1555L74.1809 63.3576C74.2173 63.336 74.2484 63.3063 74.2718 63.2705C74.2952 63.2348 74.3102 63.1941 74.3158 63.1516C74.3248 63.1098 74.3251 63.0665 74.3166 63.0246C74.3082 62.9826 74.2912 62.943 74.2667 62.9081L71.2503 58.7506C71.2016 58.6865 71.1307 58.6437 71.0521 58.6309C70.9735 58.6182 70.8931 58.6364 70.8273 58.6819L66.9035 61.4536C66.8418 61.4979 66.7983 61.5637 66.7813 61.6386C66.7643 61.7135 66.7751 61.7921 66.8115 61.8594L68.2155 64.4688L55.1505 99.7079C55.1226 99.7823 55.1226 99.8645 55.1505 99.9389L58.7309 108.104C58.748 108.143 58.7726 108.178 58.8031 108.207C58.8336 108.236 58.8695 108.258 58.9087 108.273L59.0129 108.285ZM66.8422 103.441L59.1601 107.549L55.7697 99.8078L68.8347 64.5562C68.8546 64.5166 68.865 64.4727 68.865 64.4282C68.865 64.3837 68.8546 64.3398 68.8347 64.3002L67.492 61.8032L70.9438 59.3624L73.5862 63.008L70.8702 64.706C70.8305 64.7312 70.7968 64.7649 70.7714 64.8048C70.7459 64.8447 70.7294 64.8898 70.723 64.937L66.8422 103.441Z" fill="#231F20"/>
<path d="M81.9441 62.4326L149.688 81.4062L137.355 127.06L69.6105 108.087L81.9441 62.4326Z" fill="white"/>
<path d="M137.36 127.375C137.427 127.376 137.493 127.355 137.548 127.314C137.602 127.274 137.642 127.216 137.66 127.15L149.99 81.4922C150.01 81.4127 150 81.3281 149.959 81.2568C149.919 81.1856 149.853 81.1333 149.775 81.1114L82.0283 62.1403C81.9531 62.1121 81.8705 62.1121 81.7953 62.1403C81.7242 62.1808 81.6714 62.248 81.6482 62.3276L69.3189 107.985C69.2982 108.065 69.3091 108.15 69.3493 108.221C69.3895 108.292 69.4557 108.344 69.5335 108.366L137.28 127.369L137.36 127.375ZM149.315 81.6295L137.145 126.682L70.0117 107.898L82.1632 62.827L149.315 81.6295Z" fill="#231F20"/>
<path d="M100.77 117.105C100.77 117.105 100.635 118.466 102.518 119.802C104.4 121.138 110.531 122.88 111.843 122.218C113.558 121.444 115.009 120.169 116.012 118.554C117.079 116.637 118.464 114.221 117.735 113.304C117.005 112.386 115.521 113.803 113.805 116.799C113.805 116.799 115.932 111.387 114.626 111.05C113.32 110.713 112.413 112.111 110.617 114.708C110.617 114.708 112.903 108.996 111.187 109.027C109.47 109.059 105.706 115.47 105.706 115.133C105.706 114.796 107.913 109.302 106.031 110.301C104.149 111.3 102.677 116.968 102.677 116.968L100.77 117.105Z" fill="white"/>
<path d="M110.93 122.673C111.288 122.693 111.646 122.631 111.978 122.492C113.747 121.691 115.241 120.372 116.27 118.702L116.386 118.49C117.52 116.455 118.802 114.152 117.956 113.103C117.858 112.97 117.728 112.864 117.579 112.796C117.43 112.729 117.266 112.701 117.103 112.716C116.49 112.766 115.742 113.378 114.884 114.532C115.24 113.284 115.497 111.829 115.191 111.174C115.143 111.07 115.073 110.978 114.986 110.904C114.899 110.831 114.797 110.778 114.688 110.749C113.554 110.462 112.732 111.218 111.622 112.722C112.027 111.361 112.352 109.757 111.892 109.083C111.814 108.962 111.706 108.865 111.579 108.8C111.452 108.735 111.31 108.706 111.169 108.714C109.942 108.714 108.177 111.074 106.534 113.452C107.098 111.58 107.288 110.425 106.81 110.013C106.656 109.875 106.362 109.769 105.878 110.013C104.094 110.962 102.726 115.581 102.426 116.661L100.734 116.78C100.662 116.785 100.594 116.816 100.542 116.868C100.491 116.919 100.459 116.987 100.452 117.061C100.452 117.123 100.323 118.621 102.328 120.045C103.891 121.156 108.575 122.673 110.93 122.673ZM117.195 113.309C117.254 113.311 117.312 113.327 117.364 113.355C117.416 113.383 117.461 113.423 117.496 113.471C118.072 114.189 116.742 116.592 115.865 118.159L115.748 118.372C114.773 119.933 113.365 121.164 111.702 121.911C110.598 122.473 104.621 120.887 102.69 119.52C102.296 119.288 101.952 118.979 101.677 118.61C101.402 118.242 101.203 117.821 101.089 117.373L102.702 117.254C102.765 117.247 102.825 117.222 102.874 117.181C102.923 117.14 102.959 117.085 102.978 117.023C103.376 115.481 104.731 111.324 106.178 110.556C106.254 110.503 106.343 110.472 106.436 110.469C106.583 110.618 106.57 111.399 105.645 114.214C105.53 114.497 105.448 114.792 105.399 115.094C105.4 115.163 105.421 115.23 105.461 115.286C105.5 115.342 105.556 115.384 105.62 115.406C105.878 115.488 105.902 115.444 106.656 114.345C107.594 112.966 110.09 109.351 111.193 109.301C111.233 109.297 111.273 109.304 111.309 109.32C111.346 109.337 111.378 109.362 111.402 109.395C111.831 110.019 111.034 112.797 110.329 114.551C110.3 114.622 110.299 114.701 110.325 114.773C110.352 114.844 110.403 114.903 110.47 114.938C110.535 114.976 110.611 114.988 110.684 114.97C110.757 114.953 110.821 114.908 110.862 114.845L111.077 114.539C112.799 112.042 113.529 111.062 114.547 111.317C114.584 111.317 114.62 111.317 114.657 111.417C115.031 112.166 114.161 115.019 113.523 116.649C113.501 116.72 113.506 116.797 113.535 116.865C113.564 116.933 113.617 116.989 113.683 117.021C113.749 117.054 113.824 117.061 113.895 117.042C113.965 117.023 114.027 116.979 114.069 116.917C115.951 113.64 116.913 113.321 117.134 113.303L117.195 113.309Z" fill="#231F20"/>
<path d="M4.63761 65.9354C4.75248 65.8192 4.90788 65.7539 5.06985 65.7539C5.23182 65.7539 5.38721 65.8192 5.50208 65.9354C6.04677 66.5985 6.40826 67.3974 6.54941 68.2498C6.69056 69.1023 6.60628 69.9776 6.30523 70.7859C6.28394 70.865 6.24754 70.9391 6.19811 71.0039C6.14868 71.0687 6.08719 71.123 6.01715 71.1636C5.94711 71.2041 5.8699 71.2303 5.78993 71.2405C5.70997 71.2506 5.62881 71.2447 5.55112 71.2229C5.47339 71.2012 5.40063 71.1641 5.33698 71.1138C5.27333 71.0635 5.22007 71.0009 5.18021 70.9295C5.14035 70.8582 5.11469 70.7796 5.10469 70.6982C5.0947 70.6168 5.10057 70.5341 5.12196 70.455C5.18517 70.2963 5.23841 70.1337 5.28137 69.9681C5.28137 69.8745 5.32427 69.7808 5.34267 69.6872C5.34498 69.6456 5.34498 69.6039 5.34267 69.5624C5.35488 69.3899 5.35488 69.2167 5.34267 69.0442C5.34267 68.9568 5.34267 68.8757 5.34267 68.7883C5.34267 68.7009 5.34267 68.7009 5.34267 68.6572C5.34414 68.6322 5.34414 68.6072 5.34267 68.5823C5.31881 68.4183 5.28606 68.2557 5.24457 68.0954C5.24457 68.0142 5.19554 67.933 5.16488 67.8519C5.13423 67.7707 5.08517 67.6334 5.11582 67.7021C5.04639 67.5336 4.96441 67.3709 4.87059 67.2152C4.82767 67.1402 4.77862 67.0716 4.72957 66.9967C4.70909 66.9605 4.68439 66.9269 4.656 66.8968L4.61922 66.8531C4.55814 66.7934 4.50989 66.7214 4.47749 66.6417C4.44509 66.562 4.42925 66.4764 4.43098 66.3902C4.43271 66.3039 4.45196 66.219 4.48752 66.1408C4.52308 66.0625 4.57419 65.9926 4.63761 65.9354Z" fill="#E6E7E8"/>
<path d="M11.6819 105.818C12.4181 105.053 13.287 104.433 14.2446 103.989C14.3152 103.641 14.4535 103.311 14.6515 103.018C14.8494 102.726 15.103 102.476 15.3972 102.285C16.7461 101.417 18.5547 101.842 19.9709 102.285C20.7189 102.522 20.4001 103.733 19.6398 103.484C18.7447 103.13 17.7835 102.983 16.8257 103.053C16.3632 103.107 15.9403 103.345 15.6486 103.715C15.7222 103.715 15.7896 103.715 15.8632 103.715C16.2546 103.732 16.6369 103.84 16.9811 104.03C17.3254 104.221 17.6224 104.488 17.8496 104.813C18.0729 105.122 18.178 105.502 18.1452 105.884C18.1125 106.265 17.9442 106.622 17.6718 106.886C16.5376 107.872 14.919 106.886 14.4224 105.7C14.3683 105.57 14.3233 105.436 14.2875 105.3C13.6519 105.683 13.0668 106.146 12.5463 106.68C11.97 107.273 11.0994 106.368 11.6819 105.818ZM16.4947 106.043C16.8503 106.081 17.0342 105.9 16.8503 105.562C16.7205 105.374 16.5465 105.222 16.3441 105.119C16.1418 105.017 15.9174 104.967 15.6915 104.976C15.614 104.969 15.5361 104.969 15.4585 104.976C15.5081 105.236 15.6335 105.475 15.8182 105.662C16.003 105.849 16.2386 105.975 16.4947 106.024V106.043Z" fill="#E6E7E8"/>
<path d="M111.917 128.928L111.96 128.878L112.058 128.735L112.26 128.441C112.389 128.248 112.511 128.042 112.622 127.817C112.732 127.592 112.836 127.392 112.935 127.193C112.935 127.193 113.039 126.98 112.935 127.137C112.935 127.087 112.977 127.024 113.002 126.974C113.026 126.924 113.082 126.749 113.118 126.637C113.14 126.558 113.176 126.484 113.226 126.419C113.275 126.354 113.336 126.3 113.407 126.259C113.477 126.219 113.554 126.193 113.634 126.183C113.714 126.172 113.795 126.178 113.873 126.2C113.95 126.222 114.023 126.259 114.087 126.309C114.15 126.36 114.204 126.422 114.243 126.493C114.283 126.565 114.309 126.643 114.319 126.725C114.329 126.806 114.323 126.889 114.302 126.968C113.953 128.001 113.43 128.964 112.757 129.815C112.642 129.931 112.486 129.996 112.324 129.996C112.163 129.996 112.007 129.931 111.892 129.815C111.834 129.757 111.788 129.688 111.757 129.612C111.725 129.536 111.709 129.454 111.708 129.371C111.726 129.204 111.8 129.048 111.917 128.928Z" fill="#E6E7E8"/>
<path d="M17.1508 118.704C17.2285 118.682 17.3097 118.676 17.3896 118.686C17.4696 118.697 17.5468 118.723 17.6168 118.763C17.6869 118.804 17.7484 118.858 17.7978 118.923C17.8472 118.988 17.8836 119.062 17.9049 119.141L17.9417 119.228C17.9724 119.297 18.003 119.36 18.0275 119.422C18.0521 119.484 18.1563 119.69 18.2299 119.821C18.3699 120.093 18.5234 120.358 18.6897 120.614C18.7694 120.739 18.8552 120.864 18.941 120.983L19.0514 121.132C19.0798 121.164 19.1064 121.197 19.1311 121.232C19.3273 121.469 19.5296 121.7 19.7442 121.919C19.8084 121.975 19.8605 122.044 19.8973 122.121C19.9341 122.199 19.9548 122.283 19.958 122.369C19.9613 122.455 19.9471 122.541 19.9163 122.621C19.8854 122.701 19.8387 122.774 19.7789 122.835C19.7192 122.895 19.6477 122.943 19.5691 122.974C19.4904 123.006 19.4062 123.02 19.3217 123.017C19.2373 123.014 19.1545 122.993 19.0784 122.955C19.0023 122.918 18.9347 122.864 18.8797 122.799C17.9432 121.832 17.2036 120.687 16.7032 119.428C16.6732 119.272 16.7029 119.11 16.786 118.976C16.8692 118.841 16.9997 118.744 17.1508 118.704Z" fill="#E6E7E8"/>
<path d="M2.42396 85.5428C2.46453 85.4718 2.51846 85.4096 2.58266 85.3599C2.64687 85.3102 2.72008 85.2738 2.79811 85.2529C2.87614 85.232 2.95744 85.227 3.03737 85.2382C3.1173 85.2494 3.19429 85.2765 3.2639 85.3181L7.70883 88.1959C7.77857 88.2372 7.83961 88.2921 7.88846 88.3575C7.93732 88.4229 7.97304 88.4974 7.99354 88.5769C8.01404 88.6563 8.01895 88.7391 8.00797 88.8205C7.99698 88.9019 7.97032 88.9802 7.92953 89.0511C7.88897 89.1221 7.83504 89.1843 7.77083 89.234C7.70663 89.2838 7.63342 89.3201 7.55539 89.341C7.47735 89.3619 7.39605 89.3669 7.31612 89.3557C7.23619 89.3445 7.15921 89.3174 7.0896 89.2759L2.64467 86.398C2.57492 86.3567 2.51389 86.3018 2.46503 86.2365C2.41617 86.1711 2.38046 86.0965 2.35995 86.0171C2.33945 85.9376 2.33455 85.8548 2.34553 85.7735C2.35651 85.6921 2.38317 85.6137 2.42396 85.5428Z" fill="#E6E7E8"/>
<path d="M0.603223 124.158C0.975262 123.789 1.43626 123.526 1.93976 123.397C2.36372 123.306 2.7633 123.123 3.11078 122.86C3.47863 122.498 3.33148 121.923 3.23952 121.474C3.06917 120.917 3.0501 120.324 3.18434 119.757C3.52155 118.715 4.60673 117.941 5.56929 118.715C5.68348 118.832 5.74756 118.99 5.74756 119.155C5.74756 119.32 5.68348 119.478 5.56929 119.595C5.51229 119.653 5.44447 119.7 5.36976 119.731C5.29505 119.763 5.21491 119.779 5.13398 119.779C5.05304 119.779 4.9729 119.763 4.89819 119.731C4.82348 119.7 4.75568 119.653 4.69869 119.595C4.76613 119.651 4.7416 119.595 4.69869 119.657C4.60619 119.725 4.52889 119.813 4.47184 119.913C4.39308 120.062 4.34485 120.226 4.3301 120.394C4.31534 120.563 4.33436 120.733 4.386 120.893C4.5638 121.855 4.76612 122.878 4.04267 123.665C3.47249 124.289 2.64482 124.408 1.91523 124.714C1.65447 124.812 1.43699 125.003 1.30214 125.251C1.25929 125.341 1.22442 125.435 1.19793 125.531C1.19312 125.56 1.19312 125.59 1.19793 125.619H1.24083C1.37428 125.705 1.46979 125.841 1.50741 125.997C1.54503 126.154 1.52186 126.319 1.44273 126.458C1.36359 126.597 1.23461 126.7 1.08275 126.745C0.930877 126.79 0.767851 126.773 0.627734 126.699C-0.340955 126.137 -0.058918 124.888 0.603223 124.158Z" fill="#E6E7E8"/>
<path d="M93.6404 120.382L92.592 119.271C92.0402 118.696 92.9047 117.81 93.4565 118.391L94.652 119.639C95.0751 120.082 95.5042 120.519 95.3326 121.2C95.2531 121.462 95.1526 121.716 95.0321 121.961C94.9218 122.23 94.8053 122.492 94.6949 122.76C94.4681 123.31 94.2412 123.853 94.0083 124.402C93.9729 124.482 93.9216 124.553 93.8576 124.611C93.7935 124.669 93.7182 124.713 93.6365 124.74C93.5548 124.766 93.4685 124.775 93.3833 124.766C93.298 124.756 93.2156 124.729 93.1414 124.685C93.0673 124.641 93.003 124.582 92.9527 124.511C92.9025 124.44 92.8674 124.359 92.8497 124.274C92.832 124.188 92.8321 124.1 92.85 124.015C92.868 123.929 92.9033 123.849 92.9538 123.778C93.3277 122.873 93.7263 121.974 94.088 121.056C94.11 121.008 94.1285 120.958 94.1432 120.906C93.9624 120.745 93.7943 120.57 93.6404 120.382Z" fill="#E6E7E8"/>
<path d="M100.985 126.569C101.008 126.489 101.053 126.418 101.114 126.363L101.236 126.269C101.331 126.212 101.439 126.182 101.549 126.182H101.708C101.811 126.207 101.904 126.261 101.978 126.338L102.438 126.812C102.498 126.865 102.543 126.934 102.567 127.012C102.604 127.085 102.622 127.167 102.622 127.249C102.622 127.334 102.604 127.417 102.567 127.493C102.541 127.569 102.497 127.638 102.438 127.692L102.315 127.792C102.222 127.846 102.116 127.874 102.009 127.873H101.843C101.741 127.844 101.648 127.788 101.573 127.711L101.114 127.243C101.057 127.185 101.012 127.115 100.981 127.039C100.951 126.963 100.935 126.882 100.936 126.8C100.931 126.72 100.948 126.64 100.985 126.569Z" fill="#E6E7E8"/>
<path d="M107.012 56.484C107.244 56.1767 107.556 55.9407 107.912 55.8019C108.267 55.6632 108.654 55.627 109.029 55.6974C108.593 54.709 107.941 53.8355 107.122 53.1442C106.509 52.6323 107.386 51.7521 107.993 52.264C109.16 53.2713 110.021 54.5966 110.476 56.0844C110.484 56.1204 110.494 56.1558 110.506 56.1906C110.672 56.2842 110.831 56.3841 110.978 56.484C111.631 56.9523 112.163 57.5731 112.531 58.2944C112.899 59.0156 113.092 59.8162 113.094 60.629C113.094 60.7946 113.029 60.9534 112.914 61.0704C112.799 61.1875 112.643 61.2533 112.48 61.2533C112.318 61.2533 112.162 61.1875 112.047 61.0704C111.932 60.9534 111.867 60.7946 111.867 60.629C111.875 59.7083 111.545 58.8179 110.942 58.132L110.764 57.951C110.754 58.0737 110.731 58.1951 110.696 58.313C110.577 58.6557 110.343 58.9452 110.037 59.132C109.73 59.3188 109.37 59.3912 109.016 59.3368C108.266 59.307 107.551 59.0009 107.005 58.4753C106.787 58.1908 106.669 57.8397 106.67 57.4786C106.671 57.1174 106.791 56.7671 107.012 56.484ZM107.919 57.5827C108.023 57.8823 108.765 58.0259 109.035 58.0633C109.482 58.1258 109.605 57.9447 109.562 57.5077C109.562 57.3579 109.538 57.2081 109.489 57.0583C109.169 56.9299 108.823 56.889 108.483 56.9397C108.226 56.9834 107.796 57.2393 107.919 57.5827Z" fill="#E6E7E8"/>
<path d="M120.347 53.7883C120.382 53.4492 120.496 53.1235 120.678 52.8372C120.86 52.551 121.106 52.3123 121.395 52.1403C121.91 51.8032 122.621 51.6284 122.995 51.1415C123.157 50.9343 123.263 50.6881 123.304 50.4267C123.345 50.1653 123.319 49.8976 123.228 49.6495C123.185 49.4897 123.206 49.3191 123.287 49.1751C123.367 49.0311 123.5 48.9256 123.657 48.8817C123.814 48.8378 123.982 48.8592 124.123 48.9411C124.265 49.0231 124.368 49.1589 124.411 49.3187C124.607 49.9542 124.575 50.6396 124.323 51.254C124.071 51.8683 123.613 52.3723 123.032 52.6771C122.756 52.827 122.462 52.9518 122.192 53.1079C122.069 53.1739 121.952 53.2512 121.843 53.3389C121.807 53.3711 121.774 53.4067 121.744 53.445L121.708 53.5012L121.653 53.6073C121.638 53.642 121.626 53.6774 121.616 53.7134C121.602 53.7583 121.592 53.8042 121.585 53.8507C121.585 53.8507 121.585 53.9444 121.585 53.9569C121.583 53.9672 121.583 53.9778 121.585 53.9881V54.0443C121.731 54.0957 121.853 54.2015 121.926 54.3404C121.998 54.4794 122.017 54.6411 121.977 54.7934C121.956 54.8725 121.92 54.9466 121.87 55.0114C121.821 55.0762 121.759 55.1305 121.689 55.171C121.619 55.2116 121.542 55.2378 121.462 55.2479C121.382 55.2581 121.301 55.2521 121.223 55.2303C120.945 55.1176 120.709 54.9165 120.551 54.6568C120.393 54.3971 120.321 54.0926 120.347 53.7883Z" fill="#E6E7E8"/>
<path d="M28.5419 72.1664C28.9036 71.848 29.67 71.5421 29.5841 70.9179C29.4983 70.2936 28.7564 69.763 28.2782 69.4384C27.6222 69.0014 28.2353 67.9152 28.8913 68.3647C29.8845 69.0326 31.1352 70.1688 30.7306 71.5359C30.5141 72.0985 30.1164 72.5696 29.6025 72.8718C29.486 72.953 29.0691 73.2214 29.0753 73.3962C29.0753 73.4711 29.2531 73.5522 29.3266 73.5959C30.2585 74.0829 31.3437 74.37 31.3314 75.6809C31.2407 76.338 31.033 76.9727 30.7183 77.5537C30.5835 77.8908 30.3995 78.5088 30.8042 78.7023C31.5215 79.0332 30.9023 80.1069 30.1911 79.7761C29.0998 79.2704 29.2592 77.8284 29.67 76.9045C29.8662 76.4675 30.3934 75.656 29.9581 75.244C29.5801 74.9785 29.1673 74.7683 28.7319 74.6197C27.659 74.1266 27.659 72.9405 28.5419 72.1664Z" fill="#E6E7E8"/>
<path d="M17.739 81.9664C18.4937 81.9051 19.2421 82.1461 19.8249 82.6381C20.4077 83.1301 20.779 83.8343 20.8596 84.6008C20.8596 84.788 20.8597 84.9816 20.8903 85.1688C20.8996 85.2984 20.9466 85.4223 21.0252 85.5247C21.1428 85.6538 21.2936 85.7468 21.4605 85.7931C21.999 85.927 22.5597 85.9398 23.1036 85.8305C23.1813 85.8087 23.2624 85.8028 23.3424 85.813C23.4224 85.8231 23.4996 85.8493 23.5696 85.8898C23.6396 85.9304 23.7011 85.9847 23.7506 86.0495C23.8 86.1143 23.8364 86.1884 23.8577 86.2675C23.9011 86.4264 23.881 86.5964 23.8017 86.7403C23.7225 86.8842 23.5905 86.9902 23.4346 87.0354C22.2085 87.2476 20.4182 87.2851 19.8296 85.8867C19.7078 85.482 19.6438 85.0615 19.6396 84.6382C19.6032 84.3596 19.493 84.0963 19.3208 83.8766C19.1385 83.6331 18.8961 83.443 18.6183 83.3257C18.3404 83.2084 18.0371 83.168 17.739 83.2087C17.5764 83.2087 17.4205 83.1429 17.3055 83.0258C17.1905 82.9088 17.1259 82.75 17.1259 82.5844C17.1259 82.4189 17.1905 82.2601 17.3055 82.143C17.4205 82.0259 17.5764 81.9602 17.739 81.9602V81.9664Z" fill="#E6E7E8"/>
<path d="M24.5936 108.846C24.6149 108.767 24.6513 108.693 24.7007 108.628C24.7501 108.563 24.8116 108.509 24.8817 108.468C24.9517 108.428 25.0289 108.402 25.1089 108.392C25.1888 108.381 25.27 108.387 25.3477 108.409C26.3693 108.665 27.2816 109.252 27.9472 110.082C28.0568 110.203 28.1199 110.361 28.125 110.525C28.1227 110.691 28.0592 110.849 27.9472 110.969C27.8902 111.027 27.8224 111.074 27.7477 111.105C27.673 111.137 27.5928 111.153 27.5119 111.153C27.431 111.153 27.3508 111.137 27.2761 111.105C27.2014 111.074 27.1336 111.027 27.0766 110.969C26.9359 110.785 26.78 110.613 26.6107 110.457L26.488 110.344C26.4651 110.331 26.4443 110.314 26.4267 110.294L26.3777 110.257L26.3164 110.213L26.1631 110.107C25.9664 109.988 25.7615 109.884 25.55 109.795H25.4887L25.3293 109.733C25.2185 109.696 25.106 109.664 24.9921 109.639C24.9144 109.614 24.8423 109.574 24.7801 109.52C24.7178 109.467 24.6667 109.401 24.6296 109.328C24.5925 109.254 24.5702 109.173 24.564 109.091C24.5578 109.008 24.5679 108.925 24.5936 108.846Z" fill="#E6E7E8"/>
<path d="M114.492 67.3215C114.879 66.873 115.419 66.5908 116.003 66.5317C116.586 66.4726 117.17 66.6411 117.637 67.0032C118.008 66.6375 118.449 66.3518 118.931 66.163C119.413 65.9743 119.928 65.8863 120.445 65.9045C121.091 65.9421 121.72 66.13 122.284 66.4538C122.841 66.0422 123.523 65.8433 124.209 65.892C125.944 66.0543 126.986 67.7647 127.121 69.3816C127.189 70.1869 125.963 70.1806 125.895 69.3816C125.881 68.8964 125.723 68.4269 125.443 68.034C125.163 67.6411 124.774 67.3428 124.326 67.1779C123.947 67.0846 123.548 67.1357 123.204 67.3215C123.371 67.6006 123.448 67.9258 123.424 68.2517C123.401 68.5608 123.259 68.8483 123.03 69.0525C122.801 69.2567 122.502 69.3614 122.198 69.3441C121.438 69.3067 121.168 68.5825 121.309 67.9083C121.345 67.7378 121.4 67.5723 121.475 67.4152C121.136 67.2429 120.762 67.1511 120.383 67.1467C119.963 67.1304 119.544 67.2191 119.165 67.4052C118.786 67.5913 118.457 67.869 118.207 68.2142C118.153 68.3074 118.076 68.3845 117.983 68.4381C117.891 68.4917 117.786 68.5199 117.68 68.5199C117.573 68.5199 117.469 68.4917 117.376 68.4381C117.284 68.3845 117.207 68.3074 117.152 68.2142C117.048 68.0745 116.913 67.9612 116.758 67.8832C116.603 67.8052 116.433 67.7647 116.26 67.7647C116.088 67.7647 115.917 67.8052 115.763 67.8832C115.608 67.9612 115.473 68.0745 115.368 68.2142C114.866 68.8385 114.001 67.9458 114.492 67.3215Z" fill="#E6E7E8"/>
<path d="M101.001 76.0435L98.6219 84.9213L96.4621 84.3426L97.4547 80.6383L94.0894 79.7365L93.0968 83.4409L90.9496 82.8655L93.3284 73.9877L95.4756 74.563L94.5537 78.0037L97.919 78.9054L98.8409 75.4648L101.001 76.0435ZM103.268 76.5434C103.356 76.2169 103.545 75.9804 103.835 75.834C104.128 75.6791 104.467 75.6533 104.852 75.7565C105.237 75.8596 105.518 76.0515 105.694 76.3319C105.872 76.604 105.917 76.9033 105.83 77.2298C105.745 77.5479 105.556 77.7844 105.263 77.9392C104.973 78.0857 104.635 78.1074 104.25 78.0042C103.865 77.901 103.583 77.7134 103.405 77.4413C103.228 77.1608 103.183 76.8615 103.268 76.5434ZM105.088 79.144L103.211 86.1509L101.063 85.5755L102.941 78.5687L105.088 79.144ZM109.331 81.6939C109.713 81.3388 110.147 81.0917 110.633 80.9527C111.127 80.816 111.621 80.8138 112.115 80.9461L111.499 83.2441L110.884 83.0792C110.315 82.9267 109.839 82.9292 109.455 83.0867C109.081 83.2465 108.816 83.6152 108.661 84.1928L107.806 87.3823L105.659 86.8069L107.537 79.8001L109.684 80.3755L109.331 81.6939ZM114.287 79.4958C114.374 79.1693 114.563 78.9328 114.854 78.7864C115.146 78.6315 115.485 78.6057 115.87 78.7089C116.256 78.8121 116.536 79.0039 116.712 79.2843C116.891 79.5564 116.936 79.8557 116.848 80.1822C116.763 80.5003 116.574 80.7368 116.282 80.8916C115.991 81.0381 115.653 81.0598 115.268 80.9566C114.883 80.8534 114.601 80.6658 114.423 80.3937C114.247 80.1132 114.202 79.8139 114.287 79.4958ZM116.107 82.0965L114.229 89.1033L112.082 88.5279L113.96 81.5211L116.107 82.0965ZM123.021 83.8683C123.824 84.0836 124.389 84.522 124.714 85.1833C125.048 85.847 125.089 86.6476 124.837 87.5852L123.747 91.6536L121.6 91.0783L122.623 87.2609C122.749 86.7921 122.721 86.3943 122.539 86.0675C122.368 85.7346 122.077 85.5132 121.667 85.4033C121.232 85.2866 120.847 85.3317 120.514 85.5384C120.189 85.7474 119.958 86.1072 119.821 86.6178L118.825 90.3347L116.678 89.7593L118.555 82.7525L120.702 83.3279L120.359 84.6087C120.672 84.244 121.058 83.9929 121.517 83.8556C121.983 83.7205 122.485 83.7247 123.021 83.8683ZM130.693 85.9105C131.228 86.0541 131.656 86.2988 131.976 86.6448C132.296 86.9907 132.492 87.3977 132.564 87.8656L132.904 86.5973L135.039 87.1693L133.171 94.1385C132.997 94.7914 132.714 95.3438 132.324 95.7955C131.931 96.2556 131.434 96.571 130.832 96.7417C130.23 96.9123 129.544 96.8945 128.774 96.6881C127.719 96.4055 126.941 95.9278 126.439 95.255C125.944 94.5929 125.747 93.8181 125.851 92.9305L127.973 93.4992C127.964 93.8017 128.055 94.0639 128.247 94.2858C128.447 94.5099 128.739 94.6736 129.124 94.7767C129.568 94.8956 129.959 94.8612 130.296 94.6735C130.64 94.4963 130.887 94.1273 131.037 93.5665L131.367 92.3359C131.07 92.7051 130.697 92.9595 130.247 93.0991C129.797 93.2387 129.304 93.2367 128.768 93.0931C128.19 92.9384 127.709 92.657 127.325 92.249C126.952 91.8348 126.704 91.3198 126.582 90.7039C126.468 90.0902 126.509 89.4192 126.704 88.6909C126.901 87.9543 127.202 87.3528 127.605 86.8866C128.018 86.4142 128.489 86.0963 129.018 85.9328C129.557 85.7632 130.115 85.7557 130.693 85.9105ZM130.879 87.9791C130.418 87.8557 130.005 87.9066 129.64 88.1317C129.283 88.3591 129.033 88.7406 128.889 89.2764C128.745 89.8122 128.771 90.2677 128.967 90.6431C129.171 91.0208 129.503 91.2713 129.963 91.3946C130.415 91.5158 130.825 91.4596 131.193 91.2261C131.569 90.9949 131.826 90.6197 131.965 90.1007C132.107 89.5733 132.071 89.1197 131.859 88.7398C131.657 88.3538 131.331 88.1002 130.879 87.9791ZM94.6887 96.6251L91.3611 95.7335L90.3746 97.2053L88.1143 96.5997L93.7286 88.6561L96.2023 89.3189L97.0926 99.0054L94.8072 98.393L94.6887 96.6251ZM94.5736 94.8447L94.3434 91.2837L92.351 94.2491L94.5736 94.8447ZM103.53 90.771L101.04 100.063L98.8932 99.4878L101.383 90.1956L103.53 90.771ZM111.133 98.8108C111.086 98.9866 111.014 99.1735 110.916 99.3716L106.056 98.0694C105.94 98.6036 105.972 99.0203 106.152 99.3198C106.334 99.6109 106.613 99.8069 106.99 99.9078C107.308 99.9931 107.593 99.9842 107.845 99.8812C108.097 99.7782 108.29 99.6101 108.424 99.3769L110.697 99.9859C110.473 100.455 110.153 100.845 109.738 101.155C109.325 101.458 108.85 101.658 108.312 101.756C107.776 101.846 107.216 101.812 106.63 101.655C105.943 101.471 105.37 101.165 104.911 100.737C104.462 100.303 104.16 99.773 104.004 99.1481C103.848 98.5232 103.868 97.8466 104.063 97.1183C104.261 96.3816 104.578 95.7846 105.014 95.3274C105.462 94.864 105.991 94.5617 106.603 94.4207C107.217 94.2712 107.868 94.2885 108.554 94.4724C109.249 94.6586 109.822 94.9647 110.273 95.3906C110.724 95.8165 111.023 96.3272 111.168 96.9224C111.324 97.5116 111.313 98.141 111.133 98.8108ZM109.048 97.9022C109.18 97.444 109.147 97.0671 108.948 96.7716C108.759 96.4699 108.477 96.2686 108.1 96.1676C107.707 96.0622 107.349 96.0919 107.026 96.2568C106.704 96.4216 106.466 96.7256 106.311 97.1687L109.048 97.9022ZM115.901 97.9483C116.283 97.5931 116.717 97.3461 117.203 97.2071C117.697 97.0703 118.191 97.0681 118.685 97.2005L118.069 99.4984L117.454 99.3335C116.885 99.181 116.409 99.1835 116.026 99.341C115.651 99.5008 115.386 99.8695 115.231 100.447L114.377 103.637L112.229 103.061L114.107 96.0544L116.254 96.6298L115.901 97.9483ZM123.115 104L122.62 105.845L121.653 105.586C120.833 105.367 120.246 104.994 119.894 104.469C119.551 103.938 119.506 103.203 119.757 102.266L120.447 99.6913L119.505 99.439L119.99 97.6308L120.931 97.8831L121.392 96.1628L123.54 96.7381L123.079 98.4585L124.485 98.8353L124.001 100.644L122.594 100.267L121.894 102.879C121.82 103.155 121.823 103.362 121.903 103.5C121.991 103.64 122.169 103.746 122.437 103.818L123.115 104ZM130.228 97.8977L128.319 103.967L126.498 103.48L127.88 97.2685L130.228 97.8977ZM128.256 105.054L127.681 107.202L125.446 106.603L126.021 104.455L128.256 105.054Z" fill="#427DAA"/>
</svg>
