<svg width="21" height="23" viewBox="0 0 21 23" fill="none" xmlns="http://www.w3.org/2000/svg">
<rect x="0.325033" y="7.47542" width="20.152" height="11.7012" fill="white" stroke="black" stroke-width="0.650065"/>
<path d="M10.3804 19.502V22.1022H5.2002H15.6012" stroke="black" stroke-width="0.650065"/>
<g clip-path="url(#clip0_493_14650)">
<path d="M14.4096 8.12706C14.3374 8.29045 14.3159 8.4717 14.3478 8.64743C14.3797 8.82316 14.4634 8.98532 14.5883 9.11299L14.6208 9.1455C14.7216 9.24612 14.8015 9.36561 14.856 9.49714C14.9105 9.62866 14.9386 9.76965 14.9386 9.91203C14.9386 10.0544 14.9105 10.1954 14.856 10.3269C14.8015 10.4585 14.7216 10.5779 14.6208 10.6786C14.5202 10.7793 14.4007 10.8592 14.2692 10.9137C14.1377 10.9683 13.9967 10.9963 13.8543 10.9963C13.7119 10.9963 13.5709 10.9683 13.4394 10.9137C13.3079 10.8592 13.1884 10.7793 13.0878 10.6786L13.0553 10.6461C12.9276 10.5212 12.7654 10.4374 12.5897 10.4055C12.414 10.3737 12.2327 10.3952 12.0693 10.4673C11.9091 10.536 11.7725 10.65 11.6762 10.7953C11.58 10.9407 11.5283 11.111 11.5276 11.2853V11.3774C11.5276 11.6647 11.4135 11.9403 11.2103 12.1435C11.0071 12.3467 10.7315 12.4608 10.4442 12.4608C10.1568 12.4608 9.88124 12.3467 9.67805 12.1435C9.47487 11.9403 9.36072 11.6647 9.36072 11.3774V11.3286C9.35653 11.1493 9.29849 10.9754 9.19415 10.8295C9.08981 10.6837 8.94399 10.5725 8.77566 10.5106C8.61227 10.4385 8.43102 10.417 8.25529 10.4489C8.07956 10.4807 7.9174 10.5645 7.78973 10.6894L7.75723 10.7219C7.6566 10.8226 7.53711 10.9026 7.40558 10.9571C7.27406 11.0116 7.13307 11.0397 6.99069 11.0397C6.84831 11.0397 6.70733 11.0116 6.5758 10.9571C6.44427 10.9026 6.32478 10.8226 6.22416 10.7219C6.12342 10.6213 6.04351 10.5018 5.98898 10.3703C5.93446 10.2387 5.9064 10.0977 5.9064 9.95537C5.9064 9.81299 5.93446 9.672 5.98898 9.54047C6.04351 9.40895 6.12342 9.28946 6.22416 9.18883L6.25666 9.15633C6.38155 9.02866 6.46532 8.8665 6.49719 8.69077C6.52905 8.51504 6.50754 8.33379 6.43543 8.1704C6.36676 8.01017 6.25273 7.87353 6.1074 7.77728C5.96206 7.68103 5.79175 7.62937 5.61743 7.62868H5.52534C5.23799 7.62868 4.96241 7.51453 4.75923 7.31134C4.55604 7.10816 4.44189 6.83258 4.44189 6.54524C4.44189 6.25789 4.55604 5.98231 4.75923 5.77913C4.96241 5.57594 5.23799 5.46179 5.52534 5.46179H5.57409C5.7534 5.4576 5.9273 5.39956 6.07318 5.29522C6.21906 5.19088 6.33018 5.04507 6.39209 4.87674C6.4642 4.71334 6.48571 4.5321 6.45385 4.35636C6.42198 4.18063 6.33821 4.01848 6.21332 3.8908L6.18082 3.8583C6.08008 3.75768 6.00017 3.63819 5.94565 3.50666C5.89112 3.37513 5.86306 3.23415 5.86306 3.09177C5.86306 2.94938 5.89112 2.8084 5.94565 2.67687C6.00017 2.54534 6.08008 2.42585 6.18082 2.32523C6.28144 2.2245 6.40093 2.14458 6.53246 2.09006C6.66399 2.03554 6.80497 2.00747 6.94735 2.00747C7.08973 2.00747 7.23072 2.03554 7.36225 2.09006C7.49377 2.14458 7.61327 2.2245 7.71389 2.32523L7.74639 2.35773C7.87406 2.48262 8.03622 2.5664 8.21195 2.59826C8.38768 2.63012 8.56893 2.60861 8.73232 2.5365H8.77566C8.93589 2.46783 9.07253 2.35381 9.16878 2.20847C9.26504 2.06313 9.31669 1.89282 9.31738 1.7185V1.62641C9.31738 1.33906 9.43153 1.06349 9.63472 0.860301C9.8379 0.657117 10.1135 0.542969 10.4008 0.542969C10.6882 0.542969 10.9637 0.657117 11.1669 0.860301C11.3701 1.06349 11.4843 1.33906 11.4843 1.62641V1.67517C11.485 1.84948 11.5366 2.01979 11.6329 2.16513C11.7291 2.31047 11.8658 2.42449 12.026 2.49316C12.1894 2.56528 12.3706 2.58679 12.5464 2.55492C12.7221 2.52306 12.8842 2.43928 13.0119 2.3144L13.0444 2.28189C13.145 2.18116 13.2645 2.10124 13.3961 2.04672C13.5276 1.9922 13.6686 1.96413 13.811 1.96413C13.9533 1.96413 14.0943 1.9922 14.2259 2.04672C14.3574 2.10124 14.4769 2.18116 14.5775 2.28189C14.6782 2.38252 14.7581 2.50201 14.8127 2.63353C14.8672 2.76506 14.8953 2.90605 14.8953 3.04843C14.8953 3.19081 14.8672 3.33179 14.8127 3.46332C14.7581 3.59485 14.6782 3.71434 14.5775 3.81496L14.545 3.84747C14.4201 3.97514 14.3363 4.1373 14.3045 4.31303C14.2726 4.48876 14.2941 4.67001 14.3662 4.8334V4.87674C14.4349 5.03696 14.5489 5.17361 14.6943 5.26986C14.8396 5.36611 15.0099 5.41776 15.1842 5.41846H15.2763C15.5637 5.41846 15.8392 5.5326 16.0424 5.73579C16.2456 5.93897 16.3598 6.21455 16.3598 6.5019C16.3598 6.78925 16.2456 7.06482 16.0424 7.26801C15.8392 7.47119 15.5637 7.58534 15.2763 7.58534H15.2276C15.0532 7.58604 14.8829 7.63769 14.7376 7.73394C14.5923 7.83019 14.4782 7.96684 14.4096 8.12706Z" fill="white" stroke="black" stroke-width="0.650065" stroke-linecap="round" stroke-linejoin="round"/>
<path d="M10.401 8.12533C11.2986 8.12533 12.0262 7.39772 12.0262 6.50016C12.0262 5.60261 11.2986 4.875 10.401 4.875C9.50349 4.875 8.77588 5.60261 8.77588 6.50016C8.77588 7.39772 9.50349 8.12533 10.401 8.12533Z" stroke="black" stroke-width="0.650065" stroke-linecap="round" stroke-linejoin="round"/>
<path d="M14.4096 8.12706C14.3374 8.29045 14.3159 8.4717 14.3478 8.64743C14.3797 8.82316 14.4634 8.98532 14.5883 9.11299L14.6208 9.1455C14.7216 9.24612 14.8015 9.36561 14.856 9.49714C14.9105 9.62867 14.9386 9.76965 14.9386 9.91203C14.9386 10.0544 14.9105 10.1954 14.856 10.3269C14.8015 10.4585 14.7216 10.5779 14.6208 10.6786C14.5202 10.7793 14.4007 10.8592 14.2692 10.9137C14.1377 10.9683 13.9967 10.9963 13.8543 10.9963C13.7119 10.9963 13.5709 10.9683 13.4394 10.9137C13.3079 10.8592 13.1884 10.7793 13.0878 10.6786L13.0553 10.6461C12.9276 10.5212 12.7654 10.4374 12.5897 10.4055C12.414 10.3737 12.2327 10.3952 12.0693 10.4673C11.9091 10.536 11.7725 10.65 11.6762 10.7953C11.58 10.9407 11.5283 11.111 11.5276 11.2853V11.3774C11.5276 11.6647 11.4135 11.9403 11.2103 12.1435C11.0071 12.3467 10.7315 12.4608 10.4442 12.4608C10.1568 12.4608 9.88124 12.3467 9.67805 12.1435C9.47487 11.9403 9.36072 11.6647 9.36072 11.3774V11.3286C9.35653 11.1493 9.29849 10.9754 9.19415 10.8295C9.08981 10.6837 8.94399 10.5725 8.77566 10.5106C8.61227 10.4385 8.43102 10.417 8.25529 10.4489C8.07956 10.4807 7.9174 10.5645 7.78973 10.6894L7.75723 10.7219C7.6566 10.8226 7.53711 10.9026 7.40558 10.9571C7.27406 11.0116 7.13307 11.0397 6.99069 11.0397C6.84831 11.0397 6.70733 11.0116 6.5758 10.9571C6.44427 10.9026 6.32478 10.8226 6.22416 10.7219C6.12342 10.6213 6.04351 10.5018 5.98898 10.3703C5.93446 10.2387 5.9064 10.0977 5.9064 9.95537C5.9064 9.81299 5.93446 9.672 5.98898 9.54048C6.04351 9.40895 6.12342 9.28946 6.22416 9.18883L6.25666 9.15633C6.38155 9.02866 6.46532 8.8665 6.49719 8.69077C6.52905 8.51504 6.50754 8.33379 6.43543 8.1704C6.36676 8.01017 6.25273 7.87353 6.1074 7.77728C5.96206 7.68103 5.79175 7.62937 5.61743 7.62868H5.52534C5.23799 7.62868 4.96241 7.51453 4.75923 7.31134C4.55604 7.10816 4.44189 6.83258 4.44189 6.54524C4.44189 6.25789 4.55604 5.98231 4.75923 5.77913C4.96241 5.57594 5.23799 5.46179 5.52534 5.46179H5.57409C5.7534 5.4576 5.9273 5.39956 6.07318 5.29522C6.21906 5.19088 6.33018 5.04507 6.39209 4.87674C6.4642 4.71334 6.48571 4.5321 6.45385 4.35636C6.42198 4.18063 6.33821 4.01848 6.21332 3.8908L6.18082 3.8583C6.08008 3.75768 6.00017 3.63819 5.94565 3.50666C5.89112 3.37513 5.86306 3.23415 5.86306 3.09177C5.86306 2.94938 5.89112 2.8084 5.94565 2.67687C6.00017 2.54534 6.08008 2.42585 6.18082 2.32523C6.28144 2.2245 6.40093 2.14458 6.53246 2.09006C6.66399 2.03554 6.80497 2.00747 6.94735 2.00747C7.08973 2.00747 7.23072 2.03554 7.36225 2.09006C7.49377 2.14458 7.61327 2.2245 7.71389 2.32523L7.74639 2.35773C7.87406 2.48262 8.03622 2.5664 8.21195 2.59826C8.38768 2.63012 8.56893 2.60861 8.73232 2.5365H8.77566C8.93589 2.46783 9.07253 2.35381 9.16878 2.20847C9.26503 2.06313 9.31669 1.89282 9.31738 1.7185V1.62641C9.31738 1.33906 9.43153 1.06349 9.63472 0.860302C9.8379 0.657117 10.1135 0.542969 10.4008 0.542969C10.6882 0.542969 10.9637 0.657117 11.1669 0.860302C11.3701 1.06349 11.4843 1.33906 11.4843 1.62641V1.67517C11.485 1.84948 11.5366 2.01979 11.6329 2.16513C11.7291 2.31047 11.8658 2.42449 12.026 2.49316C12.1894 2.56528 12.3706 2.58679 12.5464 2.55492C12.7221 2.52306 12.8842 2.43928 13.0119 2.3144L13.0444 2.28189C13.145 2.18116 13.2645 2.10124 13.3961 2.04672C13.5276 1.9922 13.6686 1.96413 13.811 1.96413C13.9533 1.96413 14.0943 1.9922 14.2259 2.04672C14.3574 2.10124 14.4769 2.18116 14.5775 2.28189C14.6782 2.38252 14.7581 2.50201 14.8127 2.63353C14.8672 2.76506 14.8953 2.90605 14.8953 3.04843C14.8953 3.19081 14.8672 3.33179 14.8127 3.46332C14.7581 3.59485 14.6782 3.71434 14.5775 3.81496L14.545 3.84747C14.4201 3.97514 14.3363 4.1373 14.3045 4.31303C14.2726 4.48876 14.2941 4.67001 14.3662 4.8334V4.87674C14.4349 5.03696 14.5489 5.17361 14.6943 5.26986C14.8396 5.36611 15.0099 5.41776 15.1842 5.41846H15.2763C15.5637 5.41846 15.8392 5.5326 16.0424 5.73579C16.2456 5.93897 16.3598 6.21455 16.3598 6.5019C16.3598 6.78924 16.2456 7.06482 16.0424 7.26801C15.8392 7.47119 15.5637 7.58534 15.2763 7.58534H15.2276C15.0532 7.58604 14.8829 7.63769 14.7376 7.73394C14.5923 7.83019 14.4782 7.96684 14.4096 8.12706V8.12706Z" stroke="black" stroke-width="0.650065" stroke-linecap="round" stroke-linejoin="round"/>
</g>
<defs>
<clipPath id="clip0_493_14650">
<rect width="13.0013" height="13.0013" fill="white" transform="translate(3.90039)"/>
</clipPath>
</defs>
</svg>
