<svg width="512" height="512" viewBox="0 0 512 512" fill="none" xmlns="http://www.w3.org/2000/svg">
<rect width="512" height="512" fill="#427DAA"/>
<path d="M251.545 395.172C240.803 395.172 231.525 393.951 223.713 391.51C215.998 389.068 209.455 385.895 204.084 381.988C198.811 378.082 194.562 373.688 191.34 368.805C188.117 363.824 185.627 358.795 183.869 353.717C182.209 348.639 181.086 343.756 180.5 339.068C180.012 334.381 179.768 330.328 179.768 326.91C179.768 325.445 179.865 323.688 180.061 321.637C180.354 319.488 181.232 317.438 182.697 315.484C184.162 313.531 186.457 311.871 189.582 310.504C192.805 309.137 197.346 308.453 203.205 308.453C205.158 308.453 207.6 308.6 210.529 308.893C213.459 309.088 216.291 309.723 219.025 310.797C221.76 311.773 224.104 313.238 226.057 315.191C228.01 317.145 228.986 319.781 228.986 323.102C228.986 328.375 229.279 333.111 229.865 337.311C230.549 341.51 231.721 345.074 233.381 348.004C235.041 350.934 237.336 353.18 240.266 354.742C243.195 356.305 246.955 357.086 251.545 357.086C256.33 357.086 259.992 356.109 262.531 354.156C265.168 352.203 267.072 350.006 268.244 347.564C269.611 344.83 270.393 341.656 270.588 338.043V230.523H232.209C228.303 230.523 224.396 230.328 220.49 229.938C216.584 229.547 213.02 228.668 209.797 227.301C206.672 225.934 204.084 223.883 202.033 221.148C200.08 218.414 199.104 214.703 199.104 210.016C199.104 205.23 200.08 201.422 202.033 198.59C204.084 195.758 206.672 193.658 209.797 192.291C213.02 190.826 216.584 189.898 220.49 189.508C224.396 189.117 228.303 188.922 232.209 188.922H291.975C297.541 188.922 301.936 189.898 305.158 191.852C308.479 193.805 310.969 196.393 312.629 199.615C314.289 202.74 315.363 206.305 315.852 210.309C316.34 214.312 316.584 218.414 316.584 222.613V333.941C316.584 344.098 315.119 352.691 312.189 359.723C309.26 366.754 305.549 372.564 301.057 377.154C296.662 381.646 291.779 385.113 286.408 387.555C281.135 389.996 276.057 391.803 271.174 392.975C266.389 394.049 262.189 394.684 258.576 394.879C254.963 395.074 252.619 395.172 251.545 395.172Z" fill="white"/>
<circle cx="255.5" cy="129.5" r="32.5" fill="white"/>
</svg>
