<svg width="24" height="25" viewBox="0 0 24 25" fill="none" xmlns="http://www.w3.org/2000/svg">
<path d="M17.3792 16.8758H20.6895C22.3384 16.8758 23.6749 18.2123 23.6749 19.8611V21.5162C23.6749 22.7078 22.7087 23.6739 21.5171 23.6739H14.3939V19.8611C14.3939 18.2123 15.7304 16.8758 17.3792 16.8758Z" fill="white" stroke="black" stroke-width="0.650065"/>
<path d="M9.60601 23.6739H2.48276C1.29117 23.6739 0.325033 22.7078 0.325033 21.5162V19.8611C0.325033 18.2123 1.66153 16.8758 3.31035 16.8758H6.6207C8.26952 16.8758 9.60601 18.2123 9.60601 19.8611V23.6739Z" fill="white" stroke="black" stroke-width="0.650065"/>
<path d="M17.4307 12.5024C18.1624 10.2275 17.3968 7.71219 15.475 6.23539C13.4257 4.66041 10.5731 4.66041 8.52369 6.23538C6.60187 7.71218 5.83631 10.2275 6.56796 12.5024H2.06879C1.79147 12.5012 1.56685 12.2766 1.56576 11.9993V9.51767C1.56685 9.24036 1.79147 9.01571 2.06879 9.01457H3.98412H4.23613L4.29891 8.7705C4.48389 8.05134 4.77145 7.36261 5.15266 6.72545L5.28278 6.50797L5.10359 6.32875L3.74239 4.96737L3.74208 4.96706C3.64829 4.87352 3.59553 4.74641 3.59553 4.61369C3.59553 4.4812 3.64826 4.35409 3.74208 4.26052L3.74238 4.26022L5.501 2.50162L5.5013 2.50132C5.59487 2.40751 5.72199 2.35477 5.85448 2.35477C5.98721 2.35477 6.11432 2.40754 6.20786 2.50132L6.20818 2.50164L7.56958 3.86281L7.74879 4.042L7.96627 3.91189C8.60343 3.53068 9.29217 3.24313 10.0114 3.05815L10.2554 2.99537V2.74336V0.828053C10.2566 0.550752 10.4812 0.326128 10.7585 0.325033H13.2402C13.5176 0.326129 13.7423 0.550885 13.7433 0.828299C13.7433 0.828393 13.7433 0.828487 13.7433 0.828582L13.7433 2.74336V2.99537L13.9874 3.05815C14.7065 3.24313 15.3953 3.53068 16.0324 3.91189L16.2499 4.042L16.4291 3.86281L17.7905 2.50164L17.7908 2.50132C17.8844 2.40754 18.0115 2.35477 18.1442 2.35477C18.2767 2.35477 18.4038 2.40751 18.4974 2.50132L18.4977 2.50162L20.2563 4.26022L20.2566 4.26052C20.3504 4.35409 20.4032 4.4812 20.4032 4.61369C20.4032 4.74641 20.3504 4.87352 20.2566 4.96706L20.2563 4.96738L18.8951 6.32875L18.7159 6.50797L18.846 6.72545C19.2273 7.36261 19.5148 8.05134 19.6998 8.7705L19.7626 9.01457H20.0146H21.9299C22.2072 9.01571 22.4318 9.24031 22.4329 9.51759C22.4329 9.51776 22.433 9.51794 22.433 9.51811V11.9988C22.433 11.999 22.4329 11.9992 22.4329 11.9994C22.4318 12.2766 22.2072 12.5012 21.9299 12.5024H17.4307Z" fill="white" stroke="black" stroke-width="0.650065"/>
<path d="M13.7436 11.5846C13.7436 12.5476 12.9627 13.3285 11.9996 13.3285C11.0366 13.3285 10.2557 12.5476 10.2557 11.5846C10.2557 10.6215 11.0366 9.84066 11.9996 9.84066C12.9627 9.84066 13.7436 10.6215 13.7436 11.5846Z" fill="white" stroke="black" stroke-width="0.650065"/>
<path d="M20.7777 13.2408C20.7777 14.2039 19.9969 14.9847 19.0338 14.9847C18.0707 14.9847 17.2899 14.2039 17.2899 13.2408C17.2899 12.2778 18.0707 11.4969 19.0338 11.4969C19.9969 11.4969 20.7777 12.2778 20.7777 13.2408Z" fill="white" stroke="black" stroke-width="0.650065"/>
<path d="M6.7089 13.2408C6.7089 14.2039 5.92804 14.9847 4.96496 14.9847C4.00189 14.9847 3.22103 14.2039 3.22103 13.2408C3.22103 12.2778 4.00189 11.4969 4.96496 11.4969C5.92804 11.4969 6.7089 12.2778 6.7089 13.2408Z" fill="white" stroke="black" stroke-width="0.650065"/>
<path d="M10.3445 15.2235H13.6549C15.3037 15.2235 16.6402 16.56 16.6402 18.2087V22.3466C16.6402 23.0811 16.0446 23.6767 15.3101 23.6767H8.68935C7.9548 23.6767 7.35921 23.0811 7.35921 22.3466V18.2087C7.35921 16.56 8.69571 15.2235 10.3445 15.2235Z" fill="white" stroke="black" stroke-width="0.650065"/>
</svg>
