<svg width="34" height="34" viewBox="0 0 34 34" fill="none" xmlns="http://www.w3.org/2000/svg">
<path d="M10.8808 26.7666H10.8808C10.2314 26.7666 9.70492 26.2336 9.70495 25.5761L9.70495 25.5761L9.70495 18.3153L12.0567 18.3153L12.0567 25.5761V25.5761C12.0568 26.2336 11.5303 26.7666 10.8808 26.7666Z" fill="white" stroke="black" stroke-width="0.650065"/>
<path d="M5.20825 17.1983L5.20825 17.1983L5.20825 14.1631C5.20825 13.1036 6.06363 12.2441 7.13362 12.2442L7.13364 12.2442L12.2499 12.2442L13.5557 13.5133L13.5557 17.9371L12.2518 19.1779H7.13357C6.07341 19.1779 5.20819 18.2829 5.20825 17.1983Z" fill="white" stroke="black" stroke-width="0.650065"/>
<path d="M21.5377 9.4869L21.3647 9.22418L21.5377 9.4869L23.0738 8.45008L24.0484 10.474V20.9942C24.0436 21.0074 24.0351 21.0276 24.0215 21.0558C23.9902 21.1209 23.9423 21.2067 23.8799 21.3109C23.7845 21.4704 23.6661 21.6551 23.5411 21.8501C23.5024 21.9104 23.4631 21.9717 23.4237 22.0335C23.2605 22.2894 23.0945 22.5551 22.9796 22.7737C22.9704 22.7912 22.9613 22.8088 22.9525 22.8264L21.5381 21.8879C21.5377 21.8876 21.5373 21.8873 21.5369 21.8871C18.8778 20.0875 15.5638 19.1912 12.7031 19.1772L12.703 12.243C15.7123 12.2296 18.8065 11.3304 21.5377 9.4869ZM24.0528 20.9809C24.0528 20.981 24.0526 20.9818 24.0521 20.9834C24.0525 20.9817 24.0528 20.9809 24.0528 20.9809Z" fill="white" stroke="black" stroke-width="0.650065"/>
<path d="M24.1825 23.6814L24.2038 23.6887C24.3048 23.7227 24.3435 23.7326 24.3715 23.7326C25.0175 23.7326 25.5474 23.1961 25.5474 22.5421L25.5474 8.88398C25.5474 8.22995 25.0174 7.69341 24.3715 7.69338C24.3715 7.69338 24.3715 7.69338 24.3714 7.69338M24.1825 23.6814L24.3714 7.69338M24.1825 23.6814L24.1604 23.6773M24.1825 23.6814L24.1604 23.6773M24.3714 7.69338C24.3397 7.69338 24.3034 7.69864 24.2506 7.71123C24.2264 7.71698 24.2022 7.72338 24.1731 7.73108C24.1695 7.73203 24.1659 7.733 24.1621 7.73399C24.1324 7.74184 24.0983 7.75076 24.0622 7.75911M24.3714 7.69338L24.0622 7.75911M24.0622 7.75911C23.815 7.83242 23.608 7.97457 23.4589 8.17195L24.0622 7.75911ZM24.1604 23.6773C23.8387 23.617 23.5766 23.4397 23.4182 23.1763L23.411 23.1643M24.1604 23.6773L23.411 23.1643M23.411 23.1643L23.4028 23.1529M23.411 23.1643L23.4028 23.1529M23.4028 23.1529C23.2724 22.973 23.1955 22.7662 23.1955 22.5421L23.1956 8.88392L22.8725 8.88391M23.4028 23.1529L22.8725 8.88391M22.8725 8.88391L23.1956 8.88391C23.1956 8.62529 23.2944 8.38985 23.4588 8.17203L22.8725 8.88391Z" fill="white" stroke="black" stroke-width="0.650065"/>
<path d="M27.4312 15.6953H31.778" stroke="black" stroke-width="0.650065" stroke-linecap="round" stroke-linejoin="round"/>
<path d="M27.4312 18.2109L31.1956 20.4114" stroke="black" stroke-width="0.650065" stroke-linecap="round" stroke-linejoin="round"/>
<path d="M27.4312 13.1797L31.1956 10.9792" stroke="black" stroke-width="0.650065" stroke-linecap="round" stroke-linejoin="round"/>
</svg>
