<svg width="328" height="300" viewBox="0 0 328 300" fill="none" xmlns="http://www.w3.org/2000/svg">
<path d="M100.562 123.878C100.466 123.896 100.368 123.896 100.272 123.878L17.4926 83.1736C17.4047 83.1425 17.3243 83.0932 17.2569 83.0288C17.1894 82.9645 17.1364 82.8865 17.1013 82.8002C17.0662 82.7138 17.0498 82.621 17.0532 82.5278C17.0566 82.4346 17.0797 82.3433 17.121 82.2597C17.1623 82.1761 17.2209 82.1022 17.2929 82.043C17.3648 81.9837 17.4486 81.9404 17.5385 81.9158C17.6285 81.8913 17.7226 81.8861 17.8147 81.9006C17.9068 81.9151 17.9947 81.949 18.0728 82L100.865 122.625C100.943 122.663 101.013 122.716 101.071 122.781C101.128 122.846 101.172 122.922 101.2 123.004C101.229 123.086 101.24 123.173 101.235 123.259C101.229 123.346 101.207 123.431 101.169 123.508C101.111 123.619 101.024 123.713 100.917 123.778C100.81 123.843 100.687 123.877 100.562 123.878Z" fill="#E6E7E8"/>
<path d="M252.196 99.4451C252.196 99.4451 256.152 91.6919 255.532 88.5405C254.913 85.3892 253.897 75.9219 253.897 75.9219L279.886 78.3348L271.526 108.49" fill="white"/>
<path d="M271.5 109.178H271.316C271.144 109.128 270.998 109.014 270.91 108.859C270.821 108.704 270.796 108.52 270.841 108.347L278.977 78.9561L254.662 76.7014C254.952 79.0748 255.757 85.9313 256.205 88.4498C256.798 91.7857 252.975 99.4466 252.803 99.7763C252.721 99.9357 252.58 100.057 252.41 100.113C252.24 100.17 252.055 100.158 251.893 100.08C251.813 100.04 251.742 99.9855 251.683 99.9183C251.624 99.8511 251.579 99.7729 251.551 99.6882C251.523 99.6035 251.512 99.514 251.519 99.425C251.525 99.336 251.55 99.2492 251.59 99.1697C252.645 97.06 255.295 91.0869 254.873 88.6212C254.32 85.483 253.265 76.3454 253.225 75.9498C253.213 75.8496 253.224 75.748 253.256 75.6523C253.288 75.5565 253.34 75.469 253.41 75.396C253.482 75.3248 253.569 75.2702 253.665 75.236C253.761 75.2019 253.862 75.189 253.964 75.1982L279.887 77.6376C279.986 77.6489 280.081 77.6805 280.167 77.7304C280.254 77.7803 280.328 77.8475 280.388 77.9276C280.444 78.0095 280.481 78.1027 280.497 78.2008C280.513 78.2988 280.507 78.3992 280.48 78.4946L272.133 108.663C272.099 108.807 272.018 108.934 271.904 109.027C271.789 109.12 271.648 109.173 271.5 109.178Z" fill="#231F20"/>
<path d="M70.4721 137.419C70.4721 137.419 70.7094 122.071 70.4721 118.616C70.2347 115.161 75.4167 95.9368 74.1773 92.9173C72.9378 89.8978 69.4832 88.7243 68.2437 92.2844C67.0043 95.8445 64.7759 103.756 64.7759 103.756C64.7759 103.756 51.1683 95.3698 48.4389 101.119C45.7095 106.868 43.1646 117.561 46.0391 120.291C47.7868 121.917 50.019 122.927 52.3946 123.165L51.6562 142.64L70.4721 137.419Z" fill="white"/>
<path d="M51.6563 143.364C51.5037 143.362 51.3558 143.311 51.2343 143.219C51.1504 143.154 51.0836 143.07 51.0399 142.973C50.9962 142.877 50.977 142.771 50.9838 142.665L51.6959 123.823C49.4067 123.456 47.2775 122.419 45.5777 120.843C42.1231 117.599 45.3931 106.062 47.8193 100.88C48.0681 100.343 48.4343 99.8688 48.8907 99.4923C49.3471 99.1158 49.8821 98.8464 50.4564 98.7041C54.6626 97.3855 62.007 101.341 64.42 102.66C65.0265 100.511 66.6616 94.8407 67.6505 91.9926C67.8193 91.2877 68.2055 90.6537 68.7545 90.1804C69.3035 89.7071 69.9875 89.4185 70.7095 89.3555C71.6449 89.4253 72.5385 89.7707 73.2778 90.348C74.017 90.9253 74.5686 91.7086 74.863 92.5991C75.6014 94.4188 74.5598 100.049 72.8588 108.422C72.0608 111.731 71.5055 115.093 71.1974 118.483C71.4479 121.937 71.1974 136.718 71.1974 137.351C71.1995 137.498 71.1527 137.641 71.0643 137.758C70.976 137.875 70.8511 137.959 70.7095 137.997L51.8936 143.272C51.8251 143.325 51.7427 143.357 51.6563 143.364ZM52.3156 99.8512C51.8034 99.846 51.293 99.9126 50.7992 100.049C50.4183 100.148 50.0643 100.33 49.7631 100.584C49.4619 100.837 49.2213 101.154 49.0587 101.513C46.4216 107.248 43.9691 117.507 46.5007 119.893C48.1398 121.393 50.2225 122.319 52.4342 122.531C52.6138 122.541 52.7821 122.621 52.903 122.754C53.0239 122.888 53.0875 123.063 53.0803 123.243L52.3683 141.782L69.7997 136.903C69.7997 134.266 70.0107 121.7 69.7997 118.654C70.0807 115.138 70.6451 111.65 71.4875 108.224C72.6346 102.528 74.2037 94.7352 73.5708 93.1661C73.3726 92.5348 72.9978 91.9734 72.4908 91.5482C71.9838 91.123 71.3657 90.8517 70.7095 90.7663C69.6943 90.7663 69.1668 91.7289 68.9031 92.5068C67.6768 96.001 65.4617 103.86 65.4485 103.939C65.4184 104.039 65.3661 104.132 65.2953 104.21C65.2245 104.287 65.1372 104.348 65.0397 104.387C64.946 104.436 64.842 104.461 64.7365 104.461C64.6309 104.461 64.5269 104.436 64.4332 104.387C64.3409 104.282 57.0492 99.7985 52.3156 99.7985V99.8512Z" fill="#231F20"/>
<path d="M122.951 229.6L104.583 299.708L150.548 296.675L160.728 262.063L176.775 295.383H217.953L192.822 199.734L122.951 229.6Z" fill="#231F20"/>
<path d="M188.22 220.516L120.077 233.227L137.02 132.581C137.02 132.581 171.712 125.619 180.098 125.619C187.165 125.566 188.22 220.516 188.22 220.516Z" fill="white"/>
<path d="M120.076 233.833C119.904 233.834 119.739 233.768 119.615 233.648C119.539 233.574 119.482 233.482 119.448 233.381C119.413 233.281 119.403 233.173 119.417 233.068L136.361 132.409C136.387 132.279 136.451 132.159 136.545 132.065C136.638 131.971 136.758 131.907 136.888 131.881C138.299 131.591 171.738 124.906 180.097 124.906C181.601 124.906 185.134 124.985 187.455 173.007C188.589 196.478 188.866 220.265 188.879 220.476C188.879 220.631 188.825 220.782 188.727 220.902C188.628 221.022 188.491 221.105 188.338 221.135L120.182 233.793L120.076 233.833ZM137.587 133.081L120.881 232.356L187.561 219.962C186.954 167.351 183.684 126.225 180.097 126.225C172.384 126.225 141.661 132.264 137.587 133.081Z" fill="#231F20"/>
<path d="M148.557 125.565C147.542 126.225 150.509 140.874 150.68 142.193C152.164 155.48 152.886 168.841 152.843 182.211C152.735 197.13 149.805 211.894 144.206 225.724C141.688 232.119 138.761 238.369 135.688 244.513C132.616 250.658 126.577 251.713 120.142 251.251C113.258 250.752 106.451 249.483 99.8497 247.467C97.4814 246.96 95.3187 245.757 93.6393 244.012C91.0022 240.65 93.8766 236.101 95.3798 232.883C97.5159 228.308 99.5597 223.653 101.472 219.012C104.517 211.51 112.732 193.524 114.829 185.705C117.558 175.539 113.51 175.513 113.985 165.004C114.183 160.758 114.235 156.512 114.407 152.266C114.499 149.722 113.734 141.718 115.396 139.793C128.093 125.17 148.557 125.565 148.557 125.565Z" fill="#5DB3A4"/>
<path d="M199.454 123.22C199.876 123.299 197.806 157.397 197.951 159.098C199.045 172.033 217.993 222.904 217.993 222.904C217.993 227.585 170.749 255.604 167.729 247.205C181.732 173.365 172.081 125.594 171.751 125.567C171.764 125.567 188.576 121.15 199.454 123.22Z" fill="#5DB3A4"/>
<path d="M164.829 143.564L159.647 148.601L163.84 151.502C163.84 151.502 159.423 184.361 143.89 189.029C128.357 193.696 122.318 192.088 122.318 192.088L113.748 203.229C113.748 203.229 127.065 207.04 128.015 207.357C128.964 207.673 157.181 201.093 161.625 183.622C164.274 173.317 166.013 162.798 166.82 152.188L169.629 148.654L164.829 143.564Z" fill="#231F20"/>
<path d="M145.393 176.148C145.291 176.147 145.19 176.123 145.099 176.077C145.008 176.031 144.928 175.965 144.866 175.884L131.706 158.07C131.605 157.953 131.55 157.803 131.55 157.648C131.55 157.493 131.605 157.344 131.706 157.226L139.895 148.761L129.623 146.124C129.513 146.097 129.412 146.042 129.331 145.963C129.25 145.884 129.191 145.785 129.162 145.676C129.131 145.566 129.129 145.449 129.157 145.338C129.185 145.227 129.241 145.126 129.32 145.043L141.332 132.16C141.453 132.033 141.619 131.958 141.795 131.953C141.97 131.948 142.14 132.013 142.268 132.134C142.396 132.255 142.47 132.421 142.475 132.597C142.48 132.772 142.415 132.943 142.294 133.07L131.034 145.135L141.332 147.772C141.442 147.804 141.542 147.863 141.622 147.943C141.703 148.024 141.762 148.124 141.793 148.234C141.826 148.344 141.828 148.46 141.8 148.572C141.772 148.683 141.715 148.785 141.635 148.867L133.038 157.741L145.841 175.159C145.941 175.299 145.981 175.473 145.954 175.643C145.927 175.813 145.835 175.966 145.696 176.069C145.604 176.121 145.499 176.148 145.393 176.148Z" fill="#231F20"/>
<path d="M178.357 174.222C178.269 174.235 178.181 174.235 178.093 174.222C177.934 174.15 177.81 174.019 177.746 173.856C177.682 173.694 177.683 173.513 177.75 173.352L187.415 150.805L177.5 145.834C177.343 145.743 177.225 145.597 177.17 145.425C177.145 145.337 177.137 145.245 177.149 145.154C177.16 145.064 177.19 144.976 177.236 144.897L184.646 132.859L174.915 128.363C174.758 128.285 174.636 128.151 174.575 127.987C174.513 127.822 174.517 127.641 174.586 127.479C174.622 127.4 174.675 127.329 174.739 127.27C174.804 127.211 174.879 127.166 174.961 127.136C175.043 127.107 175.131 127.094 175.218 127.099C175.305 127.103 175.39 127.125 175.469 127.163L185.873 131.975C185.958 132.014 186.034 132.07 186.096 132.141C186.157 132.211 186.202 132.294 186.229 132.384C186.254 132.474 186.262 132.568 186.25 132.661C186.239 132.754 186.209 132.844 186.163 132.925L178.7 144.884L188.523 149.816C188.673 149.89 188.789 150.018 188.848 150.175C188.907 150.332 188.904 150.505 188.839 150.66L178.924 173.774C178.882 173.895 178.806 174.001 178.706 174.081C178.605 174.16 178.484 174.209 178.357 174.222Z" fill="#231F20"/>
<path d="M259.989 0.605469L275.72 32.4752L310.886 37.5912L285.438 62.3934L291.45 97.4276L259.989 80.8928L228.528 97.4276L234.541 62.3934L209.093 37.5912L244.259 32.4752L259.989 0.605469Z" fill="white"/>
<path d="M291.45 98.0872C291.344 98.0879 291.239 98.0606 291.147 98.0081L259.989 81.592L228.832 97.9686C228.73 98.036 228.611 98.072 228.489 98.072C228.367 98.072 228.248 98.036 228.146 97.9686C228.045 97.8974 227.966 97.7987 227.919 97.6842C227.873 97.5696 227.86 97.4441 227.882 97.3225L233.829 62.6442L208.684 38.0794C208.594 37.9952 208.531 37.8872 208.5 37.7681C208.47 37.649 208.474 37.5237 208.512 37.4069C208.551 37.2914 208.621 37.1886 208.714 37.1097C208.807 37.0307 208.92 36.9785 209.04 36.9586L243.876 31.8953L259.449 0.34207C259.509 0.238043 259.595 0.151678 259.7 0.0916402C259.804 0.0316026 259.922 0 260.042 0C260.162 0 260.28 0.0316026 260.384 0.0916402C260.489 0.151678 260.575 0.238043 260.635 0.34207L276.208 31.8953L311.044 36.9586C311.164 36.9785 311.277 37.0307 311.37 37.1097C311.463 37.1886 311.532 37.2914 311.571 37.4069C311.61 37.5237 311.614 37.649 311.584 37.7681C311.553 37.8872 311.49 37.9952 311.4 38.0794L286.15 62.631L292.096 97.3093C292.119 97.4309 292.106 97.5565 292.059 97.671C292.012 97.7855 291.934 97.8842 291.833 97.9554C291.724 98.0428 291.589 98.0894 291.45 98.0872ZM259.989 80.2734C260.089 80.2477 260.193 80.2477 260.293 80.2734L290.619 96.2017L284.831 62.486C284.814 62.3796 284.822 62.2706 284.854 62.1677C284.886 62.0647 284.941 61.9706 285.016 61.8926L309.475 38.0794L275.627 33.1611C275.521 33.1435 275.42 33.1008 275.333 33.0367C275.245 32.9725 275.175 32.8886 275.126 32.7919L259.989 2.09576L244.852 32.8051C244.804 32.9018 244.733 32.9857 244.646 33.0498C244.559 33.114 244.458 33.1567 244.351 33.1743L210.504 38.0794L235.055 61.919C235.13 61.997 235.185 62.0911 235.217 62.194C235.249 62.297 235.257 62.4059 235.24 62.5124L229.451 96.2281L259.778 80.2998C259.846 80.2787 259.918 80.2697 259.989 80.2734Z" fill="#231F20"/>
<path d="M199.454 123.218C199.454 123.218 224.177 131.525 230.519 129.666C236.862 127.807 249.691 97.4141 249.691 97.4141L275.68 100.645C275.68 100.645 264.841 164.938 244.219 168.392C223.597 171.847 196.184 162.657 196.184 162.657L199.454 123.218Z" fill="#5DB3A4"/>
<path d="M139.301 99.4469C138.246 94.6737 136.822 89.9532 136.4 85.0877C135.978 80.2222 136.637 75.0666 139.393 71.045C142.36 66.7201 146.144 67.2212 150.706 66.6278C156.759 65.8367 162.165 62.804 167.782 60.6152C168.85 60.1932 170.511 60.1009 170.709 61.2349C170.741 61.5895 170.672 61.9459 170.511 62.2634C169.786 64.0577 168.775 65.723 167.518 67.1948C171.912 66.1973 176.127 64.5343 180.018 62.2634C180.432 64.4147 180.357 66.6316 179.798 68.7498C179.239 70.8681 178.21 72.8333 176.788 74.4997L184.211 70.7813C184.764 73.9127 184.104 77.137 182.365 79.7992C180.626 82.4613 177.939 84.3617 174.849 85.1141" fill="white"/>
<path d="M139.301 100.116C139.147 100.12 138.996 100.068 138.876 99.9721C138.755 99.8757 138.673 99.7401 138.642 99.589C138.365 98.3495 138.062 97.1101 137.758 95.8574C136.812 92.3449 136.133 88.7657 135.728 85.1507C135.372 81.1159 135.622 75.3406 138.839 70.6465C141.477 66.8227 144.799 66.5062 148.346 66.1897L150.627 65.9524C154.916 65.1772 159.074 63.8057 162.982 61.878C164.472 61.2319 166.002 60.5595 167.531 59.9793C168.006 59.7739 168.518 59.668 169.035 59.668C169.552 59.668 170.063 59.7739 170.538 59.9793C170.76 60.0963 170.951 60.2632 171.098 60.4669C171.244 60.6705 171.341 60.9053 171.382 61.1528C171.443 61.632 171.361 62.1186 171.144 62.5505C170.641 63.7977 170.004 64.9869 169.246 66.0974C172.899 65.0846 176.406 63.5997 179.675 61.6803C179.77 61.6283 179.877 61.6011 179.985 61.6011C180.094 61.6011 180.2 61.6283 180.295 61.6803C180.393 61.7258 180.478 61.7937 180.545 61.8785C180.611 61.9633 180.657 62.0625 180.678 62.1681C181.381 65.7823 180.753 69.5289 178.911 72.7166L183.895 70.2245C183.989 70.179 184.093 70.1553 184.198 70.1553C184.303 70.1553 184.407 70.179 184.501 70.2245C184.596 70.2696 184.678 70.3359 184.742 70.4183C184.806 70.5007 184.85 70.5969 184.871 70.6992C185.462 74.0074 184.767 77.4164 182.929 80.2298C181.091 83.0432 178.248 85.0486 174.981 85.8364C174.894 85.8556 174.803 85.8572 174.715 85.8409C174.627 85.8247 174.543 85.7911 174.468 85.7419C174.393 85.6928 174.329 85.6292 174.279 85.5548C174.229 85.4805 174.194 85.3969 174.177 85.3089C174.146 85.131 174.184 84.9478 174.285 84.7978C174.386 84.6479 174.541 84.5428 174.718 84.5046C177.648 83.8375 180.194 82.0356 181.798 79.4941C183.296 77.2228 183.945 74.4961 183.631 71.7936L177.038 75.1032C176.898 75.1672 176.74 75.1819 176.59 75.1449C176.44 75.1079 176.307 75.0213 176.212 74.8992C176.118 74.7772 176.067 74.6267 176.069 74.4723C176.07 74.3179 176.124 74.1685 176.221 74.0484C177.468 72.5827 178.399 70.875 178.955 69.0326C179.511 67.1901 179.68 65.2526 179.451 63.3417C175.73 65.4013 171.734 66.9197 167.584 67.8511C167.445 67.8812 167.3 67.867 167.169 67.8106C167.038 67.7543 166.928 67.6585 166.854 67.5367C166.78 67.4149 166.746 67.273 166.756 67.1309C166.766 66.9887 166.821 66.8533 166.912 66.7435C168.129 65.3338 169.109 63.7349 169.813 62.0099C169.91 61.804 169.96 61.5785 169.958 61.3506C169.953 61.3027 169.936 61.2569 169.908 61.2176C169.88 61.1783 169.843 61.1469 169.799 61.1265C169.19 60.9418 168.534 60.984 167.953 61.2451C166.45 61.8253 164.921 62.5637 163.457 63.1307C159.426 65.105 155.139 66.5074 150.72 67.2973C149.915 67.4028 149.137 67.4688 148.386 67.5479C144.905 67.8643 142.149 68.1149 139.881 71.4244C136.901 75.7757 136.664 81.2214 136.993 85.032C137.401 88.5927 138.071 92.1185 138.998 95.5805C139.301 96.8991 139.604 98.0858 139.894 99.3384C139.93 99.5149 139.894 99.6981 139.795 99.8486C139.697 99.9991 139.543 100.105 139.367 100.143L139.301 100.116Z" fill="#231F20"/>
<path d="M171.764 119.829L173.334 130.061C173.334 130.061 171.725 144.948 160.478 142.337C149.23 139.727 144.747 129.587 144.747 129.587L143.31 102.556C143.31 102.556 151.604 98.0336 148.98 79.9824C158.198 83.8466 168.287 85.1539 178.186 83.7667C178.186 83.7667 182.142 102.358 180.928 111.061C180.726 113.386 179.684 115.558 177.998 117.171C176.312 118.785 174.096 119.729 171.764 119.829Z" fill="white"/>
<path d="M162.969 143.367C162.081 143.358 161.197 143.252 160.332 143.051C156.835 142.166 153.574 140.527 150.777 138.249C147.98 135.972 145.715 133.11 144.14 129.865C144.122 129.787 144.122 129.706 144.14 129.628L142.597 102.689C142.588 102.561 142.617 102.432 142.68 102.32C142.744 102.207 142.839 102.116 142.953 102.057C143.032 102.057 150.772 97.468 148.228 80.1816C148.214 80.0591 148.232 79.9352 148.281 79.822C148.329 79.7087 148.406 79.61 148.505 79.5355C148.602 79.4583 148.72 79.411 148.844 79.3993C148.968 79.3876 149.093 79.412 149.203 79.4696C158.31 83.248 168.26 84.5314 178.027 83.1879C178.197 83.1678 178.369 83.2121 178.508 83.3122C178.647 83.4123 178.744 83.5608 178.779 83.7285C178.937 84.4801 182.8 102.531 181.521 111.26C181.298 113.604 180.276 115.799 178.627 117.48C176.978 119.16 174.802 120.223 172.463 120.49L173.926 129.997C173.933 130.058 173.933 130.12 173.926 130.182C173.926 130.498 172.99 138.278 168.098 141.745C166.602 142.812 164.807 143.38 162.969 143.367ZM145.393 129.456C145.907 130.538 150.443 139.359 160.596 141.719C161.735 142.048 162.934 142.122 164.105 141.935C165.277 141.748 166.392 141.305 167.373 140.638C171.513 137.711 172.516 130.946 172.647 130.089L171.092 119.949C171.076 119.853 171.083 119.755 171.11 119.661C171.137 119.568 171.185 119.482 171.25 119.409C171.308 119.332 171.384 119.271 171.472 119.23C171.559 119.188 171.654 119.168 171.751 119.172C173.924 119.082 175.989 118.199 177.556 116.69C179.123 115.182 180.083 113.152 180.256 110.983C181.363 103.375 178.33 87.8161 177.618 84.612C168.198 85.7536 158.642 84.5721 149.784 81.1705C151.669 96.5581 145.59 101.872 143.982 102.993L145.393 129.456Z" fill="#231F20"/>
<path d="M165.949 94.6973C165.949 94.6973 171.224 104.494 169.681 105.971C168.138 107.448 164.037 105.971 164.037 105.971" fill="white"/>
<path d="M167.44 107.292C166.218 107.265 165.008 107.047 163.853 106.646C163.765 106.623 163.682 106.582 163.61 106.526C163.538 106.469 163.479 106.399 163.436 106.318C163.392 106.237 163.367 106.149 163.36 106.058C163.353 105.966 163.365 105.875 163.395 105.789C163.425 105.702 163.473 105.623 163.535 105.557C163.598 105.49 163.674 105.437 163.758 105.401C163.842 105.365 163.932 105.347 164.024 105.348C164.115 105.349 164.205 105.369 164.288 105.406C165.238 105.749 168.244 106.487 169.259 105.512C169.905 104.918 168.059 99.9342 165.396 95.0423C165.354 94.9662 165.328 94.8826 165.319 94.7962C165.309 94.7099 165.317 94.6225 165.342 94.5392C165.366 94.4559 165.407 94.3783 165.461 94.3107C165.516 94.2432 165.583 94.1871 165.66 94.1457C165.736 94.1039 165.819 94.0776 165.906 94.0683C165.992 94.0589 166.079 94.0667 166.163 94.0912C166.246 94.1158 166.324 94.1565 166.391 94.2111C166.459 94.2657 166.515 94.3331 166.556 94.4094C168.244 97.4949 171.949 104.839 170.143 106.487C169.371 107.079 168.409 107.365 167.44 107.292Z" fill="#231F20"/>
<path d="M156.458 95.479C157.07 95.4533 157.517 94.3 157.459 92.9031C157.4 91.5061 156.857 90.3945 156.246 90.4202C155.634 90.4459 155.187 91.5993 155.245 92.9962C155.304 94.3932 155.847 95.5048 156.458 95.479Z" fill="#231F20"/>
<path d="M174.112 95.4751C174.723 95.4494 175.171 94.2961 175.112 92.8992C175.053 91.5022 174.51 90.3906 173.899 90.4163C173.288 90.442 172.84 91.5954 172.899 92.9923C172.957 94.3893 173.501 95.5009 174.112 95.4751Z" fill="#231F20"/>
<path d="M150.496 97.9418C149.491 96.2471 148.176 94.7574 146.619 93.551C145.818 92.8278 144.815 92.3676 143.745 92.2324C142.865 92.2416 142.006 92.4974 141.266 92.9708C140.158 93.6194 139.199 94.4952 138.454 95.5406C137.709 96.586 137.193 97.7773 136.941 99.0362C136.694 100.203 136.739 101.412 137.073 102.557C137.71 104.331 138.952 105.825 140.58 106.776C142.194 107.709 143.911 108.452 145.696 108.991" fill="white"/>
<path d="M145.696 109.715H145.472C143.629 109.161 141.859 108.391 140.198 107.421C138.435 106.391 137.094 104.77 136.413 102.846C136.042 101.591 135.987 100.263 136.255 98.9821C136.525 97.6166 137.081 96.3235 137.885 95.1874C138.689 94.0513 139.725 93.0978 140.923 92.3893C141.769 91.848 142.753 91.5598 143.758 91.5586C144.966 91.6862 146.106 92.1783 147.028 92.9695C148.649 94.2323 150.017 95.7889 151.063 97.5581C151.154 97.7139 151.181 97.8997 151.137 98.075C151.092 98.2504 150.98 98.4011 150.825 98.4942C150.668 98.5851 150.481 98.6097 150.305 98.5627C150.13 98.5157 149.98 98.401 149.889 98.2437C148.94 96.6214 147.686 95.1976 146.197 94.0507C145.496 93.4375 144.629 93.0473 143.705 92.9299C142.957 92.9404 142.226 93.1596 141.595 93.5628C140.581 94.1719 139.705 94.9862 139.024 95.9534C138.343 96.9207 137.871 98.0197 137.64 99.1799C137.425 100.238 137.466 101.332 137.758 102.371C138.347 103.988 139.486 105.346 140.976 106.208C142.547 107.117 144.22 107.838 145.96 108.357C146.044 108.385 146.122 108.43 146.189 108.488C146.255 108.547 146.31 108.618 146.349 108.698C146.389 108.777 146.412 108.864 146.417 108.953C146.423 109.041 146.411 109.13 146.382 109.214C146.345 109.365 146.256 109.498 146.13 109.59C146.005 109.681 145.851 109.726 145.696 109.715Z" fill="#231F20"/>
<path d="M171.764 119.831C165.299 120.828 158.685 119.738 152.882 116.719C152.882 116.719 162.508 131.513 173.241 129.43L171.764 119.831Z" fill="#231F20"/>
<path d="M171.078 130.381C161.005 130.381 152.619 117.749 152.289 117.195C152.211 117.072 152.176 116.927 152.188 116.782C152.2 116.637 152.258 116.5 152.355 116.391C152.451 116.281 152.581 116.207 152.725 116.181C152.869 116.154 153.017 116.177 153.146 116.246C158.824 119.182 165.285 120.248 171.606 119.292C171.784 119.26 171.968 119.298 172.12 119.397C172.194 119.45 172.257 119.516 172.304 119.593C172.352 119.67 172.383 119.756 172.397 119.846L173.874 129.432C173.905 129.6 173.868 129.773 173.772 129.914C173.675 130.054 173.527 130.151 173.36 130.183C172.607 130.321 171.843 130.388 171.078 130.381ZM154.873 118.514C157.84 122.298 164.908 130.012 172.45 129.063L171.131 120.769C165.6 121.446 159.987 120.636 154.873 118.422V118.514Z" fill="#231F20"/>
<path d="M157.445 101.858C155.676 101.858 153.948 101.334 152.478 100.352C151.008 99.3693 149.862 97.9731 149.185 96.3395C148.509 94.706 148.331 92.9085 148.676 91.1743C149.021 89.4401 149.873 87.8472 151.123 86.5969C152.373 85.3467 153.966 84.4952 155.7 84.1503C157.435 83.8054 159.232 83.9824 160.866 84.659C162.499 85.3357 163.895 86.4815 164.878 87.9517C165.86 89.4218 166.384 91.1502 166.384 92.9184C166.381 95.2883 165.438 97.5602 163.762 99.236C162.086 100.912 159.814 101.855 157.445 101.858ZM157.445 85.3366C155.945 85.3366 154.479 85.7813 153.232 86.6144C151.985 87.4475 151.014 88.6316 150.44 90.017C149.866 91.4024 149.716 92.9268 150.008 94.3975C150.301 95.8682 151.023 97.2192 152.083 98.2795C153.144 99.3398 154.495 100.062 155.965 100.354C157.436 100.647 158.961 100.497 160.346 99.923C161.731 99.3492 162.915 98.3774 163.748 97.1306C164.582 95.8838 165.026 94.4179 165.026 92.9184C165.023 90.9086 164.223 88.9822 162.802 87.5611C161.381 86.14 159.454 85.3401 157.445 85.3366Z" fill="#231F20"/>
<path d="M175.271 101.858C173.503 101.858 171.775 101.334 170.305 100.352C168.835 99.3693 167.689 97.9731 167.012 96.3395C166.335 94.706 166.158 92.9085 166.503 91.1743C166.848 89.4401 167.7 87.8472 168.95 86.5969C170.2 85.3467 171.793 84.4952 173.527 84.1503C175.261 83.8054 177.059 83.9824 178.693 84.659C180.326 85.3357 181.722 86.4815 182.705 87.9517C183.687 89.4218 184.211 91.1502 184.211 92.9184C184.208 95.2883 183.265 97.5602 181.589 99.236C179.913 100.912 177.641 101.855 175.271 101.858ZM175.271 85.3366C173.772 85.3366 172.306 85.7813 171.059 86.6144C169.812 87.4475 168.841 88.6316 168.267 90.017C167.693 91.4024 167.543 92.9268 167.835 94.3975C168.128 95.8682 168.85 97.2192 169.91 98.2795C170.971 99.3398 172.322 100.062 173.792 100.354C175.263 100.647 176.787 100.497 178.173 99.923C179.558 99.3492 180.742 98.3774 181.575 97.1306C182.408 95.8838 182.853 94.4179 182.853 92.9184C182.85 90.9086 182.05 88.9822 180.629 87.5611C179.208 86.14 177.281 85.3401 175.271 85.3366Z" fill="#231F20"/>
<path d="M166.002 112.751C161.835 112.751 157.814 110.219 154.029 105.301C153.964 105.234 153.913 105.154 153.881 105.066C153.849 104.978 153.836 104.884 153.842 104.791C153.849 104.698 153.876 104.607 153.92 104.525C153.965 104.442 154.027 104.371 154.101 104.314C154.176 104.257 154.261 104.217 154.353 104.196C154.444 104.175 154.538 104.174 154.63 104.193C154.722 104.211 154.809 104.249 154.885 104.304C154.961 104.358 155.024 104.429 155.071 104.51C158.592 109.072 162.27 111.406 166.002 111.432C171.157 111.432 174.731 106.975 174.77 106.936C174.881 106.81 175.035 106.73 175.202 106.714C175.369 106.698 175.536 106.746 175.669 106.848C175.802 106.951 175.891 107.1 175.917 107.266C175.944 107.432 175.906 107.601 175.812 107.74C175.627 107.964 171.764 112.751 166.002 112.751Z" fill="#231F20"/>
<path d="M120.076 135.311C115.395 139.807 80.7301 174.867 78.1325 168.406C75.5349 161.946 73.6889 132.291 73.6889 132.291L49.9548 135.812C49.9548 135.812 36.2681 202.584 60.0682 209.941C83.8683 217.299 120.076 182.251 120.076 182.251V135.311Z" fill="#5DB3A4"/>
<path d="M100.562 221.793C100.446 221.793 100.331 221.761 100.232 221.7C100.157 221.658 100.091 221.601 100.038 221.533C99.9847 221.464 99.946 221.386 99.9239 221.302C99.9017 221.219 99.8966 221.131 99.9088 221.046C99.921 220.96 99.9503 220.878 99.9949 220.804C100.14 220.54 115.33 193.43 120.261 150.366C120.287 150.194 120.378 150.038 120.516 149.93C120.653 149.822 120.826 149.77 121 149.786C121.172 149.806 121.33 149.893 121.439 150.029C121.548 150.165 121.598 150.338 121.58 150.511C116.609 193.865 101.287 221.186 101.129 221.463C101.071 221.563 100.989 221.646 100.889 221.703C100.79 221.761 100.677 221.792 100.562 221.793Z" fill="#231F20"/>
<path d="M239.143 169.078C221.408 169.078 188.418 161.655 188.088 161.576C188.003 161.557 187.922 161.522 187.851 161.472C187.78 161.422 187.719 161.358 187.673 161.285C187.626 161.211 187.594 161.129 187.58 161.043C187.565 160.957 187.568 160.869 187.587 160.785C187.604 160.699 187.638 160.618 187.688 160.546C187.738 160.474 187.802 160.413 187.876 160.368C187.95 160.322 188.033 160.292 188.12 160.28C188.206 160.267 188.294 160.273 188.378 160.297C188.708 160.363 221.553 167.76 239.13 167.76H240.448C240.622 167.76 240.789 167.827 240.915 167.947C241.04 168.068 241.114 168.232 241.121 168.406C241.122 168.492 241.107 168.579 241.076 168.659C241.044 168.74 240.997 168.814 240.937 168.876C240.877 168.938 240.805 168.988 240.726 169.023C240.647 169.058 240.561 169.077 240.475 169.078H239.143Z" fill="#231F20"/>
<path d="M59.8049 101.174C59.8049 101.174 63.9716 105.617 61.9278 113.41C59.884 121.203 56.4426 122.64 50.6013 119.172" fill="white"/>
<path d="M55.7308 121.651C53.7655 121.52 51.8712 120.865 50.2456 119.753C50.1694 119.707 50.103 119.646 50.0501 119.575C49.9973 119.503 49.9591 119.422 49.9377 119.336C49.9162 119.249 49.912 119.16 49.9253 119.072C49.9385 118.984 49.9689 118.899 50.0148 118.823C50.0607 118.747 50.1211 118.68 50.1927 118.628C50.2642 118.575 50.3455 118.537 50.4318 118.515C50.5181 118.494 50.6078 118.489 50.6958 118.503C50.7837 118.516 50.8682 118.546 50.9444 118.592C53.5815 120.188 55.6121 120.649 57.1417 120.029C58.9085 119.317 60.2535 117.102 61.2556 113.239C63.1675 105.934 59.4491 101.82 59.2909 101.649C59.1645 101.52 59.0936 101.348 59.0936 101.167C59.0936 100.987 59.1645 100.814 59.2909 100.686C59.3524 100.622 59.4262 100.572 59.5077 100.537C59.5893 100.502 59.677 100.484 59.7656 100.484C59.8542 100.484 59.9419 100.502 60.0235 100.537C60.1051 100.572 60.1788 100.622 60.2403 100.686C60.4249 100.884 64.6443 105.499 62.5346 113.555C61.3874 117.92 59.8975 120.372 57.6163 121.269C57.0174 121.514 56.3777 121.643 55.7308 121.651Z" fill="#231F20"/>
<path d="M255.533 88.5424C255.533 88.5424 247.924 75.7391 249.784 74.4337C251.643 73.1283 255.968 78.1125 258.354 81.488C258.354 81.488 265.672 82.8066 264.446 90.9553" fill="white"/>
<path d="M264.446 91.6382H264.341C264.163 91.609 264.004 91.511 263.898 91.3655C263.792 91.2199 263.747 91.0384 263.774 90.8603C264.895 83.4499 258.5 82.2105 258.236 82.1709C258.061 82.1375 257.905 82.0384 257.801 81.894C254.662 77.4505 251.208 74.2991 250.179 74.9979C249.692 75.8814 252.408 81.9468 256.126 88.1836C256.214 88.3382 256.238 88.5208 256.194 88.693C256.15 88.8653 256.04 89.0135 255.889 89.1066C255.812 89.1539 255.727 89.1853 255.638 89.1989C255.549 89.2126 255.458 89.2082 255.37 89.1861C255.283 89.164 255.201 89.1245 255.129 89.0701C255.058 89.0156 254.997 88.9473 254.953 88.8692C251.34 82.7775 247.437 75.2353 249.401 73.864C252.039 71.9916 257.062 78.4789 258.763 80.8655C260.174 81.2347 266.292 83.2917 265.119 91.0449C265.097 91.208 265.016 91.3578 264.893 91.4667C264.769 91.5757 264.611 91.6365 264.446 91.6382Z" fill="#231F20"/>
<path d="M22.2656 284.231C22.1314 284.23 22.0007 284.187 21.8912 284.11C21.7816 284.032 21.6984 283.923 21.6525 283.797C21.6066 283.671 21.6003 283.534 21.6345 283.404C21.6687 283.274 21.7416 283.158 21.8436 283.071L86.4533 229.102C86.5879 228.99 86.7615 228.936 86.9358 228.952C87.0221 228.96 87.106 228.985 87.1827 229.025C87.2595 229.066 87.3275 229.121 87.3829 229.187C87.4383 229.254 87.48 229.331 87.5057 229.414C87.5314 229.497 87.5405 229.584 87.5325 229.67C87.5246 229.756 87.4997 229.84 87.4593 229.917C87.4189 229.994 87.3638 230.062 87.2971 230.117L22.6875 284.086C22.568 284.182 22.4188 284.233 22.2656 284.231Z" fill="#E6E7E8"/>
<path d="M319.509 261.39C319.367 261.391 319.228 261.345 319.114 261.259L220.116 186.232C220.035 186.186 219.965 186.122 219.91 186.046C219.855 185.97 219.818 185.883 219.799 185.792C219.781 185.7 219.782 185.605 219.803 185.514C219.824 185.423 219.864 185.337 219.92 185.262C219.977 185.188 220.049 185.126 220.131 185.082C220.213 185.037 220.304 185.01 220.398 185.004C220.491 184.997 220.585 185.01 220.673 185.042C220.76 185.075 220.84 185.125 220.907 185.191L319.905 260.204C320.045 260.309 320.137 260.465 320.162 260.638C320.187 260.811 320.142 260.987 320.037 261.127C319.975 261.208 319.895 261.274 319.804 261.32C319.712 261.365 319.612 261.389 319.509 261.39Z" fill="#E6E7E8"/>
<path d="M110.781 95.3564C110.688 95.3554 110.597 95.3349 110.513 95.2963C110.429 95.2576 110.354 95.2018 110.293 95.1323L61.9939 41.1371C61.8722 41.0116 61.8042 40.8437 61.8042 40.669C61.8042 40.4942 61.8722 40.3263 61.9939 40.2009C62.0551 40.1391 62.1281 40.09 62.2084 40.0566C62.2887 40.0231 62.3749 40.0059 62.462 40.0059C62.549 40.0059 62.6352 40.0231 62.7155 40.0566C62.7958 40.09 62.8687 40.1391 62.93 40.2009L111.216 94.1961C111.278 94.2574 111.327 94.3303 111.36 94.4106C111.394 94.491 111.411 94.5771 111.411 94.6642C111.411 94.7512 111.394 94.8374 111.36 94.9177C111.327 94.9981 111.278 95.071 111.216 95.1323C111.104 95.259 110.949 95.339 110.781 95.3564Z" fill="#E6E7E8"/>
<path d="M275.707 136.165C275.532 136.197 275.351 136.157 275.206 136.056C275.06 135.955 274.96 135.8 274.929 135.625C274.897 135.45 274.936 135.27 275.038 135.124C275.139 134.978 275.294 134.878 275.469 134.847L326.445 114.963C326.607 114.898 326.789 114.901 326.95 114.97C327.111 115.039 327.237 115.169 327.302 115.332C327.367 115.495 327.364 115.676 327.295 115.837C327.226 115.998 327.095 116.124 326.933 116.189L275.931 136.113C275.861 136.147 275.784 136.165 275.707 136.165Z" fill="#E6E7E8"/>
<path d="M196.184 90.742C196.089 90.7665 195.989 90.7665 195.894 90.742C195.816 90.704 195.746 90.651 195.688 90.586C195.631 90.521 195.587 90.4453 195.559 90.3632C195.53 90.2811 195.519 90.1943 195.524 90.1077C195.53 90.0211 195.552 89.9364 195.59 89.8585L213.773 53.0969C213.85 52.9396 213.987 52.8192 214.152 52.7623C214.318 52.7055 214.5 52.7167 214.657 52.7937C214.814 52.8706 214.935 53.0069 214.992 53.1726C215.048 53.3383 215.037 53.5197 214.96 53.6771L196.817 90.3859C196.756 90.4996 196.665 90.5936 196.552 90.6567C196.44 90.7198 196.312 90.7494 196.184 90.742Z" fill="#E6E7E8"/>
<path d="M319.509 180.022H319.443L259.923 172.269C259.836 172.258 259.753 172.231 259.676 172.188C259.6 172.145 259.534 172.088 259.48 172.02C259.426 171.951 259.386 171.872 259.363 171.789C259.339 171.705 259.332 171.617 259.343 171.53C259.353 171.444 259.38 171.36 259.423 171.284C259.466 171.208 259.523 171.141 259.592 171.087C259.66 171.033 259.739 170.993 259.823 170.97C259.907 170.946 259.994 170.94 260.081 170.95L319.614 178.703C319.787 178.726 319.944 178.817 320.05 178.955C320.157 179.094 320.204 179.269 320.181 179.442C320.159 179.604 320.078 179.752 319.954 179.858C319.831 179.965 319.672 180.023 319.509 180.022Z" fill="#E6E7E8"/>
<path d="M209.092 112.751C208.993 112.753 208.895 112.731 208.805 112.688C208.716 112.644 208.638 112.58 208.578 112.501C208.522 112.435 208.48 112.358 208.455 112.276C208.429 112.193 208.42 112.106 208.429 112.02C208.438 111.934 208.463 111.85 208.505 111.774C208.546 111.698 208.603 111.632 208.67 111.578L217.544 104.392C217.681 104.284 217.855 104.235 218.028 104.254C218.201 104.274 218.359 104.361 218.467 104.497C218.577 104.632 218.628 104.805 218.611 104.978C218.594 105.15 218.509 105.31 218.375 105.42L209.501 112.606C209.385 112.699 209.241 112.75 209.092 112.751Z" fill="#E6E7E8"/>
<path d="M266.028 284.23C265.914 284.232 265.802 284.204 265.702 284.148C265.603 284.093 265.519 284.012 265.461 283.914L231.324 226.16C231.237 226.01 231.214 225.831 231.258 225.663C231.302 225.496 231.411 225.352 231.561 225.264C231.712 225.176 231.892 225.15 232.061 225.191C232.231 225.233 232.378 225.34 232.471 225.488L266.595 283.241C266.64 283.315 266.669 283.398 266.681 283.483C266.694 283.569 266.688 283.656 266.666 283.74C266.644 283.823 266.605 283.902 266.553 283.97C266.5 284.038 266.433 284.095 266.358 284.138C266.26 284.2 266.145 284.232 266.028 284.23Z" fill="#E6E7E8"/>
<path d="M78.6868 287.514C78.5805 287.514 78.4759 287.487 78.3835 287.435C78.2305 287.353 78.1157 287.215 78.0639 287.05C78.0121 286.884 78.0274 286.705 78.1066 286.551L91.9647 260.417C92.0061 260.341 92.0622 260.273 92.1297 260.219C92.1972 260.164 92.2749 260.124 92.3582 260.099C92.4415 260.075 92.5289 260.067 92.6152 260.076C92.7015 260.085 92.7852 260.112 92.8613 260.154C92.9372 260.194 93.0043 260.248 93.0588 260.315C93.1132 260.381 93.1539 260.458 93.1785 260.54C93.203 260.622 93.211 260.708 93.2018 260.794C93.1926 260.879 93.1665 260.962 93.125 261.037L79.2801 287.171C79.22 287.275 79.1335 287.362 79.0293 287.422C78.9252 287.482 78.807 287.514 78.6868 287.514Z" fill="#E6E7E8"/>
<path d="M1.0101 205.221C0.863387 205.222 0.720791 205.173 0.605762 205.082C0.490733 204.991 0.410115 204.863 0.377182 204.72C0.337529 204.55 0.366586 204.372 0.457993 204.224C0.549399 204.076 0.695734 203.97 0.865054 203.929L43.3624 194.264C43.5372 194.225 43.7202 194.258 43.871 194.354C44.0219 194.451 44.1282 194.603 44.1667 194.778C44.2052 194.953 44.1726 195.136 44.0762 195.287C43.9797 195.438 43.8273 195.544 43.6525 195.582L1.15514 205.234L1.0101 205.221Z" fill="#E6E7E8"/>
<path d="M136.282 49.6684C136.138 49.6706 135.999 49.6251 135.884 49.5392C135.769 49.4533 135.687 49.3318 135.649 49.1937L125.614 14.1463C125.57 13.9767 125.593 13.7964 125.679 13.6436C125.765 13.4909 125.908 13.3779 126.076 13.3287C126.158 13.3047 126.244 13.2972 126.33 13.3068C126.415 13.3163 126.497 13.3428 126.572 13.3845C126.647 13.4262 126.713 13.4824 126.766 13.5498C126.818 13.6172 126.857 13.6944 126.88 13.7771L136.954 48.8377C136.978 48.9199 136.986 49.0061 136.976 49.0913C136.966 49.1765 136.94 49.2589 136.898 49.3337C136.857 49.4086 136.8 49.4744 136.733 49.5273C136.666 49.5802 136.588 49.6192 136.506 49.642C136.435 49.6698 136.357 49.6788 136.282 49.6684Z" fill="#E6E7E8"/>
<path d="M181.139 38.3831H180.994C180.909 38.3644 180.828 38.3291 180.757 38.2791C180.686 38.2291 180.625 38.1655 180.579 38.092C180.532 38.0184 180.5 37.9364 180.486 37.8505C180.471 37.7647 180.474 37.6768 180.493 37.592L187.587 6.4343C187.625 6.25945 187.732 6.10704 187.883 6.0106C188.033 5.91417 188.216 5.8816 188.391 5.92007C188.566 5.95853 188.718 6.06488 188.815 6.21572C188.911 6.36656 188.944 6.54954 188.905 6.72439L181.785 37.8689C181.75 38.0142 181.667 38.1437 181.55 38.2368C181.433 38.33 181.289 38.3814 181.139 38.3831Z" fill="#E6E7E8"/>
<path d="M39.8286 140.362H13.6024C13.4275 140.362 13.2599 140.292 13.1362 140.168C13.0126 140.045 12.9431 139.877 12.9431 139.702C12.9431 139.527 13.0126 139.36 13.1362 139.236C13.2599 139.112 13.4275 139.043 13.6024 139.043H39.8286C40.0035 139.043 40.1712 139.112 40.2948 139.236C40.4185 139.36 40.4879 139.527 40.4879 139.702C40.4879 139.877 40.4185 140.045 40.2948 140.168C40.1712 140.292 40.0035 140.362 39.8286 140.362Z" fill="#E6E7E8"/>
</svg>
