<svg width="305" height="265" viewBox="0 0 305 265" fill="none" xmlns="http://www.w3.org/2000/svg">
<path d="M206.926 143.376V17.0039L238.953 41.0997V167.484L206.926 143.376Z" fill="#D1D3D4"/>
<path d="M238.953 168.048C238.827 168.049 238.705 168.009 238.603 167.935L206.588 143.839C206.516 143.788 206.456 143.721 206.415 143.642C206.374 143.564 206.352 143.477 206.35 143.389V17.0171C206.353 16.911 206.385 16.8078 206.442 16.7184C206.5 16.629 206.58 16.5568 206.675 16.5093C206.77 16.4619 206.876 16.441 206.982 16.4489C207.087 16.4568 207.189 16.4932 207.276 16.5542L239.291 40.6625C239.364 40.7129 239.424 40.7801 239.465 40.8586C239.507 40.937 239.528 41.0242 239.529 41.1129V167.472C239.528 167.579 239.497 167.684 239.439 167.775C239.382 167.866 239.3 167.938 239.203 167.985C239.126 168.025 239.04 168.046 238.953 168.048ZM207.501 143.101L238.378 166.334V41.3881L207.501 18.143V143.101Z" fill="#231F20"/>
<path d="M238.954 167.485L276.924 150.158V23.7734L238.954 41.1009V167.485Z" fill="white"/>
<path d="M238.953 168.11C238.787 168.11 238.628 168.045 238.511 167.927C238.394 167.81 238.328 167.651 238.328 167.485V41.1257C238.325 41.0064 238.359 40.8892 238.423 40.7889C238.488 40.6887 238.581 40.6099 238.691 40.5627L276.661 23.2227C276.754 23.1764 276.857 23.1523 276.961 23.1523C277.065 23.1523 277.168 23.1764 277.261 23.2227C277.349 23.2793 277.422 23.357 277.472 23.4488C277.523 23.5406 277.549 23.6435 277.549 23.7482V150.107C277.55 150.226 277.516 150.343 277.451 150.443C277.387 150.543 277.295 150.622 277.186 150.67L239.216 168.048C239.134 168.086 239.044 168.108 238.953 168.11ZM239.579 41.501V166.509L276.298 149.745V24.7491L239.579 41.501Z" fill="#231F20"/>
<path d="M238.953 41.1014L276.924 23.7739L246.447 0.628906L206.926 17.0056L238.953 41.1014Z" fill="white"/>
<path d="M238.953 41.7253C238.818 41.7282 238.685 41.684 238.578 41.6002L206.55 17.5044C206.463 17.4384 206.395 17.3502 206.353 17.249C206.311 17.1478 206.297 17.0373 206.313 16.9289C206.323 16.819 206.364 16.7142 206.43 16.6259C206.496 16.5376 206.586 16.4693 206.688 16.4284L246.21 0.051767C246.309 0.00758433 246.419 -0.00876842 246.527 0.00445247C246.635 0.0176734 246.737 0.0599731 246.823 0.126834L277.299 23.2718C277.385 23.3369 277.453 23.4227 277.497 23.5211C277.54 23.6196 277.559 23.7275 277.549 23.8348C277.539 23.9429 277.499 24.0462 277.436 24.1341C277.372 24.222 277.286 24.2915 277.186 24.3353L239.216 41.6752C239.133 41.7099 239.044 41.727 238.953 41.7253ZM208.177 17.1666L239.029 40.3741L275.71 23.6347L246.36 1.34038L208.177 17.1666Z" fill="#231F20"/>
<path d="M163.375 163.618V98.7871L195.391 122.895V187.714L163.375 163.618Z" fill="#D1D3D4"/>
<path d="M195.391 188.29C195.269 188.29 195.151 188.25 195.053 188.178L163.025 164.082C162.955 164.027 162.898 163.957 162.859 163.877C162.82 163.796 162.8 163.708 162.8 163.619V98.8006C162.798 98.6943 162.827 98.5897 162.882 98.4989C162.937 98.4082 163.017 98.3349 163.113 98.2877C163.203 98.2324 163.307 98.2031 163.413 98.2031C163.519 98.2031 163.623 98.2324 163.713 98.2877L195.741 122.383C195.811 122.439 195.868 122.509 195.907 122.589C195.946 122.669 195.966 122.757 195.966 122.846V187.665C195.966 187.771 195.937 187.875 195.882 187.965C195.827 188.056 195.748 188.129 195.653 188.178C195.575 188.234 195.485 188.272 195.391 188.29ZM163.938 163.269L194.803 186.576V123.172L163.913 99.9391L163.938 163.269Z" fill="#231F20"/>
<path d="M195.391 187.712L233.361 170.385V105.566L195.391 122.894V187.712Z" fill="white"/>
<path d="M195.391 188.34C195.271 188.344 195.152 188.309 195.053 188.24C194.965 188.183 194.893 188.106 194.843 188.014C194.792 187.922 194.766 187.819 194.766 187.715V122.896C194.766 122.776 194.8 122.658 194.864 122.556C194.928 122.454 195.02 122.372 195.128 122.321L233.111 104.993C233.204 104.944 233.307 104.918 233.412 104.918C233.516 104.918 233.619 104.944 233.712 104.993C233.799 105.054 233.87 105.134 233.92 105.228C233.97 105.321 233.997 105.425 234 105.531V170.35C233.998 170.471 233.962 170.59 233.896 170.692C233.829 170.794 233.735 170.875 233.624 170.925L195.654 188.29C195.571 188.325 195.481 188.342 195.391 188.34ZM196.017 123.284V186.739L232.748 169.974V106.532L196.017 123.284Z" fill="#231F20"/>
<path d="M195.391 122.894L233.361 105.567L202.897 82.4219L163.375 98.786L195.391 122.894Z" fill="white"/>
<path d="M195.391 123.52C195.256 123.515 195.126 123.471 195.015 123.395L163 99.2867C162.909 99.2232 162.838 99.1358 162.794 99.0342C162.75 98.9327 162.735 98.8209 162.75 98.7112C162.763 98.6022 162.805 98.4985 162.871 98.4107C162.936 98.3229 163.024 98.2539 163.125 98.2108L202.647 81.8341C202.75 81.7919 202.862 81.7778 202.972 81.7932C203.082 81.8085 203.185 81.8529 203.273 81.9217L233.749 105.067C233.834 105.133 233.9 105.22 233.942 105.319C233.984 105.418 233.999 105.527 233.986 105.634C233.974 105.741 233.934 105.843 233.87 105.929C233.807 106.016 233.722 106.086 233.624 106.13L195.653 123.458C195.571 123.496 195.482 123.517 195.391 123.52ZM164.627 98.9489L195.478 122.169L232.16 105.43L202.797 83.1352L164.627 98.9489Z" fill="#231F20"/>
<path d="M119.812 183.861V80.8848L151.84 104.981V207.957L119.812 183.861Z" fill="#D1D3D4"/>
<path d="M151.84 208.531C151.713 208.527 151.591 208.483 151.49 208.406L119.475 184.31C119.402 184.26 119.342 184.192 119.301 184.114C119.26 184.035 119.238 183.948 119.237 183.86V80.883C119.238 80.7772 119.268 80.6736 119.323 80.5835C119.379 80.4935 119.458 80.4206 119.553 80.3727C119.647 80.3249 119.753 80.304 119.858 80.3123C119.964 80.3207 120.065 80.358 120.151 80.4201L152.178 104.516C152.25 104.57 152.308 104.64 152.347 104.72C152.386 104.801 152.405 104.889 152.403 104.979V207.955C152.404 208.106 152.345 208.25 152.239 208.358C152.134 208.466 151.991 208.528 151.84 208.531ZM120.388 183.509L151.265 206.804V105.267L120.388 82.0715V183.509Z" fill="#231F20"/>
<path d="M151.841 207.958L189.811 190.631V87.6543L151.841 104.982V207.958Z" fill="white"/>
<path d="M151.841 208.582C151.721 208.581 151.603 208.547 151.503 208.481C151.413 208.427 151.339 208.349 151.289 208.257C151.238 208.165 151.213 208.061 151.215 207.956V104.98C151.213 104.859 151.247 104.74 151.311 104.638C151.376 104.536 151.468 104.455 151.578 104.404L189.548 87.0765C189.639 87.0238 189.743 86.9961 189.848 86.9961C189.954 86.9961 190.057 87.0238 190.149 87.0765C190.237 87.1331 190.309 87.2108 190.359 87.3026C190.41 87.3944 190.436 87.4973 190.436 87.602V190.579C190.437 190.697 190.403 190.814 190.339 190.914C190.274 191.014 190.182 191.093 190.074 191.141L152.103 208.469C152.025 208.525 151.935 208.563 151.841 208.582ZM152.466 105.38V206.98L189.185 190.228V88.6154L152.466 105.38Z" fill="#231F20"/>
<path d="M151.84 104.979L189.811 87.6517L159.334 64.4941L119.812 80.8833L151.84 104.979Z" fill="white"/>
<path d="M151.84 105.605C151.705 105.604 151.574 105.56 151.465 105.479L119.437 81.3711C119.349 81.3057 119.279 81.2181 119.235 81.117C119.191 81.0159 119.175 80.9051 119.187 80.7956C119.203 80.6857 119.247 80.5817 119.315 80.4939C119.383 80.4061 119.472 80.3376 119.575 80.2952L159.097 63.9185C159.198 63.8774 159.307 63.8638 159.415 63.8792C159.523 63.8946 159.625 63.9384 159.71 64.0061L190.186 87.1511C190.273 87.2154 190.341 87.301 190.385 87.3997C190.429 87.4983 190.447 87.6066 190.436 87.7141C190.426 87.8222 190.386 87.9254 190.323 88.0134C190.259 88.1013 190.173 88.1707 190.074 88.2145L152.103 105.542C152.021 105.58 151.931 105.602 151.84 105.605ZM121.064 81.0333L151.916 104.253L188.547 87.5139L159.197 65.2196L121.064 81.0333Z" fill="#231F20"/>
<path d="M76.2627 204.089V140.271L108.278 164.367V228.185L76.2627 204.089Z" fill="#D1D3D4"/>
<path d="M108.278 228.761C108.156 228.762 108.037 228.723 107.94 228.649L75.9498 204.553C75.8796 204.498 75.8229 204.428 75.7838 204.348C75.7448 204.267 75.7246 204.179 75.7246 204.09V140.285C75.7258 140.179 75.7555 140.076 75.8105 139.986C75.8656 139.895 75.9439 139.822 76.0374 139.772C76.1278 139.717 76.2317 139.688 76.3376 139.688C76.4436 139.688 76.5475 139.717 76.6379 139.772L108.666 163.868C108.734 163.922 108.79 163.99 108.829 164.068C108.868 164.146 108.889 164.231 108.891 164.318V228.123C108.89 228.228 108.86 228.33 108.805 228.418C108.75 228.506 108.671 228.578 108.578 228.624C108.496 228.702 108.39 228.75 108.278 228.761ZM76.8255 203.815L107.702 227.047V164.644L76.8255 141.423V203.815Z" fill="#231F20"/>
<path d="M108.278 228.188L146.249 210.861V147.043L108.278 164.37V228.188Z" fill="white"/>
<path d="M108.278 228.826C108.158 228.823 108.042 228.789 107.94 228.725C107.854 228.667 107.782 228.589 107.732 228.498C107.682 228.406 107.655 228.304 107.652 228.2V164.395C107.655 164.277 107.69 164.161 107.754 164.062C107.818 163.963 107.908 163.883 108.015 163.832L146.011 146.479C146.101 146.43 146.202 146.404 146.305 146.404C146.407 146.404 146.508 146.43 146.599 146.479C146.688 146.534 146.762 146.611 146.813 146.704C146.863 146.796 146.888 146.9 146.886 147.005V210.81C146.888 210.931 146.854 211.049 146.79 211.151C146.726 211.254 146.633 211.335 146.523 211.386L108.553 228.713C108.471 228.771 108.377 228.809 108.278 228.826ZM108.903 164.783V227.199L145.623 210.435V148.018L108.903 164.783Z" fill="#231F20"/>
<path d="M108.278 164.369L146.248 147.041L115.772 123.896L76.2627 140.273L108.278 164.369Z" fill="white"/>
<path d="M108.278 164.995C108.142 164.996 108.01 164.952 107.902 164.87L75.8745 140.774C75.7868 140.707 75.7183 140.619 75.6757 140.517C75.6331 140.416 75.618 140.305 75.632 140.196C75.646 140.087 75.6885 139.983 75.7552 139.896C75.8219 139.808 75.9106 139.74 76.0121 139.698L115.534 123.359C115.636 123.318 115.747 123.304 115.856 123.317C115.965 123.33 116.069 123.37 116.159 123.434L146.636 146.591C146.722 146.655 146.79 146.741 146.831 146.84C146.873 146.939 146.888 147.048 146.873 147.154C146.859 147.261 146.819 147.363 146.755 147.45C146.692 147.538 146.608 147.608 146.511 147.655L108.54 164.982C108.454 165.004 108.365 165.008 108.278 164.995ZM77.5134 140.436L108.365 163.656L145.047 146.917L115.684 124.61L77.5134 140.436Z" fill="#231F20"/>
<path d="M32.7002 224.334V182.898L64.7279 206.994V248.43L32.7002 224.334Z" fill="#D1D3D4"/>
<path d="M64.6906 249.004C64.5648 249.005 64.442 248.965 64.3403 248.891L32.3251 224.795C32.2526 224.742 32.1935 224.672 32.1523 224.592C32.111 224.511 32.0888 224.423 32.0874 224.332V182.897C32.0884 182.789 32.1194 182.684 32.1769 182.594C32.2343 182.503 32.316 182.43 32.4127 182.384C32.5012 182.329 32.6029 182.301 32.7067 182.301C32.8104 182.301 32.9122 182.329 33.0007 182.384L65.0284 206.479C65.099 206.531 65.1563 206.599 65.1955 206.677C65.2347 206.756 65.2546 206.842 65.2536 206.93V248.466C65.2567 248.572 65.2289 248.678 65.1733 248.769C65.1178 248.86 65.037 248.933 64.9408 248.979C64.8602 249.005 64.7748 249.014 64.6906 249.004ZM33.2384 223.982L64.1151 247.227V207.193L33.2384 183.96V223.982Z" fill="#231F20"/>
<path d="M64.7275 248.429L102.698 231.102V189.666L64.7275 206.993V248.429Z" fill="white"/>
<path d="M64.6901 249.055C64.5703 249.054 64.453 249.02 64.3523 248.955C64.2626 248.9 64.1888 248.822 64.1383 248.73C64.0878 248.638 64.0624 248.534 64.0646 248.429V206.993C64.0639 206.874 64.0979 206.758 64.1623 206.658C64.2267 206.558 64.3188 206.479 64.4274 206.43L102.398 189.103C102.493 189.059 102.597 189.039 102.702 189.046C102.806 189.053 102.907 189.086 102.995 189.142C103.084 189.198 103.157 189.275 103.207 189.367C103.258 189.458 103.285 189.561 103.286 189.666V231.102C103.285 231.222 103.25 231.339 103.186 231.441C103.122 231.542 103.031 231.624 102.923 231.677L64.9403 249.005C64.8619 249.04 64.7763 249.057 64.6901 249.055ZM65.3157 207.406V247.441L102.035 230.689V190.654L65.3157 207.406Z" fill="#231F20"/>
<path d="M64.7279 206.992L102.698 189.665L72.2219 166.52L32.7002 182.896L64.7279 206.992Z" fill="white"/>
<path d="M64.6902 207.619C64.5541 207.625 64.4207 207.58 64.3149 207.494L32.3247 183.411C32.2334 183.347 32.1613 183.259 32.1162 183.157C32.0711 183.055 32.0548 182.942 32.0689 182.832C32.0831 182.721 32.1272 182.616 32.1965 182.529C32.2659 182.441 32.3578 182.374 32.4623 182.335L71.984 165.896C72.0842 165.856 72.193 165.841 72.3002 165.854C72.4074 165.867 72.5096 165.908 72.597 165.971L103.073 189.116C103.161 189.182 103.23 189.27 103.274 189.371C103.318 189.472 103.335 189.582 103.324 189.691C103.309 189.798 103.269 189.9 103.205 189.988C103.142 190.075 103.058 190.145 102.961 190.192L64.9779 207.519C64.8931 207.579 64.7935 207.613 64.6902 207.619ZM33.9136 183.061L64.7653 206.281L101.447 189.541L72.0841 167.235L33.9136 183.061Z" fill="#231F20"/>
<path d="M73.6481 47.0429C71.7461 47.1793 69.8353 47.129 67.9431 46.8928C66.9115 46.8464 65.8994 46.5955 64.9656 46.1547C64.4992 45.9333 64.0956 45.5987 63.7919 45.1813C63.4881 44.7638 63.2937 44.277 63.2266 43.7651C63.1809 43.2536 63.3373 42.7446 63.6624 42.3471C63.9874 41.9495 64.4552 41.6951 64.9656 41.6383C63.5169 40.8288 62.125 39.9218 60.7995 38.9234C59.6843 38.1621 58.7526 37.1621 58.0721 35.9959C57.7563 35.4149 57.6035 34.7593 57.6299 34.0986C57.6563 33.4378 57.861 32.7965 58.2222 32.2427C59.4733 30.5662 62.1131 30.8915 64.0147 29.9782L60.0363 27.3885C59.7663 27.2301 59.5252 27.027 59.3232 26.7879C59.1209 26.484 59.013 26.1271 59.013 25.762C59.013 25.397 59.1209 25.0401 59.3232 24.7362C59.7288 24.1197 60.2841 23.6161 60.9371 23.2724C63.9448 21.4789 67.4969 20.8262 70.9457 21.4333L69.2317 19.1563C69.0332 18.9354 68.9028 18.6616 68.8564 18.3682C68.8564 17.7051 69.582 17.2922 70.2451 17.2422C71.5155 17.2788 72.7676 17.5547 73.9358 18.0554C75.9876 18.6684 78.1394 18.8311 80.1912 19.3065C83.5441 20.0947 87.5476 22.9721 87.8478 26.813C87.9028 27.4509 87.7481 28.0893 87.4072 28.6313C87.0662 29.1732 86.5576 29.5891 85.9587 29.8156C85.9587 33.8315 84.4949 36.8842 82.4557 40.187C81.1361 42.4835 79.3453 44.4747 77.2011 46.0296C76.1047 46.6221 74.8921 46.9679 73.6481 47.0429Z" fill="white"/>
<path d="M71.8212 47.7434C70.4575 47.7434 69.1063 47.6183 67.8803 47.5057C66.7666 47.4505 65.6745 47.1785 64.665 46.705C64.1074 46.43 63.6269 46.0208 63.2666 45.5142C62.9063 45.0076 62.6775 44.4194 62.6007 43.8025C62.5797 43.4343 62.632 43.0656 62.7544 42.7177C62.8768 42.3698 63.0669 42.0496 63.3138 41.7757L63.5641 41.538C62.4881 40.8874 61.4247 40.1618 60.4238 39.4112C59.229 38.6001 58.2361 37.5258 57.5213 36.2709C57.1333 35.5779 56.9464 34.7903 56.9818 33.9967C57.0171 33.2032 57.2733 32.4354 57.7215 31.7796C58.73 30.7232 60.0936 30.077 61.5498 29.9655L62.6007 29.7278L59.6857 27.8387C59.3536 27.6447 59.0574 27.395 58.8099 27.1005C58.5409 26.692 58.3975 26.2135 58.3975 25.7243C58.3975 25.2351 58.5409 24.7567 58.8099 24.3481C59.2729 23.6487 59.9 23.0732 60.6365 22.6717C63.3457 21.0575 66.4872 20.3191 69.6318 20.5574L68.8061 19.4689C68.5299 19.1524 68.3555 18.7601 68.3056 18.343C68.2306 17.292 69.269 16.6415 70.2699 16.5539C71.3671 16.5352 72.4567 16.7395 73.4726 17.1544L74.1982 17.3921C75.3736 17.719 76.5687 17.9697 77.7763 18.1428C78.6396 18.2929 79.5529 18.443 80.4411 18.6557C84.1944 19.519 88.2479 22.6342 88.5607 26.6626C88.6289 27.392 88.4771 28.125 88.1247 28.7673C87.7724 29.4095 87.2357 29.9314 86.5839 30.2658C86.5839 34.4068 84.7824 37.5971 82.9933 40.5121C82.3553 41.5505 80.0783 45.0535 77.5261 46.5674C76.3713 47.2043 75.0892 47.5761 73.7729 47.6558C73.0848 47.7183 72.4592 47.7434 71.8212 47.7434ZM68.4433 21.7709C65.9106 21.7664 63.4243 22.4496 61.2495 23.7476C60.6939 24.0484 60.2178 24.4773 59.8608 24.9987C59.7289 25.2016 59.6587 25.4385 59.6587 25.6805C59.6587 25.9226 59.7289 26.1594 59.8608 26.3624C60.0296 26.5399 60.2235 26.6916 60.4363 26.8128L64.4023 29.4025C64.4951 29.4661 64.5703 29.5523 64.6206 29.653C64.671 29.7537 64.6949 29.8655 64.69 29.978C64.6842 30.0891 64.6471 30.1962 64.5829 30.287C64.5187 30.3778 64.43 30.4485 64.3272 30.4909C63.5249 30.8311 62.6849 31.0747 61.825 31.2166C60.6697 31.2958 59.5776 31.7734 58.7349 32.5677C58.4381 33.0395 58.2744 33.5828 58.2612 34.14C58.248 34.6972 58.3857 35.2477 58.6598 35.733C59.2812 36.8096 60.1362 37.7331 61.162 38.4353C62.4644 39.4142 63.8312 40.3045 65.253 41.1001C65.3731 41.165 65.4686 41.2674 65.5251 41.3916C65.5815 41.5158 65.5958 41.6551 65.5658 41.7882C65.5311 41.9231 65.454 42.0433 65.3459 42.1312C65.2378 42.219 65.1044 42.2698 64.9653 42.2761C64.8242 42.2839 64.686 42.32 64.5592 42.3823C64.4324 42.4447 64.3194 42.532 64.2271 42.639C63.9628 42.9434 63.8242 43.337 63.8393 43.7399C63.902 44.1433 64.0625 44.5252 64.3068 44.8523C64.551 45.1794 64.8716 45.4418 65.2405 45.6165C66.0994 46.0209 67.0316 46.2465 67.9804 46.2796C69.8393 46.5125 71.7165 46.5628 73.5852 46.4297C74.7193 46.367 75.8256 46.0552 76.8255 45.5164C78.8647 44.0057 80.5686 42.0888 81.8298 39.8866C84.0317 36.296 85.2953 33.5061 85.2328 29.8779C85.2321 29.7354 85.2801 29.597 85.3689 29.4856C85.4576 29.3741 85.5817 29.2962 85.7207 29.2649C86.2188 29.0816 86.6392 28.7335 86.9123 28.2784C87.1853 27.8233 87.2946 27.2885 87.222 26.7627C86.9593 23.4474 83.3687 20.6575 80.0533 19.8693C79.2026 19.6691 78.3143 19.519 77.4636 19.3813C76.1969 19.1935 74.9434 18.926 73.7103 18.5807L72.9472 18.343C72.0918 17.9836 71.1726 17.8006 70.2448 17.805C69.832 17.805 69.4191 18.0677 69.4316 18.2679C69.4441 18.4681 69.5818 18.5681 69.6818 18.7058L71.3958 20.9952C71.4691 21.0973 71.5086 21.2199 71.5086 21.3455C71.5086 21.4712 71.4691 21.5938 71.3958 21.6958C71.3282 21.803 71.2302 21.8876 71.1144 21.9388C70.9985 21.99 70.87 22.0056 70.7453 21.9836C69.9857 21.8449 69.2154 21.7737 68.4433 21.7709Z" fill="#231F20"/>
<path d="M88.0229 35.2832C88.0229 35.2832 91.6636 39.3242 91.1882 40.3501C90.7128 41.376 88.586 41.0632 88.586 41.0632" fill="white"/>
<path d="M89.2867 41.7372C89.0186 41.7365 88.7509 41.7156 88.486 41.6747C88.3241 41.6499 88.1784 41.5627 88.0802 41.4317C87.982 41.3007 87.939 41.1364 87.9605 40.9741C87.9883 40.8103 88.0776 40.6634 88.2101 40.5634C88.3427 40.4633 88.5086 40.4178 88.6736 40.4361C89.3617 40.5362 90.4502 40.4361 90.6253 40.0858C89.8736 38.451 88.8356 36.9638 87.5602 35.6945C87.5003 35.6384 87.4526 35.5705 87.42 35.4952C87.3874 35.4199 87.3706 35.3387 87.3706 35.2566C87.3706 35.1746 87.3874 35.0934 87.42 35.0181C87.4526 34.9428 87.5003 34.8749 87.5602 34.8188C87.6172 34.7605 87.6854 34.7142 87.7606 34.6826C87.8357 34.651 87.9165 34.6348 87.9981 34.6348C88.0796 34.6348 88.1603 34.651 88.2355 34.6826C88.3107 34.7142 88.3788 34.7605 88.4359 34.8188C90.225 36.808 92.1892 39.4227 91.7138 40.5737C91.4537 40.9705 91.0901 41.2886 90.6623 41.4937C90.2346 41.6987 89.7589 41.783 89.2867 41.7372Z" fill="#231F20"/>
<path d="M86.4963 29.4404C88.6231 30.6915 88.5606 34.0444 88.8609 36.1587C89.2862 39.1446 89.6407 42.143 89.9243 45.154C90.1119 47.0556 85.2202 47.8313 84.2694 47.3934L86.1585 54.7498L75.2741 52.3477L74.7737 46.0923C75.8998 45.8241 76.9306 45.2518 77.7536 44.4377C78.5765 43.6235 79.1599 42.599 79.4402 41.4758C80.7789 37.3347 79.2526 28.965 79.2526 28.965C79.2526 28.965 84.432 28.2018 86.4963 29.4404Z" fill="white"/>
<path d="M86.1589 55.3748H86.0213L75.1369 52.9728C75.0068 52.9419 74.8897 52.8709 74.8022 52.7699C74.7146 52.6689 74.661 52.5429 74.6489 52.4098L74.1485 46.1544C74.1375 45.9963 74.1869 45.8399 74.2868 45.7168C74.3866 45.5937 74.5295 45.5131 74.6865 45.4913C75.6961 45.2371 76.6175 44.7127 77.3515 43.9742C78.0855 43.2358 78.6044 42.3114 78.8526 41.3002C80.1036 37.3593 78.6524 29.2147 78.6399 29.1271C78.6155 28.9618 78.651 28.7932 78.74 28.6517C78.7888 28.5848 78.8504 28.5282 78.9213 28.4852C78.9921 28.4422 79.0709 28.4138 79.1528 28.4015C79.7158 28.3139 84.62 27.5883 86.8219 28.902C88.8487 30.153 89.1364 32.7803 89.3241 34.9322C89.3241 35.345 89.4117 35.7204 89.4617 36.0707C89.8746 39.0607 90.2374 42.0884 90.5251 45.091C90.5475 45.4574 90.4668 45.8227 90.2921 46.1455C90.1174 46.4684 89.8558 46.7358 89.5368 46.9175C88.1931 47.7308 86.6536 48.1633 85.0829 48.1686L86.7594 54.5491C86.7847 54.6409 86.7882 54.7373 86.7698 54.8307C86.7513 54.9241 86.7113 55.0119 86.6531 55.0871C86.5948 55.1624 86.5198 55.223 86.434 55.2643C86.3483 55.3056 86.2541 55.3263 86.1589 55.3248V55.3748ZM75.8625 51.8343L85.2956 53.9236L83.6692 47.5556C83.6372 47.4413 83.6391 47.3201 83.6746 47.2069C83.7102 47.0936 83.7778 46.9931 83.8694 46.9175C83.961 46.843 84.0715 46.7954 84.1885 46.7799C84.3056 46.7644 84.4247 46.7818 84.5325 46.83C86.0338 46.9742 87.5427 46.6461 88.8487 45.8916C89.174 45.6539 89.3241 45.4287 89.3116 45.2161C89.0238 42.226 88.661 39.2109 88.2482 36.2583C88.2482 35.883 88.1481 35.4826 88.1106 35.0698C87.9104 33.1932 87.6727 30.8662 86.1839 29.9779C84.6951 29.0896 81.68 29.3523 79.9285 29.5525C80.2663 31.6168 81.1796 38.0724 79.991 41.688C79.6845 42.8188 79.1041 43.8568 78.3011 44.7099C77.4981 45.5631 76.4973 46.2053 75.3871 46.5797L75.8625 51.8343Z" fill="#231F20"/>
<path d="M89.5242 42.9379C89.2606 43.1686 88.9514 43.3414 88.6167 43.4451C88.2821 43.5488 87.9294 43.581 87.5815 43.5398C87.2336 43.4985 86.8982 43.3846 86.5971 43.2055C86.296 43.0264 86.0358 42.786 85.8335 42.5" fill="white"/>
<path d="M87.748 44.2398H87.4102C86.9868 44.1785 86.5818 44.0259 86.2232 43.7926C85.8646 43.5593 85.561 43.2509 85.3334 42.8887C85.2831 42.8228 85.2467 42.7475 85.2263 42.6672C85.206 42.5868 85.2021 42.5032 85.215 42.4214C85.2278 42.3395 85.2572 42.2611 85.3012 42.1909C85.3452 42.1207 85.403 42.0602 85.471 42.0129C85.5383 41.9649 85.6143 41.9307 85.6949 41.9123C85.7754 41.8938 85.8588 41.8915 85.9402 41.9055C86.0216 41.9194 86.0995 41.9494 86.1692 41.9936C86.239 42.0378 86.2994 42.0954 86.3468 42.163C86.4837 42.3837 86.6662 42.5726 86.8819 42.7171C87.0976 42.8616 87.3417 42.9585 87.5979 43.0013C88.1621 43.0115 88.7132 42.8308 89.1617 42.4883C89.2897 42.4033 89.4445 42.3683 89.5966 42.3901C89.7487 42.4119 89.8874 42.4889 89.9864 42.6064C90.0854 42.7239 90.1376 42.8738 90.1332 43.0273C90.1288 43.1809 90.068 43.3275 89.9624 43.4392C89.3293 43.9367 88.5529 44.2174 87.748 44.2398Z" fill="#231F20"/>
<path d="M82.5931 38.0484C82.3935 37.3127 81.9953 36.6461 81.4421 36.1217C81.0886 35.6457 80.667 35.2241 80.191 34.8706C79.9446 34.7086 79.6659 34.6022 79.3742 34.559C79.0824 34.5158 78.7848 34.5367 78.502 34.6204C78.2626 34.7205 78.0473 34.8705 77.8705 35.0603C77.6936 35.2502 77.5591 35.4755 77.4761 35.7214C77.3078 36.2158 77.2564 36.7425 77.326 37.2602C77.4382 38.3844 77.844 39.4594 78.5028 40.3772C79.1615 41.2951 80.0501 42.0236 81.0793 42.4897L80.8916 42.3396" fill="white"/>
<path d="M81.0417 43.1771C80.9803 43.1941 80.9154 43.1941 80.854 43.1771C79.711 42.6727 78.7222 41.8743 77.9882 40.8634C77.2542 39.8525 76.8012 38.6651 76.6754 37.4221C76.603 36.8151 76.6671 36.1996 76.863 35.6205C76.9801 35.29 77.1654 34.9878 77.4068 34.7335C77.6481 34.4792 77.9403 34.2784 78.2643 34.1443C78.6344 34.0256 79.0264 33.991 79.4116 34.043C79.7968 34.0949 80.1656 34.2321 80.4912 34.4445C81.0244 34.7906 81.5048 35.212 81.9174 35.6956C82.5297 36.3149 82.9622 37.089 83.1685 37.935C83.195 38.1009 83.1546 38.2706 83.056 38.4067C82.9575 38.5428 82.8089 38.6341 82.643 38.6607C82.4771 38.6872 82.3075 38.6468 82.1714 38.5482C82.0353 38.4497 81.944 38.3011 81.9174 38.1352C81.7422 37.5262 81.41 36.974 80.9541 36.5338C80.6251 36.1289 80.242 35.771 79.8156 35.4704C79.6524 35.3549 79.4657 35.277 79.2688 35.2424C79.072 35.2078 78.8699 35.2173 78.6771 35.2702C78.519 35.3368 78.3776 35.4375 78.2629 35.5651C78.1483 35.6927 78.0633 35.8441 78.014 36.0084C77.8806 36.4112 77.842 36.8393 77.9014 37.2595C78.0019 38.2078 78.3326 39.1173 78.8646 39.9087C79.3966 40.7002 80.1139 41.3497 80.9541 41.8009C81.0726 41.7977 81.1882 41.8377 81.2794 41.9135C81.4085 42.0168 81.5012 42.1588 81.544 42.3186C81.5868 42.4784 81.5773 42.6477 81.5171 42.8018C81.4751 42.8988 81.4097 42.9839 81.3267 43.0494C81.2437 43.1149 81.1458 43.1588 81.0417 43.1771Z" fill="#231F20"/>
<path d="M86.054 34.1352C86.2841 34.0879 86.3736 33.5776 86.2538 32.9956C86.134 32.4136 85.8503 31.9802 85.6202 32.0275C85.3901 32.0749 85.3007 32.5851 85.4205 33.1671C85.5403 33.7491 85.8239 34.1826 86.054 34.1352Z" fill="#231F20"/>
<path d="M73.4478 54.5482L73.8356 51.1202L87.1096 49.8691L89.2864 54.5482C84.1336 56.184 78.6006 56.184 73.4478 54.5482Z" fill="white"/>
<path d="M81.5675 56.3514C78.7597 56.3511 75.9679 55.9294 73.2853 55.1003C73.1458 55.0552 73.0261 54.9634 72.9464 54.8403C72.8666 54.7173 72.8317 54.5705 72.8474 54.4248L73.2353 51.0093C73.2491 50.8647 73.3129 50.7294 73.4156 50.6267C73.5184 50.524 73.6536 50.4602 73.7983 50.4463L87.0722 49.1952C87.201 49.1853 87.3297 49.2147 87.4414 49.2795C87.553 49.3443 87.6425 49.4414 87.6978 49.5581L89.8621 54.2246C89.8959 54.3037 89.9133 54.3888 89.9133 54.4748C89.9133 54.5608 89.8959 54.6459 89.8621 54.725C89.8293 54.8054 89.7801 54.8781 89.7176 54.9384C89.6551 54.9987 89.5808 55.0453 89.4993 55.0753C86.9459 55.9436 84.2644 56.3751 81.5675 56.3514ZM74.1486 54.0494C78.8061 55.3979 83.7452 55.4369 88.4234 54.162L86.747 50.5339L74.4238 51.6474L74.1486 54.0494Z" fill="#231F20"/>
<path d="M124.192 66.6095C124.192 66.6095 127.432 60.7919 127.595 59.666C127.757 58.54 127.457 56.3381 128.07 54.6616C128.683 52.9852 130.66 51.3588 131.924 53.4106C131.924 53.4106 132.011 49.82 134.613 51.4714C135.751 52.1293 136.661 53.1195 137.22 54.3092C137.779 55.4989 137.961 56.8312 137.741 58.1271C137.466 60.892 129.359 75.7549 129.359 75.7549" fill="white"/>
<path d="M129.359 76.3565C129.254 76.3555 129.151 76.3298 129.058 76.2814C128.914 76.1997 128.808 76.0653 128.761 75.9066C128.715 75.7479 128.731 75.5772 128.808 75.4307C131.048 71.3271 136.903 60.205 137.115 58.0406C137.323 56.86 137.162 55.6439 136.654 54.5581C136.146 53.4723 135.315 52.5696 134.275 51.9729C134 51.7977 133.487 51.5225 133.187 51.6851C132.887 51.8478 132.561 52.8361 132.549 53.4116C132.543 53.5444 132.496 53.672 132.413 53.7759C132.33 53.8798 132.216 53.9546 132.088 53.9895C131.96 54.0243 131.824 54.0174 131.699 53.9698C131.575 53.9221 131.47 53.8362 131.398 53.7244C130.96 53.0363 130.56 53.0863 130.434 53.0989C130.015 53.2333 129.634 53.4674 129.325 53.7812C129.015 54.0949 128.787 54.479 128.658 54.9004C128.347 55.9808 128.22 57.1058 128.283 58.2283C128.291 58.7378 128.27 59.2474 128.22 59.7546C128.045 60.9306 125.28 65.935 124.73 66.9233C124.692 66.9996 124.639 67.0674 124.574 67.1225C124.51 67.1777 124.435 67.2192 124.353 67.2443C124.272 67.2694 124.187 67.2777 124.102 67.2686C124.017 67.2596 123.936 67.2334 123.862 67.1917C123.787 67.15 123.723 67.0936 123.671 67.0259C123.62 66.9583 123.582 66.8809 123.562 66.7984C123.541 66.7159 123.537 66.6301 123.551 66.5462C123.565 66.4622 123.595 66.382 123.641 66.3103C124.919 64.1435 126.036 61.8854 126.981 59.5544C126.981 59.2166 126.981 58.7287 126.981 58.2033C126.914 56.9356 127.066 55.6658 127.432 54.45C127.638 53.8108 128.005 53.2354 128.498 52.7795C128.991 52.3237 129.593 52.0027 130.247 51.8478C130.68 51.7916 131.12 51.8795 131.498 52.098C131.568 51.7851 131.699 51.4892 131.883 51.2272C132.068 50.9652 132.303 50.7424 132.574 50.5717C132.961 50.4049 133.386 50.3482 133.804 50.4078C134.221 50.4674 134.614 50.641 134.938 50.9095C136.174 51.6289 137.161 52.7072 137.769 54.0011C138.376 55.2949 138.576 56.7431 138.341 58.1532C138.066 60.9682 130.735 74.4173 129.897 76.0187C129.844 76.1171 129.767 76.2 129.673 76.2593C129.578 76.3185 129.47 76.352 129.359 76.3565Z" fill="#231F20"/>
<path d="M38.5302 92.781C38.5302 92.781 37.742 95.5209 37.4042 97.5351C37.2348 99.4054 37.2642 101.288 37.4918 103.152C36.9163 102.677 36.1406 102.665 35.5526 102.252C35.6304 103.056 35.5755 103.867 35.3899 104.654C35.2923 105.045 35.098 105.406 34.8248 105.704C34.5516 106.001 34.2082 106.225 33.8261 106.355C33.4133 106.439 32.9878 106.439 32.575 106.355C31.0362 106.143 28.484 105.692 27.8709 103.991C27.6709 103.326 27.6709 102.616 27.8709 101.951C28.5215 99.1865 32.2998 91.605 32.8753 90.3789" fill="white"/>
<path d="M33.2381 107.095C32.9783 107.093 32.7191 107.072 32.4624 107.032C31.1363 106.844 28.0336 106.394 27.2579 104.255C27.0198 103.472 27.0198 102.636 27.2579 101.853C27.996 98.7624 32.3373 90.23 32.3748 90.1424C32.452 89.9973 32.5832 89.8883 32.7401 89.8392C32.8969 89.79 33.0668 89.8046 33.213 89.8797C33.2872 89.9155 33.3533 89.9659 33.4076 90.0279C33.4618 90.0899 33.503 90.1621 33.5287 90.2404C33.5543 90.3186 33.564 90.4012 33.5571 90.4833C33.5501 90.5653 33.5267 90.6451 33.4883 90.7179C32.3748 92.8948 29.0595 99.6632 28.484 102.153C28.3295 102.701 28.3295 103.281 28.484 103.829C28.9969 105.268 31.6742 105.643 32.6876 105.793C33.0224 105.856 33.3661 105.856 33.701 105.793C33.9781 105.693 34.2266 105.527 34.425 105.309C34.6233 105.091 34.7656 104.828 34.8395 104.542C35.0059 103.825 35.0524 103.085 34.9771 102.353C34.9706 102.236 34.9978 102.12 35.0555 102.018C35.1131 101.916 35.1988 101.832 35.3024 101.777C35.4023 101.717 35.517 101.685 35.6339 101.685C35.7508 101.685 35.8655 101.717 35.9654 101.777C36.1931 101.921 36.4423 102.026 36.7036 102.09H36.8162C36.6475 100.543 36.6475 98.983 36.8162 97.4362C37.154 95.4095 37.9296 92.7322 37.9546 92.6196C38.0013 92.4599 38.1085 92.3247 38.2534 92.2429C38.3983 92.1611 38.5695 92.1391 38.7303 92.1817C38.8896 92.2281 39.0239 92.336 39.1037 92.4814C39.1834 92.6269 39.2021 92.7981 39.1557 92.9574C39.1557 92.9574 38.38 95.6847 38.0547 97.6364C37.8871 99.4483 37.9165 101.273 38.1423 103.079C38.1571 103.203 38.1339 103.33 38.0759 103.441C38.0178 103.553 37.9276 103.644 37.8169 103.703C37.7062 103.763 37.5801 103.787 37.4552 103.774C37.3303 103.761 37.2122 103.71 37.1164 103.629C36.8622 103.451 36.5784 103.32 36.2782 103.241C36.2815 103.782 36.2099 104.321 36.0655 104.843C35.9443 105.479 35.6013 106.053 35.0973 106.46C34.5934 106.868 33.9612 107.084 33.3131 107.07L33.2381 107.095Z" fill="#231F20"/>
<path d="M112.231 145.365C112.231 145.365 111.743 153.009 114.958 153.872C118.174 154.736 133.199 140.698 131.861 137.946C130.522 135.194 124.992 134.668 120.376 138.859C117.818 141.217 115.096 143.391 112.231 145.365Z" fill="white"/>
<path d="M115.222 154.547C115.074 154.546 114.927 154.525 114.784 154.485C111.168 153.522 111.531 146.153 111.594 145.327C111.597 145.226 111.625 145.128 111.675 145.041C111.725 144.953 111.796 144.88 111.881 144.826C114.712 142.862 117.404 140.705 119.938 138.371C121.109 137.202 122.532 136.317 124.098 135.784C125.663 135.251 127.331 135.083 128.971 135.293C129.696 135.391 130.388 135.657 130.992 136.069C131.596 136.482 132.095 137.03 132.449 137.67C132.762 138.321 132.85 139.597 129.947 143.1C126.532 147.241 118.487 154.547 115.222 154.547ZM112.857 145.715C112.782 147.792 113.032 152.683 115.122 153.221C116.836 153.672 124.605 147.529 128.971 142.249C131.636 139.021 131.286 138.208 131.286 138.208C131.023 137.757 130.661 137.372 130.228 137.082C129.794 136.791 129.3 136.603 128.784 136.532C127.339 136.361 125.875 136.522 124.502 137.004C123.13 137.485 121.885 138.274 120.864 139.309C118.339 141.619 115.665 143.759 112.857 145.715Z" fill="#231F20"/>
<path d="M77.2012 113.712C77.2012 113.712 96.7305 117.34 110.818 113.599L112.069 145.352C112.069 145.352 117.636 146.891 122.928 138.809C122.928 138.809 125.568 99.4746 121.677 97.8982C117.786 96.3219 84.2322 101.189 84.2322 101.189L77.2012 113.712Z" fill="#231F20"/>
<path d="M113.22 146.089C112.77 146.093 112.321 146.047 111.881 145.951C111.754 145.916 111.642 145.842 111.561 145.738C111.48 145.634 111.434 145.507 111.431 145.376L110.255 114.399C96.2551 117.802 77.3137 114.399 77.1135 114.324C77.0159 114.307 76.9239 114.267 76.8452 114.207C76.7665 114.147 76.7036 114.068 76.6618 113.979C76.62 113.889 76.6006 113.79 76.6052 113.691C76.6097 113.592 76.6382 113.496 76.6882 113.411L83.7067 100.9C83.7536 100.815 83.82 100.742 83.9005 100.688C83.981 100.633 84.0732 100.599 84.1696 100.587C87.6226 100.087 118.061 95.7453 121.94 97.3342C125.818 98.923 124.154 129.524 123.529 138.858C123.528 138.966 123.493 139.071 123.429 139.158C119.45 145.213 115.297 146.089 113.22 146.089ZM112.657 144.838C113.995 144.988 118.149 144.838 122.303 138.582C123.916 114.336 123.153 99.1482 121.477 98.4601C118.8 97.3592 98.1067 99.8113 84.645 101.75L78.202 113.235C82.1179 113.873 98.5571 116.2 110.73 112.985C110.821 112.961 110.915 112.957 111.007 112.974C111.099 112.991 111.187 113.029 111.262 113.084C111.338 113.139 111.4 113.211 111.444 113.293C111.489 113.376 111.514 113.467 111.518 113.561L112.657 144.838Z" fill="#231F20"/>
<path d="M66.2163 109.034C66.2163 109.034 71.4959 138.197 70.5451 138.773C69.5942 139.348 44.3975 164.307 44.3975 164.307L44.8228 174.015C44.8228 174.015 81.8924 150.87 83.181 145.241C84.4696 139.611 87.6348 107.32 87.6348 107.32L66.2163 109.034Z" fill="#231F20"/>
<path d="M44.8235 174.652C44.7243 174.651 44.6265 174.63 44.5357 174.59C44.4398 174.539 44.3592 174.463 44.302 174.371C44.2449 174.279 44.2133 174.173 44.2104 174.064L43.7726 164.344C43.7711 164.258 43.787 164.172 43.8192 164.093C43.8515 164.013 43.8994 163.941 43.9602 163.881C48.0137 159.865 67.7308 140.385 70.0328 138.396C70.2955 136.394 67.5306 119.53 65.6039 109.158C65.5898 109.073 65.5937 108.985 65.6152 108.901C65.6367 108.817 65.6755 108.739 65.729 108.67C65.7782 108.598 65.8432 108.538 65.9191 108.495C65.995 108.451 66.0797 108.426 66.1669 108.42L87.5854 106.731C87.6772 106.727 87.7689 106.741 87.855 106.773C87.941 106.806 88.0196 106.855 88.0859 106.919C88.1479 106.986 88.1955 107.065 88.2256 107.151C88.2558 107.237 88.2678 107.328 88.261 107.419C88.1234 108.733 85.0708 139.822 83.7947 145.415C82.5186 151.007 48.9771 172.175 45.1613 174.565C45.0587 174.624 44.9419 174.655 44.8235 174.652ZM45.0361 164.569L45.399 172.938C60.1993 163.643 81.6803 148.98 82.5686 145.127C83.7321 140.123 86.4594 112.899 86.9474 108.032L66.9301 109.609C72.1471 138.534 71.3089 139.034 70.846 139.309C69.9952 139.922 55.0198 154.635 45.0361 164.556V164.569ZM70.2329 138.296H70.1704H70.2329Z" fill="#231F20"/>
<path d="M100.972 59.9155C100.972 59.9155 98.87 53.6601 79.7035 53.1096C75.0569 52.9263 70.4382 53.9068 66.2669 55.9621C66.0041 58.9521 66.467 101.714 65.291 111.948C65.291 111.948 89.0616 116.74 98.307 101.314C98.207 101.314 99.7208 63.2308 100.972 59.9155Z" fill="#CE5555"/>
<path d="M46.4184 112.086L13.1731 103.085C11.299 102.577 9.36844 103.685 8.86101 105.559L3.66878 124.736C3.16136 126.61 4.26926 128.541 6.14336 129.048L39.3886 138.05C41.2627 138.557 43.1933 137.449 43.7007 135.575L48.8929 116.398C49.4004 114.524 48.2925 112.594 46.4184 112.086Z" fill="white"/>
<path d="M40.3068 138.797C39.9389 138.796 39.5728 138.746 39.2184 138.647L5.97715 129.614C4.93361 129.326 4.04418 128.641 3.49934 127.706C2.9545 126.771 2.79756 125.659 3.06213 124.609L8.25412 105.43C8.39169 104.895 8.63498 104.393 8.96963 103.953C9.30429 103.514 9.72355 103.145 10.2027 102.87C10.6819 102.595 11.2113 102.419 11.7597 102.351C12.3082 102.284 12.8645 102.327 13.3961 102.478L46.6373 111.486C47.1622 111.628 47.654 111.872 48.0846 112.204C48.5152 112.536 48.8761 112.95 49.1468 113.422C49.4175 113.893 49.5926 114.414 49.6622 114.953C49.7318 115.492 49.6944 116.04 49.5523 116.565L44.3603 135.732C44.2195 136.257 43.9755 136.748 43.6426 137.178C43.3096 137.607 42.8944 137.966 42.4212 138.234C41.7796 138.608 41.0493 138.802 40.3068 138.797ZM39.5437 137.446C40.2836 137.644 41.0722 137.541 41.7361 137.159C42.4 136.776 42.8849 136.146 43.0842 135.406L48.2762 116.24C48.3768 115.873 48.4041 115.491 48.3566 115.114C48.3091 114.737 48.1878 114.373 47.9996 114.043C47.8113 113.713 47.5599 113.423 47.2596 113.191C46.9593 112.958 46.616 112.787 46.2495 112.687L12.9957 103.691C12.2575 103.492 11.4704 103.594 10.8068 103.973C10.1432 104.353 9.65713 104.981 9.45516 105.718L4.26317 124.897C4.06432 125.637 4.16744 126.426 4.54984 127.09C4.93224 127.754 5.56263 128.238 6.30244 128.438L39.5437 137.446Z" fill="#231F20"/>
<path d="M43.7218 119.505H43.5592L11.8943 110.911C11.8122 110.889 11.7351 110.852 11.6673 110.801C11.5996 110.75 11.5426 110.686 11.4997 110.612C11.4567 110.539 11.4285 110.458 11.4168 110.374C11.4051 110.29 11.4101 110.205 11.4314 110.122C11.4528 110.04 11.4901 109.963 11.5413 109.895C11.5925 109.828 11.6565 109.771 11.7297 109.728C11.8029 109.685 11.8838 109.657 11.9679 109.645C12.0519 109.633 12.1375 109.638 12.2196 109.659L43.8845 118.242C44.0504 118.263 44.2009 118.35 44.303 118.483C44.4051 118.615 44.4503 118.783 44.4287 118.949C44.4071 119.115 44.3206 119.265 44.188 119.367C44.0554 119.469 43.8878 119.515 43.7218 119.493V119.505Z" fill="#D1D3D4"/>
<path d="M37.1667 110.208H37.0041L22.2163 106.204C22.1365 106.183 22.0619 106.145 21.9973 106.093C21.9327 106.041 21.8795 105.977 21.841 105.904C21.797 105.834 21.7686 105.755 21.7578 105.673C21.7471 105.591 21.7541 105.507 21.7784 105.428L22.5416 102.601C22.7701 101.761 23.3224 101.045 24.0775 100.611C24.8327 100.177 25.729 100.061 26.5701 100.286L36.2284 102.914C36.6453 103.022 37.0362 103.213 37.378 103.475C37.7197 103.737 38.0052 104.065 38.2176 104.44C38.4345 104.815 38.5749 105.229 38.6307 105.659C38.6865 106.088 38.6567 106.524 38.5429 106.942L37.7798 109.77C37.7329 109.933 37.6255 110.071 37.4795 110.157C37.3811 110.2 37.2735 110.217 37.1667 110.208ZM23.1546 105.141L36.7414 108.819L37.3419 106.592C37.4838 106.071 37.4134 105.515 37.146 105.046C36.8787 104.577 36.4362 104.233 35.9157 104.09L26.2573 101.475C25.9983 101.405 25.7279 101.386 25.4617 101.42C25.1955 101.455 24.9387 101.541 24.706 101.675C24.4727 101.809 24.2692 101.989 24.1078 102.204C23.9465 102.419 23.8307 102.665 23.7677 102.926L23.1546 105.141Z" fill="#231F20"/>
<path d="M70.7582 54.084C70.7582 54.084 52.5425 61.2527 48.3639 64.7932C44.1853 68.3338 29.1348 90.553 29.1348 90.553L42.171 95.4572C42.171 95.4572 51.3415 80.144 54.3691 77.6794C57.3967 75.2147 72.3721 74.5642 72.3721 74.5642L70.7582 54.084Z" fill="#CE5555"/>
<path d="M100.972 59.916C100.972 59.916 114.733 77.869 116.372 76.5054C118.011 75.1417 123.879 62.3056 123.879 62.3056L133.887 70.6628C133.887 70.6628 130.272 93.7077 119.563 92.8195C108.853 91.9312 90.2998 76.08 90.2998 76.08L100.972 59.916Z" fill="#CE5555"/>
<path d="M107.552 88.8904C107.469 88.9091 107.384 88.9091 107.302 88.8904C97.6933 84.7493 89.9366 76.6423 89.8615 76.5672C89.7976 76.5097 89.7461 76.4395 89.7105 76.3612C89.6748 76.2829 89.6557 76.1981 89.6544 76.112C89.653 76.026 89.6694 75.9406 89.7026 75.8611C89.7357 75.7817 89.7849 75.71 89.847 75.6505C89.9091 75.5909 89.9829 75.5448 90.0637 75.5151C90.1444 75.4854 90.2304 75.4726 90.3163 75.4776C90.4022 75.4827 90.4862 75.5053 90.5629 75.5443C90.6397 75.5832 90.7075 75.6376 90.7623 75.704C90.8374 75.779 98.4314 83.7109 107.79 87.7394C107.866 87.7706 107.936 87.8172 107.994 87.8762C108.053 87.9351 108.099 88.0054 108.129 88.0826C108.159 88.1598 108.174 88.2423 108.171 88.3253C108.169 88.4082 108.15 88.4898 108.115 88.5651C108.061 88.6667 107.98 88.751 107.88 88.8085C107.78 88.866 107.667 88.8944 107.552 88.8904Z" fill="#231F20"/>
<path d="M65.7163 103.342C65.6341 103.339 65.5534 103.319 65.4787 103.285C65.404 103.25 65.3369 103.201 65.2811 103.141C65.2254 103.081 65.182 103.01 65.1537 102.933C65.1253 102.855 65.1124 102.773 65.1158 102.691C65.3785 96.7611 65.2409 67.1856 65.2409 66.8853C65.2409 66.7194 65.3068 66.5603 65.4241 66.443C65.5414 66.3257 65.7005 66.2598 65.8664 66.2598C66.0323 66.2598 66.1914 66.3257 66.3087 66.443C66.426 66.5603 66.492 66.7194 66.492 66.8853C66.492 67.1856 66.6296 96.7736 66.3668 102.741C66.3636 102.823 66.3442 102.904 66.3098 102.979C66.2753 103.054 66.2265 103.121 66.1661 103.176C66.1056 103.232 66.0348 103.276 65.9576 103.304C65.8805 103.332 65.7985 103.345 65.7163 103.342Z" fill="#231F20"/>
<path d="M50.2903 169.074C51.3412 161.805 48.5513 158.94 46.0366 159.178C43.522 159.415 41.858 159.29 40.9447 166.396C40.0314 173.503 41.4952 184.337 45.4862 184.299C49.4771 184.262 49.2269 176.355 50.2903 169.074Z" fill="white"/>
<path d="M45.4738 184.936C45.004 184.918 44.5439 184.797 44.1265 184.58C43.7091 184.364 43.3446 184.058 43.0592 183.685C40.4444 180.732 39.5186 172.287 40.3068 166.257C41.2076 159.276 42.9341 158.751 45.674 158.513H45.9742C46.5742 158.457 47.179 158.541 47.7412 158.758C48.3034 158.975 48.8076 159.319 49.2145 159.764C50.9285 161.553 51.5415 164.881 50.9285 169.109C50.7033 170.648 50.5407 172.225 50.378 173.751C49.7525 179.694 49.2145 184.836 45.4988 184.873L45.4738 184.936ZM46.337 159.814H46.0993H45.7991C43.6097 160.014 42.3961 160.127 41.5829 166.432C40.8573 172.062 41.6705 180.194 44.0851 182.834C44.2547 183.062 44.4728 183.25 44.7237 183.384C44.9747 183.519 45.2522 183.595 45.5363 183.61C48.0385 183.61 48.5765 178.981 49.1394 173.601C49.3021 172.062 49.4647 170.473 49.7024 168.909C50.4531 163.742 49.1645 161.503 48.3387 160.64C48.0796 160.372 47.7681 160.161 47.4238 160.019C47.0794 159.877 46.7095 159.807 46.337 159.814Z" fill="#231F20"/>
<path d="M83.707 219.691C83.5411 219.714 83.3728 219.671 83.239 219.57C83.1053 219.469 83.0171 219.319 82.9939 219.153C82.9707 218.987 83.0143 218.819 83.1152 218.685C83.2161 218.551 83.3659 218.463 83.5319 218.44C120.464 207.593 138.992 173.401 152.529 148.492C161.174 132.553 167.429 121.031 175.161 122.219C183.756 123.583 187.672 128.312 191.588 132.891C196.429 138.634 200.971 144.076 214.357 143.463C238.278 142.374 299.181 21.7451 299.794 20.5315C299.831 20.4576 299.882 20.3917 299.944 20.3375C300.007 20.2834 300.079 20.242 300.158 20.2159C300.236 20.1898 300.319 20.1793 300.401 20.1852C300.484 20.191 300.564 20.2131 300.638 20.25C300.712 20.287 300.778 20.3382 300.832 20.4006C300.886 20.4631 300.928 20.5356 300.954 20.614C300.98 20.6924 300.99 20.7752 300.985 20.8577C300.979 20.9401 300.957 21.0206 300.92 21.0945C300.77 21.3948 285.344 52.0087 267.141 82.3975C242.557 123.358 224.829 144.289 214.407 144.764C200.433 145.402 195.454 139.472 190.637 133.742C186.759 129.138 183.13 124.797 174.961 123.508C168.08 122.42 161.712 134.205 153.692 149.105C140.056 174.239 121.377 208.657 83.9447 219.654L83.707 219.691Z" fill="#231F20"/>
<path d="M300.356 33.8949C300.19 33.8949 300.031 33.829 299.914 33.7117C299.797 33.5943 299.731 33.4352 299.731 33.2693V21.7969L289.134 26.1257C288.981 26.1879 288.81 26.1874 288.658 26.1241C288.506 26.0608 288.384 25.94 288.321 25.7879C288.258 25.6334 288.258 25.4605 288.321 25.3062C288.385 25.1518 288.506 25.0284 288.659 24.9622L300.119 20.2831C300.21 20.2369 300.31 20.2129 300.413 20.2129C300.515 20.2129 300.615 20.2369 300.707 20.2831C300.791 20.3391 300.861 20.4153 300.909 20.5048C300.957 20.5944 300.982 20.6944 300.982 20.7961V33.2818C300.978 33.4456 300.911 33.6015 300.794 33.7161C300.677 33.8307 300.52 33.8949 300.356 33.8949Z" fill="#231F20"/>
<path d="M160.436 44.2381C160.27 44.2697 160.098 44.234 159.959 44.139C159.819 44.0439 159.723 43.8974 159.691 43.7315C159.66 43.5656 159.696 43.3939 159.791 43.2543C159.886 43.1147 160.032 43.0186 160.198 42.9871L177.388 36.0561C177.464 36.0257 177.546 36.0106 177.628 36.0118C177.71 36.0129 177.792 36.0303 177.867 36.0628C177.943 36.0953 178.011 36.1424 178.068 36.2014C178.126 36.2603 178.171 36.33 178.201 36.4064C178.232 36.4828 178.247 36.5644 178.245 36.6466C178.244 36.7288 178.227 36.81 178.194 36.8855C178.162 36.961 178.115 37.0294 178.056 37.0867C177.997 37.144 177.927 37.1892 177.851 37.2196L160.661 44.1506C160.591 44.1921 160.515 44.2217 160.436 44.2381Z" fill="#E6E7E8"/>
<path d="M160.435 36.2572C160.309 36.2564 160.185 36.2179 160.08 36.1466C159.976 36.0753 159.894 35.9744 159.847 35.8568C159.817 35.7805 159.802 35.6988 159.803 35.6166C159.804 35.5343 159.821 35.4531 159.854 35.3776C159.886 35.3021 159.933 35.2337 159.992 35.1764C160.051 35.1191 160.121 35.074 160.198 35.0437L189.085 23.3961C189.161 23.3656 189.243 23.3505 189.325 23.3516C189.408 23.3527 189.489 23.3701 189.564 23.4026C189.64 23.4351 189.708 23.4823 189.765 23.5412C189.823 23.6002 189.868 23.6699 189.898 23.7464C189.929 23.8228 189.944 23.9044 189.943 23.9867C189.942 24.0689 189.924 24.1501 189.892 24.2256C189.859 24.3012 189.812 24.3695 189.753 24.4268C189.694 24.4841 189.624 24.5293 189.548 24.5596L160.66 36.2072C160.589 36.2357 160.513 36.2526 160.435 36.2572Z" fill="#E6E7E8"/>
<path d="M160.436 28.2752C160.27 28.3067 160.098 28.2711 159.959 28.176C159.819 28.081 159.723 27.9344 159.691 27.7685C159.66 27.6026 159.696 27.431 159.791 27.2914C159.886 27.1518 160.032 27.0556 160.198 27.0241L189.086 15.3765C189.162 15.3461 189.244 15.331 189.326 15.3321C189.408 15.3332 189.489 15.3505 189.565 15.3831C189.64 15.4156 189.709 15.4627 189.766 15.5217C189.823 15.5807 189.868 15.6504 189.899 15.7269C189.929 15.8032 189.944 15.8849 189.943 15.9671C189.942 16.0494 189.925 16.1306 189.892 16.2061C189.86 16.2816 189.813 16.35 189.754 16.4073C189.695 16.4646 189.625 16.5097 189.548 16.5401L160.661 28.2752C160.586 28.2871 160.51 28.2871 160.436 28.2752Z" fill="#E6E7E8"/>
<path d="M160.436 20.2809C160.27 20.3124 160.098 20.2767 159.958 20.1817C159.819 20.0867 159.723 19.9401 159.691 19.7742C159.66 19.6083 159.695 19.4367 159.79 19.2971C159.885 19.1575 160.032 19.0613 160.198 19.0298L189.085 7.38224C189.162 7.35185 189.243 7.3368 189.326 7.33795C189.408 7.33911 189.489 7.35645 189.564 7.38898C189.64 7.4215 189.708 7.46859 189.766 7.52754C189.823 7.58649 189.868 7.65615 189.898 7.73255C189.929 7.80894 189.944 7.89058 189.943 7.97279C189.942 8.055 189.924 8.13618 189.892 8.2117C189.859 8.28721 189.812 8.35557 189.753 8.41289C189.694 8.47021 189.625 8.51535 189.548 8.54575L160.661 20.1933C160.591 20.2351 160.515 20.2647 160.436 20.2809Z" fill="#E6E7E8"/>
<path d="M103.737 31.6047C103.613 31.6041 103.493 31.5669 103.39 31.4979C103.288 31.4289 103.208 31.3311 103.161 31.2169C103.098 31.0624 103.099 30.8895 103.162 30.7352C103.225 30.5808 103.346 30.4574 103.499 30.3912L129.121 20.0697C129.198 20.0393 129.279 20.0243 129.361 20.0255C129.444 20.0266 129.525 20.0439 129.6 20.0765C129.676 20.109 129.744 20.1561 129.801 20.215C129.859 20.274 129.904 20.3436 129.934 20.42C129.965 20.4964 129.98 20.5781 129.979 20.6603C129.977 20.7425 129.96 20.8237 129.928 20.8992C129.895 20.9747 129.848 21.0431 129.789 21.1004C129.73 21.1577 129.66 21.2029 129.584 21.2332L103.974 31.5547C103.9 31.5893 103.819 31.6064 103.737 31.6047Z" fill="#E6E7E8"/>
<path d="M103.737 23.6227C103.611 23.6229 103.489 23.5845 103.386 23.513C103.283 23.4414 103.205 23.34 103.161 23.2224C103.099 23.0697 103.099 22.8986 103.163 22.7463C103.226 22.594 103.347 22.4728 103.499 22.4092L132.386 10.7616C132.541 10.7034 132.712 10.7074 132.864 10.7728C133.015 10.8381 133.136 10.9597 133.199 11.1119C133.232 11.1873 133.249 11.2685 133.25 11.3507C133.25 11.4328 133.234 11.5142 133.203 11.5901C133.171 11.6659 133.125 11.7347 133.066 11.7922C133.008 11.8498 132.938 11.895 132.862 11.9251L103.974 23.5727C103.9 23.6073 103.819 23.6244 103.737 23.6227Z" fill="#E6E7E8"/>
<path d="M103.737 15.6402C103.611 15.6403 103.489 15.602 103.386 15.5304C103.283 15.4589 103.205 15.3574 103.161 15.2399C103.099 15.0872 103.1 14.9161 103.163 14.7638C103.226 14.6115 103.347 14.4903 103.499 14.4267L132.387 2.77911C132.541 2.71607 132.714 2.7169 132.868 2.78142C133.021 2.84594 133.143 2.96887 133.206 3.12316C133.269 3.27745 133.268 3.45046 133.204 3.60414C133.139 3.75782 133.016 3.87957 132.862 3.94262L103.974 15.5902C103.898 15.6187 103.818 15.6355 103.737 15.6402Z" fill="#E6E7E8"/>
<path d="M285.694 77.9172C285.528 77.9487 285.356 77.9131 285.216 77.818C285.077 77.723 284.981 77.5764 284.949 77.4105C284.918 77.2446 284.953 77.073 285.048 76.9334C285.143 76.7938 285.29 76.6976 285.456 76.6661L303.334 69.56C303.488 69.4986 303.66 69.501 303.813 69.5667C303.965 69.6324 304.086 69.756 304.147 69.9103C304.208 70.0646 304.206 70.2369 304.14 70.3894C304.075 70.5419 303.951 70.6621 303.797 70.7235L285.931 77.9297C285.852 77.9376 285.772 77.9334 285.694 77.9172Z" fill="#E6E7E8"/>
<path d="M285.694 87.4763C285.528 87.5078 285.356 87.4721 285.216 87.3771C285.077 87.2821 284.981 87.1355 284.949 86.9696C284.918 86.8037 284.953 86.632 285.048 86.4924C285.143 86.3528 285.29 86.2567 285.456 86.2252L303.334 79.019C303.488 78.9576 303.66 78.96 303.813 79.0257C303.965 79.0914 304.086 79.215 304.147 79.3693C304.208 79.5235 304.206 79.6959 304.14 79.8484C304.075 80.0009 303.951 80.1211 303.797 80.1825L285.931 87.3887C285.857 87.4305 285.777 87.4601 285.694 87.4763Z" fill="#E6E7E8"/>
<path d="M285.694 97.0856C285.528 97.1171 285.356 97.0815 285.216 96.9865C285.077 96.8914 284.981 96.7448 284.949 96.5789C284.918 96.413 284.953 96.2414 285.048 96.1018C285.143 95.9622 285.29 95.8661 285.456 95.8345L303.334 88.6283C303.487 88.5661 303.658 88.5666 303.81 88.6299C303.962 88.6931 304.083 88.814 304.147 88.9661C304.209 89.1221 304.207 89.2963 304.141 89.4509C304.076 89.6055 303.952 89.728 303.797 89.7918L285.931 96.9855C285.861 97.0377 285.78 97.072 285.694 97.0856Z" fill="#E6E7E8"/>
<path d="M285.694 106.594C285.528 106.625 285.356 106.59 285.216 106.495C285.077 106.4 284.981 106.253 284.949 106.087C284.918 105.921 284.953 105.75 285.048 105.61C285.143 105.47 285.29 105.374 285.456 105.343L303.334 98.1364C303.487 98.0775 303.657 98.0797 303.808 98.1426C303.959 98.2055 304.081 98.3242 304.147 98.4742C304.177 98.5506 304.193 98.6323 304.192 98.7145C304.19 98.7967 304.173 98.8779 304.141 98.9535C304.108 99.029 304.061 99.0974 304.002 99.1547C303.943 99.212 303.873 99.2571 303.797 99.2874L285.931 106.494C285.861 106.546 285.78 106.58 285.694 106.594Z" fill="#E6E7E8"/>
<path d="M285.694 116.152C285.57 116.153 285.449 116.116 285.346 116.047C285.244 115.978 285.164 115.879 285.119 115.764C285.056 115.609 285.056 115.436 285.119 115.282C285.182 115.128 285.303 115.004 285.456 114.938L303.334 107.744C303.412 107.701 303.498 107.674 303.587 107.666C303.675 107.659 303.765 107.67 303.848 107.7C303.932 107.729 304.009 107.776 304.073 107.838C304.138 107.899 304.188 107.974 304.221 108.056C304.254 108.139 304.27 108.227 304.266 108.316C304.262 108.405 304.239 108.492 304.199 108.572C304.159 108.651 304.102 108.721 304.033 108.777C303.964 108.833 303.883 108.873 303.797 108.895L285.932 116.101C285.857 116.136 285.776 116.153 285.694 116.152Z" fill="#E6E7E8"/>
<path d="M285.694 125.709C285.568 125.711 285.445 125.674 285.342 125.602C285.239 125.53 285.16 125.428 285.119 125.309C285.056 125.156 285.057 124.985 285.12 124.833C285.183 124.681 285.304 124.56 285.456 124.496L294.389 120.855C294.543 120.792 294.716 120.793 294.87 120.858C295.024 120.922 295.145 121.045 295.209 121.199C295.272 121.354 295.271 121.527 295.206 121.68C295.142 121.834 295.019 121.956 294.864 122.019L285.932 125.622C285.861 125.67 285.779 125.7 285.694 125.709Z" fill="#E6E7E8"/>
<path d="M66.5419 264.97C66.4032 264.967 66.2684 264.923 66.154 264.845L0.309639 214.201C0.23896 214.153 0.178844 214.091 0.13299 214.019C0.0871358 213.947 0.0565149 213.866 0.0430185 213.782C0.0295222 213.698 0.0334326 213.612 0.0545107 213.529C0.0755888 213.446 0.113386 213.368 0.165576 213.301C0.217767 213.233 0.283245 213.177 0.357975 213.136C0.432704 213.094 0.5151 213.069 0.600093 213.061C0.685086 213.052 0.77088 213.062 0.852176 213.088C0.933472 213.114 1.00855 213.156 1.0728 213.213L66.6169 263.619L303.647 153.386C303.798 153.316 303.97 153.309 304.126 153.367C304.282 153.424 304.409 153.541 304.479 153.692C304.548 153.843 304.555 154.016 304.498 154.172C304.44 154.328 304.323 154.455 304.172 154.524L66.8046 264.907C66.7221 264.946 66.6328 264.967 66.5419 264.97Z" fill="#231F20"/>
</svg>
