<svg width="232" height="200" viewBox="0 0 232 200" fill="none" xmlns="http://www.w3.org/2000/svg">
<path d="M194.59 145.805C194.59 145.805 222.434 73.1699 208.009 62.0929C193.584 51.0159 133.083 55.489 129.768 59.4462C126.453 63.4035 106.938 150.836 106.938 150.836L194.59 145.805Z" fill="#231F20"/>
<path d="M106.895 151.277C106.834 151.276 106.775 151.263 106.719 151.239C106.664 151.214 106.614 151.178 106.574 151.133C106.532 151.084 106.502 151.025 106.487 150.962C106.472 150.898 106.473 150.833 106.489 150.77C107.284 147.193 126.098 63.1851 129.446 59.194C131.281 57.0039 147.432 54.9661 164.715 54.7378C174.862 54.6025 199.46 55.0168 208.271 61.773C214.401 66.4743 214.012 82.0667 207.121 108.212C202.047 127.55 195.055 145.772 194.987 145.95C194.959 146.027 194.908 146.093 194.842 146.142C194.776 146.19 194.697 146.217 194.615 146.22L106.92 151.294L106.895 151.277ZM167.912 55.558H164.732C146.975 55.7947 131.543 57.9848 130.064 59.7182C127.527 62.7707 114.201 120.033 107.402 150.389L194.268 145.383C196.052 140.657 221.327 72.85 207.73 62.424C202.005 58.0355 187.571 55.558 167.912 55.558Z" fill="#231F20"/>
<path d="M81.5288 83.0484L68.9805 125.166C68.9805 125.166 94.8635 128.507 94.8635 127.551C94.8635 126.596 99.9369 81.2051 99.9369 81.2051L81.5288 83.0484Z" fill="white"/>
<path d="M93.5607 128.099C89.1891 128.099 76.7845 126.594 68.9291 125.563C68.8685 125.554 68.8104 125.533 68.7587 125.5C68.707 125.467 68.6629 125.424 68.6293 125.372C68.5957 125.321 68.5734 125.263 68.5639 125.203C68.5543 125.142 68.5578 125.081 68.574 125.021L81.1223 82.9034C81.1455 82.8222 81.1926 82.7497 81.2574 82.6954C81.3222 82.6412 81.4018 82.6076 81.4859 82.599L99.9025 80.7557C99.9648 80.7499 100.028 80.7583 100.086 80.7803C100.145 80.8023 100.198 80.8372 100.241 80.8825C100.286 80.9253 100.321 80.9783 100.341 81.0372C100.362 81.096 100.368 81.159 100.359 81.2207C98.6088 96.8639 95.2857 126.67 95.2857 127.524C95.278 127.663 95.2174 127.793 95.1166 127.888C94.6207 128.076 94.0887 128.148 93.5607 128.099ZM69.4957 124.81C78.4926 125.96 92.4615 127.558 94.4232 127.279C94.7445 123.626 98.8625 86.7592 99.429 81.6773L81.8241 83.4446L69.4957 124.81Z" fill="#231F20"/>
<path d="M57.7424 72.588C57.8524 72.7064 62.3085 71.5141 64.6085 74.2792C66.9085 77.0442 63.9236 79.5133 56.6601 78.0843C49.3966 76.6552 57.7424 72.588 57.7424 72.588Z" fill="white"/>
<path d="M60.4905 78.9214C59.1752 78.9082 57.8643 78.7695 56.5754 78.507C54.4784 78.0927 53.3961 77.4163 53.2692 76.4269C53.024 74.5159 56.7953 72.5796 57.5563 72.1991C57.6441 72.1694 57.7391 72.1694 57.8269 72.1991H58.1059C59.2897 72.0553 62.8919 71.5987 64.9382 74.0509C65.8514 75.1332 66.0459 76.2409 65.5047 77.171C64.8029 78.2787 62.9849 78.9214 60.4905 78.9214ZM57.8354 73.0024C56.1865 73.8479 54.0134 75.3361 54.1317 76.2747C54.1317 76.5876 54.5714 77.1795 56.7446 77.6107C61.6573 78.5747 64.1264 77.6784 64.7521 76.6214C64.9016 76.2627 64.9355 75.8663 64.8491 75.4874C64.7627 75.1085 64.5603 74.766 64.2702 74.5075C62.5283 72.4274 59.3912 72.8163 58.2159 72.9685C58.0552 73.0024 57.9368 73.0024 57.8354 73.0024Z" fill="#231F20"/>
<path d="M46.5722 63.7505C46.5722 63.7505 45.659 62.702 46.234 61.9664C46.3633 61.817 46.5264 61.7006 46.7097 61.6269C46.893 61.5532 47.0913 61.5242 47.288 61.5424C47.4847 61.5606 47.6743 61.6254 47.841 61.7315C48.0077 61.8376 48.1467 61.9819 48.2464 62.1524C48.2464 62.1524 46.809 62.6682 46.5722 63.7505Z" fill="white"/>
<path d="M46.5729 64.1814C46.5109 64.182 46.4495 64.1696 46.3927 64.1448C46.3358 64.12 46.2849 64.0835 46.2431 64.0377C45.8204 63.5472 45.2623 62.4987 45.8965 61.7039C46.0382 61.5175 46.2211 61.3664 46.4308 61.2623C46.6406 61.1582 46.8715 61.1038 47.1056 61.1035C47.3938 61.1084 47.6769 61.1805 47.9323 61.3141C48.1878 61.4477 48.4085 61.6391 48.5769 61.873C48.6233 61.9268 48.6553 61.9914 48.6701 62.0609C48.6849 62.1303 48.6819 62.2024 48.6615 62.2704C48.6437 62.338 48.6098 62.4002 48.5627 62.4517C48.5155 62.5033 48.4566 62.5426 48.3909 62.5664C48.0527 62.6847 47.1479 63.1583 46.9957 63.8432C46.9794 63.9218 46.9415 63.9944 46.8863 64.0526C46.831 64.1109 46.7605 64.1526 46.6828 64.1729L46.5729 64.1814ZM47.1225 61.9745C47.0199 61.976 46.9188 62.0003 46.8267 62.0456C46.7346 62.091 46.6537 62.1562 46.5898 62.2366C46.5416 62.3293 46.5165 62.4323 46.5165 62.5368C46.5165 62.6413 46.5416 62.7442 46.5898 62.8369C46.8445 62.5244 47.154 62.2608 47.503 62.059C47.3862 62.0078 47.2573 61.9902 47.131 62.0083L47.1225 61.9745Z" fill="#231F20"/>
<path d="M48.5681 62.1094C48.0651 62.1502 47.5898 62.3566 47.2165 62.6962C46.8432 63.0359 46.5929 63.4896 46.5049 63.9865L64.6424 87.5865C64.7543 86.4556 65.2427 85.395 66.0293 84.5747C66.8158 83.7544 67.855 83.222 68.9802 83.0627L48.5681 62.1094Z" fill="white"/>
<path d="M64.634 88.018C64.5685 88.0174 64.504 88.0018 64.4454 87.9725C64.3868 87.9432 64.3356 87.9009 64.2958 87.8489L46.1582 64.2489C46.1173 64.1955 46.0891 64.1335 46.0759 64.0675C46.0627 64.0015 46.0648 63.9334 46.0821 63.8684C46.2015 63.2817 46.5087 62.7498 46.9572 62.3532C47.4057 61.9565 47.9712 61.7167 48.5681 61.6699C48.6266 61.6705 48.6845 61.6828 48.7382 61.706C48.7919 61.7292 48.8405 61.763 48.881 61.8052L69.2931 82.7585C69.3498 82.8148 69.3895 82.8859 69.4074 82.9637C69.4254 83.0415 69.4209 83.1228 69.3946 83.1982C69.3709 83.2739 69.3268 83.3416 69.2671 83.3938C69.2074 83.446 69.1345 83.4807 69.0564 83.4942C68.0257 83.6351 67.0724 84.1188 66.35 84.8673C65.6276 85.6158 65.178 86.5856 65.0737 87.6206C65.0667 87.7084 65.0329 87.7919 64.977 87.8599C64.921 87.9279 64.8456 87.9772 64.7608 88.0011L64.634 88.018ZM46.9869 63.9022L64.4142 86.5721C64.6596 85.6798 65.1297 84.8654 65.7796 84.2067C66.4294 83.5479 67.2374 83.0668 68.1262 82.8093L48.4074 62.5662C48.0702 62.6357 47.7589 62.7973 47.5081 63.0332C47.2573 63.2691 47.0768 63.5699 46.9869 63.9022Z" fill="#231F20"/>
<path d="M64.6423 87.5872L70.8319 90.8004L71.6014 90.0816L68.9801 83.0633C68.9801 83.0633 64.1603 82.5814 64.6423 87.5872Z" fill="white"/>
<path d="M70.8323 91.2329C70.7614 91.234 70.6914 91.2165 70.6294 91.1821L64.4398 87.969C64.3741 87.9361 64.3178 87.887 64.2764 87.8264C64.2349 87.7657 64.2097 87.6954 64.203 87.6223C64.0853 86.9495 64.1224 86.2587 64.3114 85.6023C64.5004 84.946 64.8363 84.3413 65.2938 83.8341C65.8041 83.3953 66.3966 83.0624 67.0368 82.8548C67.677 82.6472 68.3521 82.5691 69.0228 82.6249C69.1057 82.6327 69.1846 82.6639 69.2505 82.7148C69.3163 82.7657 69.3664 82.8342 69.3949 82.9124L72.0077 89.9307C72.0391 90.0115 72.0454 90.0999 72.0258 90.1844C72.0062 90.2689 71.9616 90.3455 71.8978 90.4042L71.1283 91.1229C71.0462 91.1943 70.9411 91.2333 70.8323 91.2329ZM65.0571 87.3094L70.7562 90.2689L71.0945 89.9645L68.6761 83.4874C67.6648 83.4586 66.6781 83.8016 65.9026 84.4514C65.563 84.838 65.3115 85.2939 65.1655 85.7874C65.0195 86.2809 64.9825 86.8002 65.0571 87.3094Z" fill="#231F20"/>
<path d="M70.832 90.8008L72.0158 92.0691L72.5739 91.435L71.6015 90.082L70.832 90.8008Z" fill="white"/>
<path d="M72.0161 92.5084C71.9566 92.5089 71.8977 92.4962 71.8437 92.4714C71.7896 92.4465 71.7417 92.4101 71.7032 92.3647L70.511 91.0963C70.4341 91.0103 70.3919 90.8988 70.3926 90.7835C70.3991 90.6672 70.4507 90.558 70.5363 90.479L71.3058 89.7603C71.3516 89.7189 71.4056 89.6875 71.4643 89.6683C71.5229 89.6491 71.585 89.6425 71.6464 89.6488C71.7079 89.6552 71.7673 89.6745 71.8208 89.7053C71.8742 89.7362 71.9206 89.778 71.9569 89.828L72.9293 91.1809C72.9911 91.2575 73.0248 91.353 73.0248 91.4515C73.0248 91.5499 72.9911 91.6454 72.9293 91.722L72.3712 92.3562C72.3323 92.4038 72.2833 92.4422 72.2277 92.4685C72.1721 92.4949 72.1114 92.5085 72.0499 92.5084H72.0161ZM71.4496 90.8173L72.0076 91.4176L71.5257 90.7496L71.4496 90.8173Z" fill="#231F20"/>
<path d="M58.8925 89.4411C59.8903 87.4202 62.3932 83.1331 62.9682 81.2728C64.5579 76.1994 55.2481 71.4473 52.2378 71.4473C49.2276 71.4473 42.9365 81.9662 42.9365 87.5893C42.9365 93.2123 63.7799 136.269 63.7799 136.269L83.7778 127.12L58.8925 89.4411Z" fill="white"/>
<path d="M63.8046 136.707C63.7232 136.707 63.6435 136.684 63.5747 136.641C63.5059 136.597 63.4507 136.535 63.4156 136.462C62.57 134.703 42.5215 93.236 42.5215 87.5876C42.5215 81.9391 48.8802 71.0059 52.2371 71.0059C54.554 71.0059 59.9403 73.4749 62.384 76.7558C62.925 77.3865 63.3027 78.1405 63.4841 78.9514C63.6654 79.7623 63.6448 80.6053 63.4241 81.4064C62.6179 83.4002 61.6742 85.3356 60.5999 87.1986C60.1517 88.0442 59.7543 88.8052 59.433 89.4056L84.1998 126.864C84.2344 126.918 84.2575 126.977 84.2677 127.04C84.2779 127.103 84.275 127.167 84.259 127.228C84.2409 127.287 84.2104 127.342 84.1696 127.389C84.1288 127.435 84.0786 127.473 84.0223 127.499L64.016 136.665C63.9525 136.703 63.8778 136.718 63.8046 136.707ZM52.2371 71.8768C49.5905 71.8768 43.4009 82.0237 43.4009 87.5876C43.4009 92.7625 61.9443 131.397 64.0075 135.701L83.1598 126.924L58.5282 89.7184C58.4912 89.6511 58.4718 89.5754 58.4718 89.4986C58.4718 89.4217 58.4912 89.3461 58.5282 89.2787C58.8495 88.6361 59.3146 87.7651 59.8219 86.8181C60.8677 85.0028 61.7886 83.1185 62.5785 81.1781C62.7569 80.5079 62.7677 79.8041 62.6099 79.1287C62.4521 78.4534 62.1306 77.8272 61.6737 77.3054C59.3146 74.1007 54.1819 71.8768 52.2371 71.8768Z" fill="#231F20"/>
<path d="M165.291 97.9634L189.939 91.6808C189.094 90.4885 179.15 58.9232 168.665 53.7568C159.49 47.6687 137.734 43.6099 118.514 44.9882C118.514 44.9882 113.44 44.8022 104.545 48.3282C82.8812 56.9361 78.7041 86.9118 78.7041 86.9118L95.6156 92.7547C95.6156 92.7547 92.3855 131.524 89.333 151.793C89.333 151.793 126.724 159.107 181.162 150.102C181.205 150.085 165.392 103.696 165.291 97.9634Z" fill="#427DAA"/>
<path d="M163.261 54.6268C159.997 58.0091 157.452 62.0678 153.85 65.2556C146.087 72.1217 135.932 77.5587 125.286 76.8992C112.738 76.1213 101.889 67.5471 99.1665 55.058C97.4753 47.228 99.2341 39.9561 105.288 34.426C109.474 30.604 114.835 28.2702 120.314 26.8158C134.867 22.9177 151.195 24.9894 163.616 33.5297C165.646 34.7789 167.359 36.4806 168.622 38.5017C171.725 44.1247 168.157 49.9085 164.132 53.7727C163.861 54.0349 163.574 54.3308 163.261 54.6268Z" fill="#427DAA"/>
<path d="M120.45 63.4884C120.323 63.4884 117.989 66.3296 117.871 66.3718C119.199 71.3776 120.602 77.897 126.268 78.5397C137.759 79.8503 139.501 64.5285 141.666 57.2988C133.709 59.5311 128.094 60.4275 120.45 63.4884Z" fill="#231F20"/>
<path d="M127.612 79.0485C127.149 79.0448 126.686 79.0166 126.225 78.964C120.568 78.3213 118.97 72.1994 117.676 67.3035L117.457 66.4579C117.436 66.3749 117.441 66.2876 117.472 66.2076C117.502 66.1276 117.556 66.0586 117.626 66.0098C117.761 65.8829 118.378 65.1642 118.826 64.6399C120.137 63.1348 120.154 63.1263 120.289 63.0672C124.97 61.2577 129.773 59.7855 134.664 58.6617C136.82 58.1205 139.044 57.5625 141.513 56.8691C141.586 56.8488 141.662 56.8483 141.735 56.8677C141.808 56.887 141.875 56.9254 141.928 56.979C141.978 57.0338 142.014 57.1006 142.032 57.1731C142.05 57.2455 142.049 57.3214 142.029 57.3934C141.708 58.4672 141.395 59.7356 141.057 61.0801C139.306 68.3182 136.626 79.0401 127.612 79.0485ZM118.311 66.5086L118.463 67.0921C119.757 71.9964 121.211 77.5518 126.293 78.0846C135.704 79.1584 138.334 68.5803 140.262 60.8517C140.524 59.7948 140.778 58.7801 141.031 57.8669C138.841 58.4672 136.803 58.9746 134.884 59.465C130.038 60.5651 125.279 62.0177 120.644 63.8113C120.475 63.9804 119.883 64.6568 119.444 65.1726C118.852 65.9336 118.522 66.3057 118.336 66.5086H118.311Z" fill="#231F20"/>
<path d="M131.577 4.51008C129.886 4.44243 128.804 5.17808 127.35 5.70234C124.517 6.70012 123.198 4.33251 120.763 3.0726C116.928 1.0793 112.523 0.474428 108.293 1.3607C104.064 2.24698 100.271 4.56976 97.5601 7.93465C95.8728 9.93293 94.7801 12.3645 94.4061 14.9529C94.0509 17.8786 94.8711 20.8719 94.3638 23.7638C94.0537 25.4246 93.3259 26.9792 92.2489 28.281C91.172 29.5828 89.7813 30.589 88.208 31.2049C90.9151 31.4138 93.6379 31.1564 96.2579 30.4438C95.5048 31.3389 94.5688 32.0623 93.5129 32.5655C92.4569 33.0687 91.3054 33.34 90.1359 33.3611C92.8324 35.4345 96.1458 36.5449 99.5471 36.5151L93.5859 37.9103C98.6593 41.1657 104.84 42.1381 110.819 41.8675C122.724 41.2503 142.663 36.3798 142.316 20.9565C142.122 15.0459 138.875 4.84831 131.577 4.51008Z" fill="white"/>
<path d="M108.773 42.3664C104.215 42.3664 98.3806 41.5208 93.3241 38.2907C93.2547 38.2445 93.2002 38.1792 93.1672 38.1027C93.1342 38.0261 93.1241 37.9417 93.138 37.8595C93.1554 37.7791 93.1945 37.7049 93.2512 37.6453C93.3079 37.5856 93.3799 37.5427 93.4594 37.5213L96.774 36.7518C94.2509 36.322 91.8708 35.2829 89.8403 33.7246C89.7693 33.6714 89.7169 33.5972 89.6904 33.5125C89.6639 33.4278 89.6648 33.3369 89.6929 33.2527C89.7209 33.1685 89.7748 33.0953 89.8468 33.0434C89.9187 32.9915 90.0052 32.9636 90.094 32.9636C91.8302 32.9352 93.5066 32.3248 94.8546 31.2302C92.6478 31.6878 90.3874 31.8301 88.1407 31.653C88.0455 31.6443 87.9561 31.6036 87.887 31.5376C87.8179 31.4716 87.7732 31.3841 87.7602 31.2894C87.7447 31.1936 87.7633 31.0955 87.8128 31.0121C87.8622 30.9286 87.9394 30.8652 88.0308 30.8328C89.5423 30.2512 90.8798 29.2924 91.9159 28.0476C92.952 26.8028 93.6522 25.3135 93.9498 23.7215C94.1532 22.2016 94.1702 20.6625 94.0005 19.1385C93.8684 17.7323 93.8684 16.3168 94.0005 14.9106C94.3851 12.2419 95.51 9.73434 97.2475 7.6725C100.02 4.23164 103.899 1.85701 108.224 0.952167C112.55 0.047324 117.055 0.668094 120.974 2.70898C121.695 3.10236 122.379 3.55788 123.021 4.07035C124.39 5.11041 125.473 5.93062 127.249 5.31335C127.629 5.17806 127.984 5.02585 128.331 4.88211C129.363 4.35799 130.505 4.08836 131.662 4.09572C138.985 4.41704 142.655 14.3441 142.773 20.9565C142.925 27.9663 139.095 33.4879 131.383 37.3522C123.672 41.2164 114.472 42.1127 110.878 42.2988C110.168 42.3495 109.483 42.3664 108.773 42.3664ZM94.6516 38.1385C100.114 41.3094 106.38 41.7322 110.768 41.5208C114.286 41.3348 123.283 40.4977 130.935 36.6588C138.334 32.9552 142.004 27.7042 141.86 21.041C141.716 14.75 138.342 5.30489 131.561 4.97512C130.529 4.98232 129.514 5.22833 128.593 5.69386C128.229 5.84606 127.857 6.00672 127.46 6.14201C125.27 6.91149 123.9 5.87143 122.454 4.77218C121.853 4.29078 121.211 3.8635 120.535 3.49536C116.789 1.54131 112.482 0.94607 108.347 1.81101C104.212 2.67595 100.505 4.94759 97.8563 8.23904C96.2247 10.165 95.1619 12.5074 94.7869 15.0036C94.6601 16.3508 94.6601 17.7068 94.7869 19.0539C94.9588 20.6461 94.9361 22.2532 94.7193 23.8399C94.4521 25.2884 93.8786 26.6631 93.0372 27.872C92.1958 29.0809 91.1058 30.0961 89.8403 30.8497C91.9488 30.847 94.0475 30.5626 96.0806 30.0041C96.1682 29.9787 96.2615 29.9823 96.3469 30.0143C96.4322 30.0463 96.5049 30.105 96.5542 30.1817C96.6059 30.2546 96.6336 30.3418 96.6336 30.4311C96.6336 30.5205 96.6059 30.6077 96.5542 30.6806C95.2159 32.2728 93.3487 33.3294 91.2947 33.657C93.7402 35.2516 96.6028 36.0871 99.5221 36.0584C99.6265 36.0558 99.7281 36.0926 99.8064 36.1616C99.8848 36.2306 99.9343 36.3266 99.9449 36.4305C99.9582 36.534 99.9327 36.6387 99.8734 36.7246C99.8141 36.8105 99.7251 36.8714 99.6236 36.8955L94.6516 38.1385Z" fill="#231F20"/>
<path d="M117.026 51.811L117.872 66.3718C117.872 66.3718 124.526 73.982 133.092 69.3059C141.658 64.6299 141.328 57.2142 141.328 57.2142L135.705 29.8768C135.705 29.8768 127.934 28.0842 125.955 12.7793C119.327 18.028 111.404 21.3904 103.023 22.5119C103.023 22.5119 103.176 39.6347 106.194 46.4416C109.213 53.2485 117.026 51.811 117.026 51.811Z" fill="white"/>
<path d="M127.469 71.2418C121.651 71.2418 117.601 66.718 117.55 66.6504C117.488 66.5805 117.452 66.4906 117.449 66.3967L116.603 52.2841C114.819 52.4616 108.46 52.6307 105.78 46.5849C102.761 39.8203 102.584 23.1879 102.575 22.486C102.576 22.3839 102.613 22.2854 102.679 22.208C102.746 22.1305 102.838 22.0793 102.939 22.0632C111.231 20.9327 119.071 17.611 125.651 12.4406C125.709 12.3898 125.78 12.3558 125.856 12.3424C125.932 12.329 126.01 12.3366 126.082 12.3645C126.153 12.392 126.215 12.4378 126.263 12.4972C126.311 12.5566 126.341 12.6275 126.353 12.7027C127.351 20.4482 129.87 24.5831 131.807 26.697C132.853 27.9597 134.229 28.908 135.781 29.4366C135.859 29.457 135.929 29.4987 135.984 29.557C136.04 29.6152 136.077 29.6878 136.094 29.7664L141.725 57.1292C141.725 57.2729 141.979 64.9254 133.27 69.6775C131.5 70.6821 129.504 71.2204 127.469 71.2418ZM118.278 66.1684C119.123 67.0901 125.177 73.1275 132.897 68.908C141.116 64.4096 140.914 57.2645 140.914 57.1968L135.341 30.1385C133.938 29.6734 127.579 26.8661 125.642 13.506C119.142 18.4159 111.513 21.6143 103.455 22.8073C103.455 25.3441 103.877 40.1078 106.575 46.2044C109.424 52.6138 116.646 51.4047 116.95 51.3539C117.009 51.3425 117.069 51.3434 117.127 51.3565C117.185 51.3696 117.24 51.3946 117.288 51.43C117.334 51.469 117.372 51.5167 117.4 51.5704C117.427 51.6241 117.444 51.6827 117.449 51.7429L118.278 66.1684Z" fill="#231F20"/>
<path d="M132.534 37.5384C134.52 37.8376 136.545 37.3391 138.165 36.1517C139.26 35.2851 140.113 34.1519 140.643 32.8607C141.173 31.5695 141.362 30.1637 141.193 28.7783C141.141 27.7428 140.851 26.7331 140.347 25.8272C140.1 25.3741 139.759 24.9795 139.346 24.6702C138.933 24.3609 138.458 24.1441 137.954 24.0346C136.705 23.9569 135.465 24.2863 134.419 24.9732C132.779 25.8188 132.728 26.7573 131.832 28.1441C131.934 28.0172 132.01 27.6621 132.111 27.5353" fill="white"/>
<path d="M133.666 38.0556C133.264 38.054 132.863 38.0229 132.465 37.9625C132.354 37.9438 132.254 37.8819 132.187 37.7901C132.121 37.6984 132.093 37.5841 132.11 37.4721C132.118 37.4174 132.138 37.3648 132.166 37.3176C132.195 37.2704 132.233 37.2294 132.278 37.1971C132.323 37.1647 132.374 37.1418 132.428 37.1295C132.482 37.1172 132.538 37.1158 132.592 37.1254C134.466 37.4011 136.372 36.9238 137.894 35.7979C138.93 34.9736 139.736 33.8965 140.235 32.6703C140.735 31.4441 140.91 30.11 140.744 28.7965C140.71 27.8264 140.452 26.8772 139.991 26.023C139.773 25.6272 139.473 25.2823 139.112 25.0111C138.75 24.74 138.335 24.5488 137.894 24.4503C136.845 24.2642 135.797 24.7462 134.63 25.3466C133.828 25.7366 133.201 26.4121 132.871 27.2407C132.694 27.562 132.499 27.9256 132.237 28.323C132.22 28.3573 132.197 28.3887 132.169 28.416C132.101 28.5001 132.003 28.5543 131.896 28.5669C131.788 28.5796 131.68 28.5497 131.594 28.4837C131.505 28.4206 131.444 28.3248 131.425 28.2171C131.406 28.1094 131.431 27.9985 131.493 27.9087C131.493 27.9087 131.493 27.7987 131.552 27.7396C131.602 27.5865 131.673 27.4413 131.764 27.3083C131.807 27.2571 131.862 27.2166 131.924 27.1899L132.085 26.8855C132.503 25.9046 133.259 25.1064 134.216 24.6363C135.214 24.1205 136.592 23.4102 138.004 23.6554C138.578 23.7694 139.12 24.0069 139.594 24.3515C140.067 24.6961 140.459 25.1395 140.744 25.651C141.262 26.6181 141.551 27.6914 141.589 28.7881C141.768 30.2438 141.567 31.721 141.007 33.0765C140.447 34.432 139.547 35.6199 138.393 36.5251C137.02 37.5245 135.364 38.0606 133.666 38.0556Z" fill="#231F20"/>
<path d="M117.465 59.4722C119.13 59.3524 120.741 58.8276 122.157 57.9433C123.574 57.0591 124.752 55.8423 125.591 54.3987C128.576 49.4183 127.384 46.2305 127.384 46.2305C127.384 46.2305 123.359 51.3631 117.025 51.7774L117.465 59.4722Z" fill="#231F20"/>
<path d="M117.466 59.8875C117.359 59.8876 117.256 59.8463 117.179 59.7722C117.101 59.6981 117.056 59.597 117.051 59.4901L116.603 51.8799C116.6 51.8244 116.607 51.7687 116.626 51.7161C116.644 51.6635 116.672 51.615 116.709 51.5733C116.746 51.5317 116.791 51.4978 116.841 51.4735C116.891 51.4492 116.945 51.435 117.001 51.4318C123.064 51.0428 127.012 46.1047 127.055 46.0539C127.101 45.9941 127.162 45.9477 127.231 45.9195C127.301 45.8912 127.377 45.8822 127.452 45.8933C127.526 45.9059 127.595 45.9375 127.653 45.9849C127.711 46.0324 127.755 46.094 127.782 46.1638C127.833 46.2991 129.008 49.5969 125.947 54.6957C125.076 56.1954 123.848 57.4574 122.374 58.3703C120.899 59.2831 119.222 59.8187 117.491 59.9298L117.466 59.8875ZM117.466 52.1928L117.863 59.0166C119.374 58.8305 120.821 58.3008 122.095 57.4683C123.369 56.6357 124.435 55.5224 125.211 54.2137C127.232 50.8314 127.283 48.3623 127.131 47.1785C124.599 49.9344 121.177 51.7098 117.466 52.1928Z" fill="#231F20"/>
<path d="M115.909 28.668C115.909 28.668 112.738 37.0222 114.176 38.02C115.613 39.0178 118.649 37.4281 118.649 37.4281" fill="white"/>
<path d="M115.427 38.7723C114.898 38.7966 114.375 38.6547 113.931 38.3665C112.341 37.2672 114.776 30.5534 115.503 28.5155C115.543 28.4117 115.622 28.3277 115.724 28.2818C115.825 28.2359 115.94 28.2318 116.045 28.2703C116.097 28.29 116.145 28.3199 116.186 28.3583C116.227 28.3966 116.259 28.4427 116.282 28.4939C116.305 28.545 116.317 28.6001 116.319 28.6561C116.32 28.7121 116.31 28.7678 116.29 28.8199C114.819 32.7011 113.753 37.1911 114.413 37.6646C115.419 38.358 117.668 37.4617 118.446 37.0558C118.546 37.0046 118.662 36.9946 118.77 37.0277C118.877 37.0609 118.967 37.1347 119.021 37.2334C119.071 37.3332 119.08 37.4489 119.045 37.555C119.01 37.6612 118.935 37.7492 118.835 37.7999C117.782 38.364 116.62 38.6956 115.427 38.7723Z" fill="#231F20"/>
<path d="M122.146 28.457C122.79 28.2487 123.074 27.3414 122.779 26.4305C122.485 25.5195 121.724 24.9499 121.08 25.1581C120.435 25.3663 120.152 26.2736 120.446 27.1846C120.741 28.0955 121.502 28.6652 122.146 28.457Z" fill="#231F20"/>
<path d="M110.316 31.2233C110.993 31.2141 111.532 30.4306 111.518 29.4733C111.505 28.5161 110.946 27.7475 110.269 27.7567C109.592 27.766 109.054 28.5494 109.067 29.5067C109.08 30.464 109.639 31.2325 110.316 31.2233Z" fill="#231F20"/>
<path d="M116.915 48.7508C116.103 48.772 115.305 48.5384 114.632 48.0828C111.969 46.138 111.774 41.8425 111.766 41.6564C111.763 41.5565 111.796 41.4588 111.858 41.3802C111.919 41.3015 112.006 41.2467 112.104 41.2252C123.046 38.8322 123.164 38.9168 123.359 39.0605C123.407 39.097 123.447 39.1427 123.478 39.1949C123.508 39.2472 123.528 39.305 123.536 39.3649C123.705 41.0697 123.471 42.7904 122.851 44.3876C122.479 45.3668 121.888 46.2485 121.125 46.9663C120.362 47.6841 119.446 48.2191 118.446 48.531C117.948 48.6748 117.433 48.7488 116.915 48.7508ZM112.645 41.9862C112.747 43.0094 113.203 46.0027 115.114 47.3894C115.569 47.6687 116.08 47.8439 116.611 47.9024C117.142 47.9608 117.679 47.9012 118.184 47.7277C119.065 47.4533 119.873 46.9829 120.547 46.3517C121.22 45.7205 121.742 44.945 122.073 44.0832C122.597 42.7386 122.816 41.2948 122.716 39.8554C121.262 40.1175 116.129 41.2167 112.645 41.9778V41.9862Z" fill="#231F20"/>
<path d="M122.463 44.2525C120.839 48.176 116.772 49.1146 114.853 47.7532C115.284 46.2565 116.07 44.7007 117.533 44.1341C119.138 43.5866 120.886 43.6286 122.463 44.2525Z" fill="#231F20"/>
<path d="M116.915 48.7433C116.104 48.7659 115.306 48.5353 114.632 48.0837C114.563 48.033 114.51 47.9617 114.483 47.8798C114.456 47.798 114.455 47.7096 114.48 47.6271C115.055 45.5639 116.044 44.2448 117.406 43.729C119.098 43.1538 120.939 43.1927 122.606 43.839C122.66 43.8587 122.71 43.8891 122.752 43.9283C122.794 43.9675 122.828 44.0148 122.851 44.0673C122.893 44.1732 122.893 44.2911 122.851 44.397C122.477 45.374 121.886 46.2535 121.123 46.9696C120.36 47.6856 119.445 48.2198 118.446 48.5319C117.948 48.6726 117.433 48.7437 116.915 48.7433ZM115.376 47.551C116.256 47.9664 117.261 48.027 118.184 47.7201C118.994 47.4725 119.742 47.0568 120.38 46.5002C121.018 45.9436 121.532 45.2586 121.887 44.4901C120.532 44.0393 119.066 44.0393 117.71 44.4901C116.67 44.9128 115.909 45.9444 115.376 47.551Z" fill="#231F20"/>
<path d="M102.626 35.4157C102.047 35.4155 101.486 35.2175 101.035 34.8545C100.585 34.4915 100.272 33.9854 100.148 33.4201L99.2604 29.3867C99.1171 28.7297 99.2406 28.0426 99.6037 27.4765C99.9668 26.9104 100.54 26.5117 101.197 26.368L110.625 24.2964C110.951 24.2242 111.288 24.217 111.617 24.2753C111.945 24.3336 112.259 24.4562 112.541 24.6361C112.822 24.816 113.065 25.0496 113.255 25.3236C113.446 25.5976 113.581 25.9065 113.652 26.2327L114.498 30.2661C114.635 30.9147 114.512 31.5911 114.156 32.1505C113.801 32.71 113.24 33.108 112.595 33.2595L103.167 35.3227C102.991 35.3746 102.809 35.4058 102.626 35.4157ZM111.175 25.1166C111.054 25.1041 110.932 25.1041 110.811 25.1166L101.391 27.1798C100.961 27.2789 100.587 27.5422 100.348 27.9135C100.11 28.2847 100.026 28.7346 100.114 29.1669L101.002 33.2595C101.103 33.6861 101.366 34.0569 101.735 34.2935C102.104 34.5302 102.551 34.6142 102.981 34.5278L112.409 32.4139C112.836 32.3128 113.207 32.05 113.443 31.6809C113.68 31.3117 113.764 30.8651 113.677 30.4352L112.832 26.4018C112.747 26.0333 112.541 25.7039 112.246 25.4663C111.952 25.2287 111.587 25.0966 111.208 25.0912L111.175 25.1166Z" fill="#231F20"/>
<path d="M119.427 31.7379C118.941 31.7367 118.465 31.5958 118.057 31.3321C117.492 30.9696 117.094 30.398 116.949 29.7424L116.104 25.709C115.959 25.0523 116.08 24.365 116.442 23.798C116.621 23.5158 116.855 23.2718 117.129 23.0803C117.404 22.8887 117.713 22.7533 118.04 22.6818L127.46 20.6186C127.786 20.5464 128.123 20.5393 128.451 20.5976C128.78 20.6559 129.094 20.7785 129.375 20.9584C129.656 21.1383 129.899 21.3719 130.09 21.6459C130.281 21.9199 130.416 22.2288 130.487 22.555L131.332 26.5884C131.479 27.2408 131.363 27.9248 131.008 28.4917C130.654 29.0586 130.089 29.4625 129.438 29.6155L120.019 31.6787C119.824 31.7173 119.625 31.7371 119.427 31.7379ZM127.976 21.4219C127.853 21.4235 127.731 21.4376 127.612 21.4642L118.192 23.5359C117.978 23.5809 117.774 23.6684 117.594 23.7933C117.414 23.9182 117.261 24.078 117.144 24.2631C116.905 24.6369 116.823 25.0893 116.915 25.523L117.803 29.5564C117.904 29.983 118.167 30.3538 118.536 30.5904C118.905 30.8271 119.352 30.9111 119.782 30.8247L129.21 28.7615C129.641 28.6653 130.017 28.4043 130.259 28.0343C130.494 27.6593 130.573 27.207 130.478 26.7744L129.633 22.741C129.548 22.3653 129.338 22.0297 129.036 21.7899C128.735 21.55 128.361 21.4202 127.976 21.4219Z" fill="#231F20"/>
<path d="M113.221 26.7644C113.144 26.766 113.067 26.7455 113.001 26.7052C112.902 26.6469 112.831 26.5524 112.801 26.4419C112.771 26.3313 112.785 26.2134 112.84 26.1133C113.238 25.4283 114.532 24.3545 116.654 25.2085C116.766 25.2511 116.857 25.3365 116.906 25.4459C116.955 25.5554 116.959 25.6798 116.916 25.7919C116.873 25.9041 116.788 25.9947 116.679 26.0438C116.569 26.093 116.445 26.0967 116.333 26.0541C114.439 25.2931 113.678 26.4515 113.601 26.5868C113.557 26.6452 113.5 26.6919 113.433 26.7229C113.367 26.7538 113.294 26.7681 113.221 26.7644Z" fill="#231F20"/>
<path d="M28.9844 139.33H202.834L230.73 190.276H1.08887L28.9844 139.33Z" fill="white"/>
<path d="M230.73 190.698H1.08864C1.01583 190.697 0.944309 190.679 0.880731 190.643C0.817153 190.608 0.763592 190.557 0.725047 190.495C0.68952 190.43 0.670898 190.357 0.670898 190.283C0.670898 190.209 0.68952 190.137 0.725047 190.072L28.629 139.126C28.6648 139.059 28.7184 139.003 28.7841 138.964C28.8497 138.925 28.9248 138.905 29.001 138.906H202.826C202.902 138.905 202.977 138.925 203.043 138.964C203.108 139.003 203.162 139.059 203.198 139.126L231.102 190.072C231.137 190.137 231.156 190.209 231.156 190.283C231.156 190.357 231.137 190.43 231.102 190.495C231.062 190.558 231.008 190.61 230.942 190.645C230.877 190.681 230.804 190.699 230.73 190.698ZM1.80738 189.852H230.011L202.581 139.752H29.2378L1.80738 189.852Z" fill="#D1D3D4"/>
<path d="M31.6816 106.462L32.0537 104.855C32.8993 103.248 33.8379 102.166 36.0194 102.166H118.776C119.776 102.168 120.749 102.493 121.549 103.094C122.35 103.694 122.934 104.537 123.215 105.498L136.668 151.717C137.015 152.708 136.972 153.794 136.546 154.754C136.12 155.714 135.344 156.475 134.377 156.883L132.914 157.23L31.6816 106.462Z" fill="white"/>
<path d="M132.913 157.651C132.849 157.649 132.786 157.635 132.727 157.609L31.4951 106.823C31.4097 106.782 31.3412 106.712 31.3012 106.626C31.2612 106.539 31.252 106.442 31.2753 106.35L31.6473 104.743C31.6436 104.707 31.6436 104.67 31.6473 104.633C32.4929 103.103 33.4653 101.725 35.9851 101.725H118.741C119.833 101.729 120.893 102.085 121.766 102.74C122.639 103.395 123.277 104.314 123.587 105.361L137.048 151.639C137.426 152.731 137.374 153.926 136.903 154.982C136.432 156.037 135.577 156.873 134.511 157.321L132.998 157.685L132.913 157.651ZM32.1969 106.232L132.998 156.78L134.308 156.476C136.346 155.681 136.769 153.508 136.287 151.833L122.834 105.614C122.576 104.743 122.045 103.979 121.318 103.433C120.592 102.888 119.709 102.591 118.801 102.587H36.0189C34.1502 102.587 33.3469 103.433 32.4506 105.005L32.1969 106.232Z" fill="#231F20"/>
<path d="M132.914 157.228H48.4665C47.8927 157.222 47.3362 157.031 46.8793 156.684C46.4224 156.337 46.0895 155.852 45.9297 155.3L31.7156 106.46C31.662 106.273 31.6526 106.075 31.6881 105.884C31.7236 105.692 31.8031 105.511 31.9202 105.356C32.0374 105.2 32.1892 105.074 32.3635 104.987C32.5378 104.899 32.7299 104.854 32.9248 104.854H119.63L134.318 155.36C134.382 155.577 134.395 155.807 134.355 156.031C134.315 156.255 134.223 156.466 134.086 156.648C133.95 156.829 133.773 156.976 133.569 157.077C133.366 157.178 133.141 157.23 132.914 157.228Z" fill="#231F20"/>
<path d="M132.913 157.652H48.4658C47.7958 157.648 47.1446 157.43 46.6085 157.028C46.0725 156.625 45.6801 156.062 45.4894 155.419L31.2753 106.579C31.2067 106.329 31.1963 106.067 31.245 105.813C31.2937 105.558 31.4002 105.318 31.5563 105.112C31.7123 104.905 31.9138 104.737 32.1451 104.62C32.3764 104.504 32.6314 104.442 32.8904 104.44H119.629C119.719 104.438 119.807 104.466 119.878 104.52C119.95 104.573 120.003 104.649 120.027 104.735L134.723 155.242C134.804 155.522 134.819 155.818 134.766 156.106C134.714 156.393 134.595 156.664 134.419 156.898C134.244 157.132 134.017 157.322 133.755 157.452C133.494 157.583 133.206 157.651 132.913 157.652ZM32.8904 105.277C32.7617 105.279 32.6352 105.31 32.5205 105.368C32.4057 105.427 32.3058 105.51 32.2284 105.613C32.1509 105.716 32.0979 105.835 32.0734 105.961C32.0489 106.088 32.0536 106.218 32.0871 106.342L46.2927 155.182C46.4326 155.651 46.7194 156.061 47.1108 156.354C47.5022 156.646 47.9773 156.805 48.4658 156.806H132.913C133.077 156.807 133.238 156.77 133.385 156.698C133.532 156.626 133.66 156.521 133.759 156.392C133.855 156.262 133.919 156.112 133.947 155.954C133.975 155.795 133.965 155.633 133.92 155.478L119.291 105.277H32.8904Z" fill="#231F20"/>
<path d="M118.751 136.42L113.618 158.244C113.346 159.412 112.687 160.454 111.747 161.199C110.807 161.944 109.642 162.348 108.443 162.345H55.0282C54.2264 162.345 53.4351 162.163 52.7134 161.814C51.9918 161.465 51.3584 160.957 50.8607 160.328C50.363 159.699 50.0139 158.966 49.8395 158.184C49.665 157.401 49.6697 156.589 49.8533 155.809L54.3771 136.42H49.9548L45.6254 154.811C45.2986 156.227 45.2954 157.699 45.6161 159.117C45.9367 160.534 46.5729 161.861 47.4774 162.999C48.3819 164.136 49.5312 165.056 50.84 165.688C52.1488 166.32 53.5833 166.648 55.0366 166.649H108.485C110.651 166.648 112.753 165.917 114.453 164.575C116.153 163.232 117.351 161.357 117.854 159.25L123.215 136.42H118.751Z" fill="white"/>
<path d="M108.442 167.131H55.0272C53.5064 167.13 52.0054 166.786 50.6365 166.124C49.2676 165.461 48.0661 164.498 47.122 163.306C46.1778 162.114 45.5154 160.724 45.1843 159.239C44.8533 157.755 44.8621 156.215 45.2101 154.735L49.5309 136.335C49.5538 136.243 49.6071 136.161 49.6823 136.102C49.7575 136.044 49.8501 136.013 49.9453 136.014H54.4099C54.4733 136.015 54.5357 136.029 54.5927 136.057C54.6497 136.085 54.6999 136.125 54.7397 136.174C54.7785 136.224 54.8055 136.282 54.8187 136.343C54.8319 136.405 54.8309 136.468 54.8158 136.529L50.2581 155.918C50.0901 156.637 50.0866 157.385 50.2478 158.106C50.4091 158.826 50.7309 159.501 51.1894 160.08C51.6479 160.659 52.2312 161.126 52.8957 161.448C53.5602 161.77 54.2888 161.938 55.0272 161.939H108.476C109.581 161.941 110.654 161.568 111.52 160.882C112.387 160.195 112.994 159.236 113.245 158.159L118.378 136.335C118.399 136.243 118.45 136.162 118.524 136.103C118.598 136.045 118.689 136.013 118.783 136.014H123.248C123.311 136.015 123.373 136.03 123.43 136.058C123.486 136.086 123.536 136.126 123.576 136.175C123.615 136.224 123.644 136.281 123.659 136.343C123.673 136.404 123.675 136.468 123.662 136.529L118.293 159.36C117.777 161.581 116.52 163.56 114.73 164.973C112.94 166.385 110.722 167.146 108.442 167.131ZM50.2412 136.859L46.0134 154.929C45.6926 156.287 45.6838 157.7 45.9876 159.062C46.2915 160.424 46.9 161.699 47.7675 162.792C48.635 163.885 49.7389 164.767 50.9963 165.372C52.2537 165.977 53.6318 166.289 55.0272 166.285H108.476C110.561 166.291 112.587 165.589 114.221 164.295C115.855 163 117.002 161.188 117.473 159.157L122.715 136.859H119.122L114.048 158.354C113.758 159.617 113.047 160.744 112.031 161.55C111.015 162.355 109.755 162.791 108.459 162.785H55.0272C54.1609 162.785 53.3058 162.589 52.526 162.212C51.7462 161.835 51.0618 161.286 50.5241 160.607C49.9865 159.928 49.6094 159.135 49.4213 158.29C49.2332 157.444 49.2389 156.567 49.4379 155.724L53.8687 136.859H50.2412Z" fill="#231F20"/>
<path d="M187.631 91.916C187.631 91.916 195.19 125.485 189 134.059C182.811 142.634 139.585 141.281 139.585 141.281C139.585 141.281 132.575 149.694 126.487 149.136C120.399 148.578 123.95 137.061 131.112 132.267L130.123 128.267L168.233 122.154L163.16 98.0295" fill="white"/>
<path d="M127.046 149.586C126.838 149.586 126.626 149.586 126.412 149.586C125.624 149.547 124.871 149.247 124.272 148.735C123.672 148.222 123.259 147.526 123.097 146.753C122.142 143.008 125.203 135.862 130.589 132.108L129.676 128.396C129.661 128.341 129.658 128.283 129.667 128.226C129.675 128.169 129.696 128.115 129.727 128.066C129.758 128.017 129.801 127.974 129.85 127.942C129.9 127.91 129.956 127.889 130.014 127.88L167.684 121.834L162.696 98.1583C162.684 98.1039 162.684 98.0478 162.695 97.9933C162.705 97.9388 162.726 97.8869 162.757 97.8405C162.788 97.7942 162.827 97.7544 162.873 97.7233C162.919 97.6922 162.971 97.6705 163.025 97.6594C163.079 97.647 163.135 97.6455 163.189 97.6551C163.244 97.6646 163.296 97.6849 163.342 97.7149C163.389 97.7448 163.429 97.7838 163.46 97.8294C163.491 97.8751 163.513 97.9265 163.524 97.9807L168.598 122.105C168.61 122.162 168.61 122.22 168.599 122.277C168.587 122.334 168.564 122.388 168.53 122.435C168.498 122.482 168.457 122.522 168.409 122.553C168.361 122.583 168.307 122.603 168.251 122.612L130.598 128.658L131.443 132.21C131.465 132.293 131.46 132.38 131.43 132.461C131.4 132.541 131.345 132.61 131.274 132.658C126.099 136.125 122.996 143.101 123.884 146.567C123.998 147.165 124.31 147.707 124.771 148.104C125.231 148.502 125.813 148.732 126.42 148.757C132.213 149.299 139.104 141.147 139.155 141.054C139.196 141.005 139.248 140.965 139.306 140.939C139.365 140.913 139.429 140.9 139.493 140.902C139.924 140.902 182.617 142.145 188.587 133.85C194.557 125.555 187.234 92.4168 187.158 92.0533C187.146 91.9977 187.145 91.9404 187.155 91.8844C187.165 91.8284 187.185 91.7749 187.216 91.7271C187.247 91.6792 187.286 91.6378 187.333 91.6052C187.38 91.5727 187.432 91.5497 187.488 91.5375C187.543 91.5252 187.601 91.5241 187.657 91.534C187.713 91.544 187.766 91.5649 187.814 91.5955C187.862 91.6261 187.903 91.6659 187.936 91.7125C187.968 91.7591 187.991 91.8117 188.004 91.8672C188.316 93.2455 195.529 125.69 189.297 134.349C183.209 142.805 143.306 141.858 139.696 141.748C138.74 142.864 132.711 149.586 127.046 149.586Z" fill="#231F20"/>
<path d="M142.283 75.294C142.217 75.293 142.153 75.2756 142.097 75.2433C142.045 75.2198 141.998 75.186 141.96 75.144C141.921 75.102 141.892 75.0527 141.873 74.999C141.854 74.9453 141.846 74.8884 141.849 74.8315C141.853 74.7747 141.868 74.7192 141.894 74.6683C148.033 61.9847 163.794 53.4528 163.955 53.3683C164.004 53.3405 164.059 53.323 164.116 53.3169C164.173 53.3108 164.23 53.3162 164.284 53.3328C164.339 53.3494 164.389 53.3768 164.433 53.4134C164.477 53.45 164.512 53.4951 164.538 53.5459C164.566 53.5962 164.584 53.6517 164.59 53.7089C164.596 53.7662 164.591 53.8241 164.574 53.8793C164.558 53.9345 164.53 53.9858 164.494 54.0301C164.457 54.0745 164.412 54.1111 164.361 54.1378C164.208 54.2223 148.692 62.5935 142.68 75.0488C142.643 75.1223 142.586 75.184 142.516 75.2273C142.446 75.2705 142.365 75.2936 142.283 75.294Z" fill="#231F20"/>
<path d="M116.222 74.6924C116.161 74.7052 116.098 74.7052 116.036 74.6924C101.306 67.9278 99.5221 53.0626 99.5052 52.9189C99.4934 52.8035 99.5276 52.6881 99.6005 52.5978C99.6733 52.5075 99.7789 52.4497 99.8942 52.4369C99.9509 52.4298 100.008 52.4341 100.063 52.4495C100.118 52.4648 100.17 52.491 100.215 52.5264C100.26 52.5618 100.297 52.6057 100.325 52.6557C100.352 52.7057 100.37 52.7606 100.376 52.8174C100.376 52.9612 102.135 67.3444 116.442 73.8215C116.547 73.8695 116.628 73.9566 116.669 74.0641C116.711 74.1716 116.708 74.2909 116.662 74.3965C116.63 74.4861 116.57 74.5632 116.491 74.6164C116.411 74.6696 116.317 74.6963 116.222 74.6924Z" fill="#231F20"/>
<path d="M49.109 93.8616C49.0171 93.8354 48.9363 93.7799 48.8787 93.7036C48.8212 93.6273 48.79 93.5344 48.79 93.4388C48.79 93.3433 48.8212 93.2503 48.8787 93.174C48.9363 93.0977 49.0171 93.0423 49.109 93.016C55.4846 92.8215 58.5794 89.2194 58.6132 89.1856C58.6492 89.1416 58.6935 89.1051 58.7437 89.0783C58.7938 89.0515 58.8487 89.0349 58.9053 89.0294C58.9619 89.0239 59.019 89.0296 59.0734 89.0463C59.1277 89.0629 59.1782 89.0901 59.222 89.1264C59.3115 89.2006 59.3679 89.3072 59.379 89.4228C59.3901 89.5385 59.3549 89.6538 59.2812 89.7437C59.1459 89.9043 55.8989 93.684 49.1343 93.887L49.109 93.8616Z" fill="#231F20"/>
<path d="M163.109 98.4626C163.012 98.4635 162.917 98.4313 162.84 98.3714C162.764 98.3116 162.709 98.2275 162.686 98.1329C162.686 97.9806 158.704 82.3967 158.154 73.0531C158.151 72.9965 158.158 72.9397 158.177 72.8861C158.196 72.8324 158.225 72.783 158.262 72.7406C158.3 72.6981 158.346 72.6636 158.397 72.6389C158.448 72.6141 158.503 72.5997 158.56 72.5965C158.675 72.5895 158.789 72.6282 158.876 72.7041C158.963 72.7801 159.016 72.8872 159.025 73.0024C159.575 82.2614 163.498 97.7608 163.532 97.9215C163.56 98.0336 163.543 98.1523 163.485 98.252C163.426 98.3517 163.331 98.4244 163.219 98.4542L163.109 98.4626Z" fill="#231F20"/>
<path d="M94.9561 101.242C94.8987 101.239 94.8424 101.225 94.7908 101.199C94.7391 101.174 94.693 101.139 94.6552 101.095C94.6173 101.052 94.5886 101.002 94.5705 100.947C94.5525 100.892 94.5456 100.835 94.5502 100.777L96.6472 67.9268C96.6504 67.8694 96.6651 67.8132 96.6903 67.7615C96.7156 67.7098 96.7509 67.6637 96.7943 67.6259C96.8376 67.588 96.888 67.5593 96.9427 67.5413C96.9973 67.5232 97.055 67.5163 97.1123 67.5209C97.1693 67.523 97.2254 67.5366 97.277 67.561C97.3287 67.5853 97.3748 67.6199 97.4128 67.6625C97.4507 67.7052 97.4796 67.7551 97.4977 67.8092C97.5158 67.8634 97.5228 67.9206 97.5182 67.9775L95.3873 100.828C95.3829 100.94 95.3356 101.045 95.2552 101.122C95.1748 101.199 95.0676 101.242 94.9561 101.242Z" fill="#231F20"/>
<path d="M169.824 82.8688C169.745 82.8697 169.668 82.8489 169.601 82.8086C169.534 82.7683 169.479 82.7101 169.443 82.6405L165.351 75.0303C165.305 74.9193 165.305 74.7947 165.351 74.6836C165.39 74.57 165.472 74.4761 165.579 74.4215L178.262 68.4264C178.314 68.4006 178.37 68.3855 178.428 68.3818C178.485 68.378 178.543 68.3859 178.597 68.4048C178.651 68.4237 178.701 68.4533 178.744 68.4919C178.787 68.5304 178.822 68.5772 178.846 68.6293C178.896 68.7337 178.902 68.8535 178.864 68.9627C178.826 69.0719 178.747 69.1617 178.643 69.2128L166.348 75.0134L170.052 81.8795L182.507 78.0744C182.563 78.0577 182.621 78.0522 182.679 78.058C182.736 78.0639 182.792 78.0811 182.843 78.1085C182.894 78.136 182.94 78.1733 182.976 78.2182C183.013 78.2631 183.04 78.3148 183.057 78.3703C183.074 78.4259 183.079 78.4841 183.073 78.5418C183.067 78.5995 183.05 78.6554 183.023 78.7064C182.995 78.7575 182.958 78.8026 182.913 78.8392C182.868 78.8759 182.816 78.9033 182.761 78.92L169.951 82.8772L169.824 82.8688Z" fill="#231F20"/>
<path d="M180.807 179.358C192.337 179.358 201.684 176.545 201.684 173.076C201.684 169.606 192.337 166.793 180.807 166.793C169.277 166.793 159.93 169.606 159.93 173.076C159.93 176.545 169.277 179.358 180.807 179.358Z" fill="white"/>
<path d="M180.807 179.78C168.867 179.78 159.507 176.837 159.507 173.075C159.507 169.312 168.867 166.369 180.807 166.369C192.746 166.369 202.107 169.312 202.107 173.075C202.107 176.837 192.746 179.78 180.807 179.78ZM180.807 167.215C168.571 167.215 160.352 170.242 160.352 173.075C160.352 175.907 168.571 178.934 180.807 178.934C193.042 178.934 201.261 175.907 201.261 173.075C201.261 170.242 193.042 167.215 180.807 167.215Z" fill="#D1D3D4"/>
<path d="M165.071 155.133L164.572 155.226C163.063 155.451 161.69 156.225 160.716 157.399C160.17 158.233 159.868 159.204 159.846 160.201C159.824 161.198 160.081 162.181 160.589 163.039C162.804 167.03 168.199 168.112 172.359 168.527C172.948 168.622 173.551 168.576 174.118 168.391C174.398 168.296 174.642 168.116 174.816 167.877C174.99 167.638 175.086 167.351 175.091 167.055C175.055 166.812 174.959 166.582 174.811 166.385C174.663 166.189 174.469 166.033 174.245 165.931C173.809 165.729 173.344 165.597 172.867 165.542C170.279 165.119 167.557 164.806 165.189 163.614C163.811 162.912 161.883 161.314 162.889 159.589C163.241 159.043 163.747 158.613 164.343 158.354C166.719 157.221 168.977 158.084 171.319 158.777C171.49 158.84 171.671 158.865 171.852 158.853C172.076 158.792 172.269 158.65 172.396 158.455C172.522 158.26 172.572 158.026 172.537 157.796C172.461 156.773 171.438 156.105 170.474 155.725C168.752 155.071 166.893 154.867 165.071 155.133Z" fill="white"/>
<path d="M173.062 168.989C172.816 168.989 172.571 168.974 172.327 168.947C165.976 168.347 162.019 166.487 160.218 163.24C159.669 162.311 159.394 161.246 159.422 160.168C159.45 159.09 159.782 158.041 160.379 157.143C161.416 155.887 162.878 155.057 164.488 154.809L165.012 154.716C166.917 154.432 168.863 154.645 170.661 155.333C171.506 155.646 172.885 156.382 172.995 157.76C173.037 158.097 172.954 158.438 172.76 158.718C172.567 158.997 172.277 159.195 171.946 159.274C171.706 159.29 171.464 159.258 171.236 159.181L170.627 158.995C168.547 158.361 166.585 157.769 164.564 158.733C164.04 158.954 163.596 159.328 163.287 159.807C163.177 159.981 163.106 160.177 163.078 160.381C163.051 160.585 163.067 160.793 163.127 160.99C163.591 161.989 164.402 162.786 165.41 163.231C167.509 164.145 169.737 164.732 172.014 164.973L172.969 165.125C173.494 165.183 174.006 165.329 174.483 165.556C174.823 165.684 175.112 165.918 175.309 166.223C175.506 166.528 175.599 166.888 175.575 167.25C175.552 167.612 175.412 167.957 175.177 168.234C174.942 168.51 174.625 168.704 174.271 168.787C173.884 168.927 173.474 168.996 173.062 168.989ZM165.139 155.553L164.657 155.638C163.253 155.847 161.973 156.559 161.055 157.642C160.556 158.412 160.283 159.307 160.267 160.224C160.25 161.142 160.491 162.046 160.962 162.834C162.611 165.81 166.357 167.535 172.403 168.102C172.922 168.187 173.455 168.153 173.959 168C174.155 167.934 174.327 167.811 174.453 167.647C174.58 167.483 174.655 167.285 174.669 167.078C174.641 166.91 174.573 166.751 174.47 166.616C174.367 166.48 174.232 166.372 174.077 166.301C173.684 166.121 173.264 166.007 172.834 165.962L171.878 165.81C169.515 165.559 167.204 164.942 165.029 163.984C163.812 163.441 162.843 162.46 162.315 161.236C162.222 160.926 162.196 160.6 162.238 160.279C162.281 159.959 162.39 159.65 162.56 159.375C162.952 158.752 163.524 158.262 164.201 157.972C166.518 156.864 168.733 157.532 170.872 158.183L171.481 158.369C171.595 158.411 171.715 158.431 171.836 158.428C172.039 158.428 172.166 158.082 172.149 157.828C172.081 156.881 170.872 156.323 170.356 156.137C168.695 155.502 166.898 155.307 165.139 155.57V155.553Z" fill="#231F20"/>
<path d="M167.024 150.854C167.024 150.854 170.931 170.352 171.252 171.528C171.574 172.703 180.807 177.531 188.164 172.788L194.599 152.858L167.024 150.854Z" fill="white"/>
<path d="M180.968 175.266C178.758 175.248 176.569 174.83 174.508 174.032C172.884 173.406 171.041 172.391 170.838 171.639C170.525 170.463 166.771 151.742 166.61 150.939C166.595 150.875 166.595 150.809 166.611 150.746C166.626 150.683 166.657 150.624 166.7 150.575C166.743 150.526 166.797 150.488 166.858 150.465C166.919 150.441 166.985 150.433 167.05 150.44L194.624 152.486C194.688 152.489 194.751 152.507 194.807 152.539C194.863 152.57 194.911 152.615 194.948 152.668C194.984 152.721 195.007 152.782 195.015 152.846C195.024 152.91 195.017 152.975 194.996 153.036L188.561 172.966C188.53 173.058 188.467 173.136 188.384 173.186C186.168 174.588 183.59 175.311 180.968 175.266ZM167.549 151.319C168.183 154.49 171.379 170.379 171.658 171.419C171.776 171.698 173.299 172.831 175.996 173.651C178.533 174.421 183.386 175.291 187.834 172.518L194.057 153.247L167.549 151.319Z" fill="#231F20"/>
<path d="M194.664 151.99C194.8 148.686 188.725 145.755 181.096 145.442C173.467 145.128 167.173 147.553 167.037 150.856C166.902 154.16 172.977 157.092 180.606 157.405C188.234 157.718 194.529 155.294 194.664 151.99Z" fill="#231F20"/>
<path d="M181.923 157.854C181.475 157.854 181.027 157.854 180.579 157.854C172.588 157.532 166.449 154.471 166.601 150.869C166.754 147.267 173.121 144.73 181.103 145.06C189.085 145.39 195.224 148.442 195.072 152.044C195.004 153.82 193.381 155.427 190.582 156.475C187.802 157.451 184.869 157.918 181.923 157.854ZM179.801 145.838C173.095 145.838 167.557 148.036 167.439 150.911C167.32 153.922 173.358 156.721 180.613 157.016C183.906 157.208 187.206 156.746 190.32 155.655C192.772 154.717 194.209 153.372 194.269 151.977C194.395 148.958 188.35 146.159 181.103 145.863L179.801 145.838Z" fill="#231F20"/>
<path d="M147.763 96.6784H103.023C102.911 96.6784 102.804 96.6339 102.724 96.5546C102.645 96.4753 102.601 96.3678 102.601 96.2557V83.0478C102.603 82.9363 102.648 82.83 102.727 82.7512C102.806 82.6724 102.912 82.6272 103.023 82.625H147.763C147.875 82.625 147.982 82.6695 148.062 82.7488C148.141 82.8281 148.185 82.9357 148.185 83.0478V96.281C148.179 96.3887 148.132 96.4898 148.053 96.5637C147.974 96.6376 147.871 96.6786 147.763 96.6784ZM103.446 95.8329H147.34V83.4706H103.446V95.8329Z" fill="white"/>
<path d="M230.721 190.273H1.08887V199.127H230.721V190.273Z" fill="white"/>
<path d="M230.73 199.55H1.0888C0.976673 199.55 0.869135 199.506 0.789847 199.426C0.710559 199.347 0.666016 199.24 0.666016 199.128V190.274C0.66818 190.163 0.71342 190.057 0.792243 189.978C0.871067 189.899 0.97735 189.854 1.0888 189.852H230.73C230.841 189.854 230.948 189.899 231.026 189.978C231.105 190.057 231.15 190.163 231.153 190.274V199.128C231.153 199.24 231.108 199.347 231.029 199.426C230.95 199.506 230.842 199.55 230.73 199.55ZM1.51159 198.705H230.307V190.697H1.51159V198.705Z" fill="#D1D3D4"/>
<path d="M194.59 107.595C194.479 107.591 194.373 107.544 194.296 107.463C194.219 107.383 194.176 107.276 194.176 107.164C194.176 106.192 194.793 83.2681 197.321 75.3282C199.85 67.3882 204.593 64.0821 204.788 63.9552C204.881 63.8924 204.995 63.8692 205.105 63.8906C205.215 63.912 205.313 63.9763 205.375 64.0694C205.438 64.1624 205.461 64.2766 205.44 64.3868C205.419 64.4971 205.354 64.5942 205.261 64.657C205.211 64.657 200.585 67.8618 198.125 75.5819C195.664 83.302 195.03 106.944 195.021 107.181C195.02 107.236 195.008 107.291 194.986 107.342C194.964 107.393 194.932 107.439 194.892 107.477C194.852 107.516 194.804 107.546 194.753 107.566C194.701 107.587 194.646 107.596 194.59 107.595Z" fill="white"/>
</svg>
