<svg width="21" height="27" viewBox="0 0 21 27" fill="none" xmlns="http://www.w3.org/2000/svg">
<path d="M15.9266 7.47542V25.6772H0.325033V7.47542H15.9266Z" fill="white" stroke="black" stroke-width="0.650065"/>
<path d="M4.51483 16.0868V23.9124H2.02572V16.0868H4.51483Z" fill="white" stroke="black" stroke-width="0.650065"/>
<path d="M9.43231 12.9481V23.9129H6.9432V12.9481H9.43231Z" fill="white" stroke="black" stroke-width="0.650065"/>
<path d="M14.4553 14.0985V23.9123H11.9661V14.0985H14.4553Z" fill="white" stroke="black" stroke-width="0.650065"/>
<mask id="path-6-inside-1_493_14672" fill="white">
<path fill-rule="evenodd" clip-rule="evenodd" d="M15.9564 5.10092C18.4165 7.56099 18.4165 11.5496 15.9564 14.0096C15.9512 14.0148 15.946 14.02 15.9408 14.0252L18.0924 16.1769C18.2409 16.3253 18.2409 16.566 18.0924 16.7145C17.944 16.8629 17.7033 16.8629 17.5548 16.7145L15.3692 14.5288C12.8978 16.4554 9.32044 16.2824 7.04769 14.0096C4.58762 11.5496 4.58762 7.56099 7.04769 5.10092C9.50777 2.64084 13.4963 2.64084 15.9564 5.10092Z"/>
</mask>
<path fill-rule="evenodd" clip-rule="evenodd" d="M15.9564 5.10092C18.4165 7.56099 18.4165 11.5496 15.9564 14.0096C15.9512 14.0148 15.946 14.02 15.9408 14.0252L18.0924 16.1769C18.2409 16.3253 18.2409 16.566 18.0924 16.7145C17.944 16.8629 17.7033 16.8629 17.5548 16.7145L15.3692 14.5288C12.8978 16.4554 9.32044 16.2824 7.04769 14.0096C4.58762 11.5496 4.58762 7.56099 7.04769 5.10092C9.50777 2.64084 13.4963 2.64084 15.9564 5.10092Z" fill="white"/>
<path d="M15.9564 5.10092L16.4161 4.64125L16.4161 4.64125L15.9564 5.10092ZM15.9408 14.0252L15.4827 13.564L15.0199 14.0237L15.4811 14.4849L15.9408 14.0252ZM18.0924 16.1769L17.6327 16.6365L17.6328 16.6366L18.0924 16.1769ZM17.5548 16.7145L18.0145 16.2549L18.0145 16.2548L17.5548 16.7145ZM15.3692 14.5288L15.8288 14.0692L15.4226 13.6629L14.9695 14.0161L15.3692 14.5288ZM7.04769 14.0096L7.50736 13.55L7.04769 14.0096ZM7.04769 5.10092L6.58803 4.64125L7.04769 5.10092ZM16.4161 14.4693C19.13 11.7554 19.13 7.35519 16.4161 4.64125L15.4967 5.56058C17.703 7.76679 17.703 11.3438 15.4967 13.55L16.4161 14.4693ZM16.3989 14.4865C16.4046 14.4808 16.4103 14.4751 16.4161 14.4693L15.4967 13.55C15.4921 13.5546 15.4874 13.5593 15.4827 13.564L16.3989 14.4865ZM15.4811 14.4849L17.6327 16.6365L18.5521 15.7172L16.4004 13.5656L15.4811 14.4849ZM17.6328 16.6366C17.5274 16.5312 17.5273 16.3602 17.6328 16.2548L18.5521 17.1741C18.9544 16.7718 18.9544 16.1195 18.552 15.7172L17.6328 16.6366ZM17.6328 16.2548C17.7381 16.1494 17.9091 16.1494 18.0145 16.2549L17.0951 17.1741C17.4975 17.5765 18.1498 17.5765 18.5521 17.1741L17.6328 16.2548ZM18.0145 16.2548L15.8288 14.0692L14.9095 14.9885L17.0952 17.1741L18.0145 16.2548ZM6.58803 14.4693C9.09565 16.9769 13.0419 17.1674 15.7688 15.0415L14.9695 14.0161C12.7537 15.7435 9.54522 15.5878 7.50736 13.55L6.58803 14.4693ZM6.58803 4.64125C3.87409 7.35519 3.87409 11.7554 6.58803 14.4693L7.50736 13.55C5.30115 11.3438 5.30115 7.76679 7.50736 5.56058L6.58803 4.64125ZM16.4161 4.64125C13.7021 1.92731 9.30197 1.92731 6.58803 4.64125L7.50736 5.56058C9.71357 3.35437 13.2905 3.35437 15.4967 5.56058L16.4161 4.64125Z" fill="black" mask="url(#path-6-inside-1_493_14672)"/>
</svg>
