<svg width="196" height="178" viewBox="0 0 196 178" fill="none" xmlns="http://www.w3.org/2000/svg">
<path d="M187.473 88.8941C187.473 88.8941 199.786 90.2568 193.785 113.34L164.521 109.86C164.521 109.86 177.991 86.1687 187.473 88.8941Z" fill="white"/>
<path d="M193.761 113.751L164.488 110.271C164.42 110.263 164.356 110.239 164.3 110.2C164.244 110.162 164.199 110.11 164.168 110.049C164.137 109.988 164.122 109.921 164.122 109.852C164.122 109.784 164.137 109.716 164.168 109.655C164.726 108.678 177.877 85.7672 187.563 88.4926C188.742 88.7238 189.862 89.1904 190.857 89.8647C191.851 90.5389 192.699 91.4068 193.35 92.4165C196.388 96.8164 196.675 103.909 194.171 113.448C194.147 113.537 194.094 113.616 194.019 113.671C193.945 113.726 193.854 113.755 193.761 113.751ZM165.194 109.565L193.482 112.931C196.363 101.569 194.639 95.7821 192.661 92.9254C192.073 92.0064 191.305 91.2156 190.403 90.6006C189.502 89.9855 188.486 89.5589 187.415 89.3463H187.35C179.067 86.9083 167.263 106.043 165.194 109.565Z" fill="#231F20"/>
<path d="M162.09 133.961C162.09 133.961 167.755 134.782 173.23 116.837C178.705 98.8923 175.249 89.3289 187.472 88.9266L148.8 83.8535C148.8 83.8535 140.132 130.718 162.09 133.961Z" fill="white"/>
<path d="M162.205 134.38H162.025C160.077 134.099 158.208 133.415 156.539 132.372C154.87 131.329 153.436 129.95 152.33 128.321C148.308 122.698 146.428 113.48 146.74 100.928C146.886 95.1727 147.435 89.4344 148.382 83.7553C148.4 83.6511 148.458 83.5582 148.544 83.4968C148.63 83.4353 148.737 83.4102 148.841 83.4269L187.505 88.5C187.608 88.5123 187.703 88.5632 187.77 88.6424C187.837 88.7216 187.871 88.8232 187.867 88.9269C187.859 89.0293 187.813 89.1253 187.739 89.1964C187.665 89.2676 187.567 89.309 187.464 89.3127C179.255 89.6082 178.434 94.0985 176.793 103.054C176.019 107.747 174.961 112.388 173.624 116.952C168.567 133.518 163.256 134.38 162.205 134.38ZM162.14 133.559C162.263 133.559 167.607 133.862 172.811 116.714C174.144 112.177 175.202 107.563 175.98 102.898C177.4 95.0589 178.27 90.2567 184.189 88.8858L149.112 84.2806C148.513 87.8679 144.187 115.548 152.979 127.837C154.022 129.377 155.377 130.681 156.954 131.667C158.532 132.652 160.298 133.296 162.14 133.559Z" fill="#231F20"/>
<path d="M165.35 12.0664C165.35 12.0664 175.16 13.7082 172.894 28.1969C170.111 45.9364 156.271 107.003 155.934 120.662C155.598 134.322 162.091 133.961 162.091 133.961L72.269 124.652C72.269 124.652 68.0496 121.212 77.2764 86.0698C86.5032 50.9274 94.901 20.9074 99.8099 18.5514C104.719 16.1955 165.35 12.0664 165.35 12.0664Z" fill="white"/>
<path d="M162.05 134.38C161.832 134.373 161.615 134.348 161.401 134.306L72.2688 125.062C72.1901 125.055 72.1156 125.023 72.0553 124.972C71.5956 124.603 67.8852 120.367 76.915 85.9634C87.4635 45.7807 94.9746 20.4234 99.6701 18.1741C104.595 15.8428 162.879 11.8204 165.341 11.6562H165.44C165.538 11.6562 175.619 13.5607 173.312 28.2547C172.286 34.8218 169.832 46.8807 166.983 60.8851C162.099 84.8798 156.574 112.076 156.361 120.671C156.189 127.673 157.855 130.817 159.283 132.221C159.89 132.85 160.665 133.292 161.516 133.493L162.148 133.559C162.257 133.559 162.361 133.602 162.438 133.679C162.515 133.756 162.559 133.86 162.559 133.969C162.559 134.078 162.515 134.182 162.438 134.259C162.361 134.336 162.257 134.38 162.148 134.38H162.05ZM72.4822 124.258L159.185 133.247C159.021 133.119 158.865 132.982 158.717 132.836C156.451 130.636 155.384 126.532 155.524 120.646C155.737 111.986 161.27 84.7484 166.195 60.7209C169.044 46.7658 171.498 34.6412 172.516 28.1315C174.642 14.6115 166.154 12.6331 165.358 12.4771C163.289 12.6167 104.735 16.6801 100.015 18.9211C95.0896 21.2525 85.9202 54.8598 77.7031 86.1686C73.9926 100.296 71.9568 110.992 71.768 117.97C71.5874 122.485 72.2688 123.921 72.4822 124.258Z" fill="#231F20"/>
<path d="M92.7914 10.2373C92.7914 10.2373 82.6205 9.7612 80.2974 22.5014C78.9922 29.6514 65.0288 87.2534 65.0288 87.2534L132.055 101.816C147.939 102.547 151.846 28.6089 151.846 28.6089C151.846 28.6089 151.805 12.0843 165.317 12.0843C165.35 12.0679 101.32 8.4724 92.7914 10.2373Z" fill="white"/>
<path d="M132.317 102.219H132.071L64.9793 87.6397C64.9248 87.6311 64.8729 87.6105 64.8275 87.5792C64.782 87.548 64.7441 87.5069 64.7166 87.4591C64.6882 87.413 64.6692 87.3616 64.6608 87.3081C64.6523 87.2545 64.6546 87.1999 64.6674 87.1472C64.8069 86.5726 78.6225 29.4795 79.9277 22.4199C82.2016 9.95875 91.9702 9.79457 92.7911 9.81099C101.419 8.09533 162.772 11.5102 165.383 11.658C165.435 11.6601 165.487 11.6726 165.535 11.6948C165.583 11.717 165.626 11.7484 165.662 11.7873C165.698 11.8262 165.726 11.8718 165.744 11.9214C165.762 11.9711 165.771 12.0238 165.768 12.0767C165.764 12.1834 165.719 12.2845 165.643 12.3593C165.567 12.4341 165.465 12.4769 165.358 12.4789C163.812 12.428 162.273 12.6929 160.833 13.2575C159.393 13.8221 158.084 14.6745 156.985 15.7625C152.339 20.4087 152.298 28.5437 152.298 28.6258C152.133 31.6303 148.218 102.219 132.317 102.219ZM65.5621 86.9255L132.194 101.406C138.383 101.718 143.686 89.2405 147.553 65.41C150.475 47.2436 151.477 28.749 151.485 28.5684C151.485 28.24 151.485 20.0393 156.41 15.1386C157.746 13.7994 159.389 12.8073 161.196 12.249C146.863 11.4938 100.023 9.16249 92.9307 10.6073H92.7911C92.3889 10.6073 82.9404 10.3117 80.724 22.5348C79.5009 29.3236 66.8181 81.7375 65.5621 86.9255Z" fill="#231F20"/>
<path d="M132.087 101.798C132.087 101.798 117.746 99.9103 120.997 83.8208L56.9673 78.7148L62.4673 96.2983L132.087 101.798Z" fill="white"/>
<path d="M132.087 102.176L62.418 96.7091C62.3377 96.7004 62.2617 96.6686 62.1991 96.6176C62.1364 96.5666 62.0899 96.4986 62.065 96.4218L56.5568 78.8301C56.5381 78.7658 56.535 78.698 56.5478 78.6323C56.5607 78.5666 56.5891 78.5049 56.6307 78.4525C56.6727 78.4005 56.7269 78.3597 56.7885 78.3339C56.8501 78.3081 56.9172 78.2981 56.9837 78.3047L121.013 83.4107C121.129 83.4266 121.234 83.4852 121.309 83.5748C121.343 83.6217 121.367 83.675 121.379 83.7314C121.392 83.7879 121.393 83.8463 121.383 83.9032C120.373 88.886 120.98 92.933 123.18 96.0524C126.415 100.584 132.071 101.388 132.128 101.396C132.237 101.404 132.338 101.455 132.41 101.537C132.482 101.619 132.517 101.727 132.51 101.836C132.502 101.944 132.452 102.046 132.369 102.117C132.287 102.189 132.18 102.225 132.071 102.217L132.087 102.176ZM62.7792 95.88L128.303 101.06C126.012 100.086 124.027 98.5121 122.557 96.5039C120.283 93.3188 119.601 89.1733 120.529 84.1905L57.5419 79.1913L62.7792 95.88Z" fill="#231F20"/>
<path d="M143.021 119.415L77.9327 113.808C77.8788 113.804 77.8262 113.789 77.7779 113.765C77.7297 113.74 77.6868 113.706 77.6517 113.665C77.6166 113.624 77.59 113.576 77.5734 113.525C77.5569 113.473 77.5506 113.419 77.5551 113.365C77.5581 113.311 77.5721 113.258 77.5964 113.209C77.6207 113.161 77.6547 113.118 77.6963 113.084C77.7379 113.049 77.7862 113.023 77.8382 113.008C77.8901 112.993 77.9447 112.989 77.9984 112.995L143.095 118.602C143.204 118.607 143.306 118.656 143.379 118.737C143.452 118.818 143.49 118.924 143.485 119.033C143.48 119.142 143.431 119.244 143.35 119.317C143.269 119.39 143.163 119.428 143.054 119.423L143.021 119.415Z" fill="#D1D3D4"/>
<path d="M138.761 110.541L73.6642 104.934C73.6103 104.929 73.5579 104.914 73.51 104.888C73.462 104.863 73.4195 104.829 73.3848 104.788C73.3148 104.704 73.2809 104.595 73.2907 104.486C73.3005 104.378 73.3532 104.277 73.4371 104.207C73.521 104.137 73.6292 104.103 73.7381 104.113L138.761 109.72C138.869 109.73 138.969 109.782 139.039 109.865C139.11 109.948 139.145 110.055 139.139 110.163C139.131 110.261 139.089 110.352 139.02 110.422C138.95 110.491 138.859 110.533 138.761 110.541Z" fill="#D1D3D4"/>
<path d="M93.4886 72.4025L84.7543 71.5817C84.6458 71.5699 84.5459 71.517 84.4752 71.4339C84.4422 71.3912 84.418 71.3423 84.4039 71.2902C84.3898 71.2381 84.3861 71.1837 84.3931 71.1302L86.0841 57.5034C86.0965 57.3973 86.1497 57.3003 86.2325 57.2329C86.3153 57.1654 86.421 57.1329 86.5274 57.1422L95.2617 57.9631C95.3156 57.968 95.3681 57.9837 95.416 58.009C95.4639 58.0344 95.5063 58.069 95.5408 58.1108C95.6072 58.2007 95.6392 58.3113 95.6311 58.4228L93.9318 72.0414C93.9194 72.1474 93.8662 72.2444 93.7834 72.3118C93.7007 72.3793 93.5949 72.4118 93.4886 72.4025ZM85.214 70.7608L93.1274 71.5242L94.7199 58.7183L86.8065 57.9549L85.214 70.7608Z" fill="#D1D3D4"/>
<path d="M94.6546 62.9873H94.6135L85.8875 62.1664C85.8328 62.1609 85.7798 62.1442 85.7318 62.1174C85.6838 62.0905 85.6418 62.0542 85.6084 62.0105C85.5722 61.9694 85.5454 61.921 85.5298 61.8685C85.5142 61.8161 85.5102 61.7609 85.5181 61.7067L86.0434 57.4956C86.0558 57.3895 86.1091 57.2925 86.1918 57.2251C86.2746 57.1576 86.3804 57.1251 86.4867 57.1344L95.221 57.9553C95.275 57.9602 95.3274 57.9759 95.3753 58.0012C95.4232 58.0266 95.4657 58.0612 95.5001 58.103C95.5665 58.1929 95.5985 58.3035 95.5904 58.415L95.065 62.6179C95.0548 62.7195 95.0071 62.8137 94.9312 62.882C94.8553 62.9503 94.7567 62.9878 94.6546 62.9873ZM86.3882 61.3455L94.3016 62.1172L94.7203 58.7187L86.8069 57.9553L86.3882 61.3455Z" fill="#D1D3D4"/>
<path d="M106.525 73.6671L97.7986 72.8462C97.6886 72.8332 97.5882 72.7771 97.5195 72.6902C97.4833 72.6491 97.4565 72.6007 97.441 72.5483C97.4254 72.4958 97.4213 72.4406 97.4292 72.3865L100.475 47.8993C100.48 47.8466 100.495 47.7956 100.521 47.7491C100.546 47.7026 100.58 47.6617 100.621 47.6288C100.663 47.5958 100.71 47.5715 100.761 47.5574C100.812 47.5432 100.866 47.5394 100.918 47.5463L109.652 48.3672C109.761 48.3789 109.861 48.4318 109.931 48.5149C109.965 48.5589 109.99 48.6091 110.004 48.6627C110.018 48.7162 110.021 48.772 110.013 48.8269L106.976 73.3059C106.962 73.4126 106.907 73.5097 106.823 73.5769C106.739 73.6442 106.632 73.6765 106.525 73.6671ZM98.2583 72.0253L106.172 72.7969L109.11 49.1224L101.197 48.359L98.2583 72.0253Z" fill="#D1D3D4"/>
<path d="M108.93 54.3269L100.204 53.506C100.091 53.4933 99.9883 53.4374 99.9165 53.35C99.8831 53.3075 99.8586 53.2587 99.8445 53.2065C99.8304 53.1543 99.827 53.0998 99.8344 53.0463L100.475 47.8993C100.48 47.8466 100.495 47.7956 100.521 47.7491C100.546 47.7026 100.58 47.6617 100.621 47.6288C100.663 47.5958 100.71 47.5715 100.761 47.5574C100.812 47.5432 100.866 47.5394 100.918 47.5463L109.652 48.3672C109.761 48.3789 109.861 48.4318 109.931 48.5149C109.965 48.5589 109.99 48.6091 110.004 48.6627C110.018 48.7162 110.021 48.772 110.013 48.8269L109.373 53.9657C109.361 54.0717 109.308 54.1687 109.225 54.2362C109.142 54.3036 109.036 54.3361 108.93 54.3269ZM100.655 52.6851L108.569 53.4567L109.11 49.1224L101.197 48.359L100.655 52.6851Z" fill="#D1D3D4"/>
<path d="M119.569 74.9308H119.527L110.793 74.1099C110.739 74.1038 110.687 74.087 110.639 74.0605C110.592 74.034 110.55 73.9984 110.516 73.9556C110.483 73.9128 110.458 73.8638 110.444 73.8113C110.429 73.7589 110.425 73.7041 110.432 73.6502L116.408 25.5295C116.413 25.4766 116.429 25.4252 116.454 25.3783C116.479 25.3314 116.513 25.29 116.554 25.2564C116.596 25.2228 116.643 25.1978 116.694 25.1826C116.745 25.1675 116.798 25.1626 116.851 25.1683L125.586 25.9892C125.695 26.0039 125.795 26.0596 125.865 26.1452C125.898 26.1877 125.923 26.2365 125.937 26.2887C125.951 26.3409 125.954 26.3954 125.947 26.4489L119.971 74.5778C119.959 74.6757 119.911 74.7658 119.837 74.8309C119.763 74.8959 119.667 74.9315 119.569 74.9308ZM111.294 73.289L119.207 74.0606L125.085 26.7526L117.172 25.981L111.294 73.289Z" fill="#D1D3D4"/>
<path d="M124.806 32.6959L116.072 31.875C116.017 31.8689 115.965 31.8521 115.918 31.8256C115.87 31.7992 115.828 31.7635 115.795 31.7207C115.761 31.6779 115.736 31.6289 115.722 31.5765C115.707 31.524 115.703 31.4693 115.71 31.4153L116.441 25.5295C116.446 25.4766 116.462 25.4252 116.487 25.3783C116.512 25.3314 116.546 25.29 116.587 25.2564C116.628 25.2228 116.676 25.1978 116.727 25.1826C116.778 25.1675 116.831 25.1626 116.884 25.1683L125.618 25.9892C125.728 26.0039 125.828 26.0596 125.898 26.1452C125.931 26.1877 125.955 26.2365 125.97 26.2887C125.984 26.3409 125.987 26.3954 125.98 26.4489L125.249 32.3347C125.244 32.3876 125.228 32.439 125.203 32.4859C125.178 32.5328 125.144 32.5742 125.103 32.6078C125.062 32.6414 125.014 32.6664 124.963 32.6816C124.912 32.6967 124.859 32.7016 124.806 32.6959ZM116.531 31.0541L124.445 31.8257L125.077 26.7526L117.163 25.981L116.531 31.0541Z" fill="#D1D3D4"/>
<path d="M132.605 76.2041H132.564L123.837 75.3832C123.783 75.3781 123.729 75.3621 123.681 75.336C123.633 75.31 123.59 75.2745 123.555 75.2316C123.521 75.1887 123.495 75.1393 123.48 75.0864C123.465 75.0335 123.461 74.9781 123.468 74.9235L125.487 58.6698C125.5 58.5644 125.553 58.4682 125.636 58.402C125.719 58.3359 125.825 58.3053 125.931 58.3168L134.665 59.1377C134.719 59.1438 134.771 59.1606 134.819 59.1871C134.866 59.2136 134.908 59.2492 134.942 59.292C134.975 59.3348 135 59.3838 135.015 59.4363C135.029 59.4887 135.033 59.5435 135.026 59.5974L133.015 75.8429C133.001 75.9423 132.952 76.0334 132.877 76.0997C132.802 76.166 132.705 76.2031 132.605 76.2041ZM124.338 74.5623L132.252 75.3339L134.164 59.9258L126.251 59.1542L124.338 74.5623Z" fill="#D1D3D4"/>
<path d="M133.909 65.6802L125.175 64.8594C125.065 64.8463 124.965 64.7902 124.896 64.7034C124.831 64.6225 124.798 64.5198 124.806 64.4161L125.52 58.6698C125.532 58.5644 125.586 58.4682 125.669 58.402C125.752 58.3359 125.858 58.3053 125.963 58.3168L134.697 59.1377C134.752 59.1438 134.804 59.1606 134.851 59.1871C134.899 59.2136 134.941 59.2492 134.974 59.292C135.008 59.3348 135.033 59.3838 135.047 59.4363C135.062 59.4887 135.066 59.5435 135.059 59.5974L134.353 65.3026C134.342 65.4108 134.29 65.5107 134.207 65.5811C134.125 65.6516 134.018 65.6871 133.909 65.6802ZM125.643 64.0385L133.556 64.8101L134.164 59.8848L126.25 59.1131L125.643 64.0385Z" fill="#D1D3D4"/>
<path d="M137.604 76.7285H137.563L81.0279 71.245C80.9739 71.2399 80.9214 71.2241 80.8736 71.1986C80.8257 71.173 80.7834 71.1383 80.749 71.0963C80.7147 71.0543 80.689 71.0059 80.6735 70.954C80.6579 70.902 80.6528 70.8474 80.6585 70.7935C80.6626 70.7398 80.6774 70.6876 80.7021 70.6398C80.7267 70.5919 80.7607 70.5495 80.8021 70.5151C80.8434 70.4807 80.8912 70.4549 80.9427 70.4392C80.9942 70.4236 81.0483 70.4184 81.1018 70.4241L137.645 75.9077C137.698 75.9128 137.749 75.9283 137.796 75.9534C137.843 75.9786 137.884 76.0127 137.918 76.0539C137.951 76.0952 137.977 76.1426 137.992 76.1936C138.007 76.2446 138.012 76.2981 138.006 76.3509C137.998 76.4526 137.952 76.5476 137.878 76.6174C137.803 76.6872 137.706 76.7268 137.604 76.7285Z" fill="#D1D3D4"/>
<path d="M146.329 34.7896L132.374 33.5254C132.267 33.515 132.168 33.4626 132.099 33.3797C132.029 33.2967 131.996 33.1898 132.005 33.0821C132.009 33.0282 132.024 32.9756 132.048 32.9273C132.073 32.8791 132.107 32.8362 132.148 32.8011C132.189 32.766 132.237 32.7394 132.288 32.7228C132.34 32.7063 132.394 32.7001 132.448 32.7045L146.403 33.9769C146.457 33.981 146.509 33.9958 146.557 34.0205C146.605 34.0451 146.647 34.0791 146.682 34.1205C146.716 34.1618 146.742 34.2096 146.758 34.2611C146.773 34.3126 146.778 34.3667 146.773 34.4202C146.762 34.5277 146.71 34.6268 146.627 34.6959C146.544 34.7651 146.437 34.7987 146.329 34.7896Z" fill="#D1D3D4"/>
<path d="M146.091 38.2279L132.136 36.9555C132.083 36.9514 132.03 36.9366 131.983 36.912C131.935 36.8873 131.892 36.8533 131.858 36.812C131.823 36.7706 131.798 36.7228 131.782 36.6713C131.766 36.6198 131.761 36.5658 131.767 36.5123C131.771 36.4586 131.786 36.4063 131.81 36.3585C131.835 36.3107 131.869 36.2683 131.91 36.2339C131.952 36.1994 132 36.1736 132.051 36.158C132.103 36.1423 132.157 36.1372 132.21 36.1428L146.165 37.407C146.219 37.4111 146.271 37.4259 146.319 37.4506C146.367 37.4753 146.409 37.5093 146.444 37.5506C146.478 37.5919 146.504 37.6397 146.52 37.6912C146.535 37.7427 146.54 37.7968 146.535 37.8503C146.531 37.9043 146.516 37.9569 146.491 38.0051C146.467 38.0533 146.433 38.0962 146.392 38.1313C146.35 38.1664 146.303 38.193 146.251 38.2096C146.2 38.2262 146.145 38.2324 146.091 38.2279Z" fill="#D1D3D4"/>
<path d="M145.853 41.6692L131.898 40.3968C131.844 40.3919 131.792 40.3765 131.744 40.3514C131.696 40.3263 131.653 40.292 131.619 40.2504C131.549 40.1665 131.515 40.0582 131.525 39.9494C131.534 39.8405 131.587 39.74 131.671 39.67C131.755 39.5999 131.863 39.5661 131.972 39.5759L145.927 40.8401C146.034 40.8525 146.132 40.9054 146.2 40.9879C146.269 41.0704 146.304 41.1762 146.297 41.2833C146.293 41.338 146.279 41.3915 146.255 41.4407C146.231 41.4899 146.198 41.5337 146.156 41.5697C146.115 41.6056 146.067 41.633 146.015 41.65C145.963 41.6671 145.908 41.6736 145.853 41.6692Z" fill="#D1D3D4"/>
<path d="M142.209 44.7968L131.685 43.8446C131.631 43.8395 131.579 43.8237 131.531 43.7982C131.483 43.7726 131.441 43.7379 131.406 43.6959C131.372 43.6539 131.346 43.6055 131.331 43.5536C131.315 43.5016 131.31 43.4471 131.316 43.3931C131.32 43.3395 131.335 43.2872 131.359 43.2394C131.384 43.1915 131.418 43.1492 131.459 43.1147C131.501 43.0803 131.548 43.0545 131.6 43.0388C131.651 43.0232 131.706 43.0181 131.759 43.0237L142.283 43.9759C142.337 43.9811 142.389 43.9968 142.437 44.0224C142.485 44.0479 142.527 44.0827 142.562 44.1246C142.596 44.1666 142.622 44.215 142.637 44.267C142.653 44.3189 142.658 44.3735 142.652 44.4274C142.648 44.4811 142.633 44.5334 142.609 44.5812C142.584 44.629 142.55 44.6714 142.509 44.7058C142.467 44.7403 142.42 44.7661 142.368 44.7817C142.317 44.7973 142.262 44.8025 142.209 44.7968Z" fill="#D1D3D4"/>
<path d="M62.4179 80.3991C64.5905 76.0672 67.5687 72.1891 71.1932 68.9722C77.0216 63.9402 80.5104 60.279 78.6798 59.2775C76.8492 58.276 70.791 62.5611 70.791 62.5611L75.0186 44.6328C75.0186 44.6328 65.2828 52.4395 62.4179 58.0954C59.553 63.7514 53.9053 75.6707 53.9053 75.6707L62.4179 80.3991Z" fill="white"/>
<path d="M62.418 80.8335C62.3494 80.8328 62.2819 80.8159 62.221 80.7842L53.7002 76.0723C53.6091 76.0218 53.5407 75.9386 53.5086 75.8395C53.4766 75.7404 53.4835 75.6329 53.5278 75.5387C53.5852 75.4238 59.2166 63.5537 62.0568 57.9552C64.8971 52.3567 74.3702 44.6814 74.7642 44.3612C74.8337 44.3118 74.917 44.2852 75.0023 44.2852C75.0876 44.2852 75.1708 44.3118 75.2404 44.3612C75.3124 44.4056 75.3686 44.4715 75.401 44.5496C75.4334 44.6277 75.4404 44.714 75.421 44.7963L71.4478 61.6492C73.3441 60.385 77.268 58.0373 78.8851 58.9239C79.0754 59.0176 79.2391 59.1577 79.361 59.3313C79.4829 59.5049 79.5592 59.7063 79.5829 59.9171C79.7471 61.4522 77.3911 64.1611 71.4725 69.2753C67.8982 72.4617 64.9572 76.2939 62.8039 80.5708C62.7805 80.6228 62.7465 80.6694 62.7041 80.7076C62.6617 80.7457 62.6118 80.7746 62.5576 80.7924L62.418 80.8335ZM54.439 75.5387L62.2456 79.8566C64.4362 75.6347 67.3795 71.8485 70.9307 68.6843C72.909 66.9686 78.9426 61.7559 78.7538 60.0321C78.7474 59.9514 78.7187 59.8741 78.6709 59.8088C78.623 59.7436 78.5579 59.693 78.4829 59.6627C77.309 59.0306 73.2948 61.3044 71.0292 62.9462C70.9607 62.9936 70.8795 63.0189 70.7962 63.019C70.713 63.0191 70.6317 62.9939 70.5631 62.9467C70.4945 62.8995 70.4419 62.8326 70.4123 62.7548C70.3826 62.677 70.3773 62.592 70.3971 62.5112L74.3456 45.7732C71.8829 47.8829 65.0613 53.8425 62.7874 58.3246C60.218 63.3485 55.3748 73.5111 54.4225 75.5141L54.439 75.5387Z" fill="#231F20"/>
<path d="M61.7448 34.2315C60.719 34.2299 59.7168 33.9243 58.8647 33.3532C58.0126 32.7821 57.3489 31.9713 56.9575 31.0232C56.5661 30.0751 56.4645 29.0322 56.6656 28.0263C56.8667 27.0205 57.3615 26.0969 58.0874 25.3721C58.8133 24.6474 59.7377 24.1541 60.7439 23.9546C61.75 23.755 62.7927 23.8583 63.7402 24.2512C64.6878 24.6441 65.4975 25.3091 66.0672 26.162C66.6369 27.015 66.941 28.0178 66.941 29.0435C66.9388 30.4202 66.3904 31.7398 65.4162 32.7125C64.4419 33.6852 63.1215 34.2315 61.7448 34.2315ZM61.7448 24.6764C60.8814 24.678 60.0378 24.9355 59.3208 25.4163C58.6037 25.8972 58.0452 26.5798 57.7159 27.3779C57.3866 28.1761 57.3013 29.0539 57.4708 29.9005C57.6402 30.7471 58.0568 31.5245 58.6678 32.1344C59.2789 32.7444 60.0571 33.1595 60.904 33.3273C61.7509 33.4952 62.6286 33.4082 63.4261 33.0774C64.2236 32.7466 64.9052 32.1869 65.3847 31.4689C65.8642 30.7509 66.1201 29.9069 66.1201 29.0435C66.1179 27.8845 65.656 26.7737 64.8357 25.955C64.0154 25.1362 62.9038 24.6764 61.7448 24.6764Z" fill="#231F20"/>
<path d="M27.407 49.7619C25.2563 49.6634 23.1056 49.294 20.61 49.0805C18.2869 48.8835 15.2989 48.0134 15.2496 45.6903C15.2086 43.6955 17.6056 42.0619 17.0802 40.1328C16.8991 39.6166 16.6204 39.1401 16.2593 38.7291C12.9417 34.2782 11.4743 28.7164 12.1644 23.2081C12.8544 17.6998 15.6484 12.672 19.9615 9.177C19.3048 9.39865 18.6153 8.75014 18.5496 8.06059C18.5498 7.36563 18.8138 6.69666 19.2884 6.18896C20.9302 4.19419 23.319 3.05315 25.7488 2.25689C33.5063 -0.296084 42.0435 -0.0169808 49.8748 2.25689C55.9084 4.02181 63.1404 8.82403 62.3442 16.1053C62.0569 18.724 60.0046 21.2769 57.4188 21.3919C56.0726 29.1903 51.9845 34.5261 46.8457 40.1575C43.3944 44.0505 39.031 47.0262 34.1465 48.8179C31.9847 49.5755 29.6939 49.8964 27.407 49.7619Z" fill="white"/>
<path d="M28.3508 50.1893H27.3904C26.118 50.1319 24.862 49.9841 23.5322 49.8199C22.5881 49.7132 21.6113 49.5983 20.577 49.508C17.0225 49.2042 14.88 47.7841 14.8307 45.7155C14.9084 44.6993 15.2664 43.7246 15.865 42.8998C16.4068 41.9886 16.9158 41.1267 16.6859 40.2565C16.5336 39.8288 16.3025 39.4335 16.0046 39.0909L15.9307 38.9841C12.6507 34.5749 11.1468 29.0943 11.717 23.6285C12.2871 18.1627 14.8897 13.1105 19.0091 9.47309L18.9105 9.41563C18.6865 9.27343 18.4966 9.08339 18.3547 8.85914C18.2128 8.63489 18.1223 8.382 18.0897 8.11862C18.0652 7.31598 18.3605 6.53648 18.9105 5.95146C20.7411 3.66118 23.5814 2.53656 25.568 1.84701C32.956 -0.615669 41.6082 -0.615669 49.932 1.84701C56.8439 3.87461 63.4685 9.07085 62.6969 16.1305C62.4096 18.7081 60.4723 21.4417 57.6648 21.7618C56.1872 29.8312 51.8037 35.1916 47.0507 40.4207C43.5613 44.3401 39.1563 47.335 34.2284 49.1386C32.344 49.8235 30.3558 50.179 28.3508 50.1893ZM27.4232 49.3684C29.6531 49.4898 31.8849 49.169 33.9903 48.4244C38.7943 46.6752 43.0858 43.7549 46.4761 39.9282C52.1567 33.6812 55.6947 28.6491 56.9507 21.376C56.9656 21.283 57.0121 21.198 57.0824 21.1352C57.1527 21.0724 57.2424 21.0357 57.3365 21.0312C59.7991 20.9245 61.6626 18.388 61.9088 16.1059C62.6312 9.53876 56.3186 4.61341 49.735 2.70073C41.5261 0.31194 33.0873 0.303731 25.8553 2.70073C23.9754 3.32461 21.2829 4.39177 19.5837 6.50146C19.1686 6.92444 18.9358 7.49319 18.9352 8.08578C18.9524 8.22261 18.9987 8.35417 19.0709 8.47167C19.1431 8.58917 19.2396 8.6899 19.3538 8.76712C19.4185 8.81301 19.4924 8.84415 19.5704 8.85833C19.6485 8.87251 19.7286 8.8694 19.8053 8.84921C19.8965 8.81779 19.9959 8.8195 20.0859 8.85402C20.176 8.88855 20.251 8.95369 20.2979 9.03802C20.3422 9.12336 20.3557 9.22137 20.3363 9.31555C20.3169 9.40973 20.2656 9.49434 20.1911 9.55518C15.9679 12.9845 13.2326 17.9128 12.5565 23.3108C11.8804 28.7089 13.3158 34.1595 16.5628 38.5244L16.6449 38.623C17.0051 39.0499 17.2834 39.5397 17.4658 40.0677C17.7941 41.2744 17.1703 42.3252 16.5628 43.3513C16.0483 44.048 15.7307 44.8702 15.6434 45.7319C15.6926 48.1125 19.4687 48.6214 20.6262 48.7199C21.7837 48.8184 22.662 48.9251 23.6143 49.0401C24.9277 49.196 26.1672 49.3438 27.4068 49.4013L27.4232 49.3684Z" fill="#231F20"/>
<path d="M59.4629 32.7617C59.4629 32.7617 65.0204 41.9229 63.7316 43.7288C62.4428 45.5348 58.4204 44.1475 58.4204 44.1475" fill="white"/>
<path d="M61.3264 45.0593C60.2929 45.0427 59.2682 44.8655 58.2891 44.5339C58.1873 44.4984 58.1035 44.4243 58.0558 44.3275C58.0082 44.2307 58.0006 44.1191 58.0347 44.0168C58.0719 43.9143 58.1476 43.8304 58.2457 43.7828C58.3438 43.7353 58.4566 43.7279 58.56 43.7623C59.5943 44.1153 62.4839 44.7638 63.3951 43.4914C64.1749 42.3996 61.3593 36.6862 59.11 32.9758C59.0817 32.9295 59.0629 32.8781 59.0546 32.8244C59.0463 32.7708 59.0487 32.7161 59.0617 32.6634C59.0746 32.6108 59.0979 32.5612 59.1302 32.5176C59.1624 32.474 59.203 32.4372 59.2496 32.4093C59.2952 32.3812 59.346 32.3625 59.399 32.3543C59.452 32.3461 59.506 32.3486 59.558 32.3616C59.61 32.3746 59.6589 32.3979 59.7018 32.43C59.7447 32.4622 59.7807 32.5026 59.8078 32.5489C60.76 34.1168 65.4473 42.0384 64.06 43.9675C63.7245 44.3543 63.3013 44.6553 62.8257 44.8452C62.3502 45.0352 61.8361 45.1086 61.3264 45.0593Z" fill="#231F20"/>
<path d="M58.6582 20.9087C62.2948 24.1184 60.9567 30.5624 60.7597 34.7818C60.4916 40.7141 60.0811 46.6382 59.5284 52.5541C59.1836 56.3056 49.4396 56.01 47.765 54.8197L48.7172 69.7353L28.5562 61.1324L29.8614 48.819C29.8614 48.819 36.4942 49.1228 40.5904 41.6034C44.6867 34.084 44.7934 17.4199 44.7934 17.4199C44.7934 17.4199 55.1038 17.7729 58.6582 20.9087Z" fill="white"/>
<path d="M48.7174 70.1625C48.6634 70.1748 48.6073 70.1748 48.5532 70.1625L28.3921 61.5267C28.312 61.4898 28.2453 61.4289 28.2012 61.3524C28.1571 61.276 28.1377 61.1877 28.1459 61.0999L29.4593 48.8521C29.4715 48.7484 29.5221 48.653 29.6011 48.5847C29.6801 48.5163 29.7817 48.48 29.8861 48.4827C30.1406 48.4827 36.3137 48.6716 40.2294 41.4805C44.2353 34.1418 44.3831 17.6747 44.3831 17.4859C44.3855 17.3778 44.4296 17.2748 44.5062 17.1986C44.5447 17.1575 44.5921 17.1259 44.6448 17.1059C44.6974 17.086 44.7539 17.0784 44.81 17.0836C45.2368 17.0836 55.3009 17.453 58.9293 20.6463C62.1061 23.4538 61.6793 28.5022 61.3345 32.5575C61.2688 33.3783 61.2032 34.1418 61.1703 34.8477C60.8994 40.7664 60.4808 46.7507 59.939 52.6365C59.8733 53.3671 59.4465 54.3932 57.8293 55.0991C55.1368 56.3387 50.3017 56.2238 48.2166 55.5014L49.1278 69.7274C49.1315 69.7972 49.1177 69.8669 49.0876 69.93C49.0575 69.993 49.0121 70.0476 48.9555 70.0886C48.8852 70.1364 48.8023 70.1621 48.7174 70.1625ZM29.016 60.8536L48.2823 69.1118L47.3711 54.8611C47.3659 54.7835 47.3829 54.706 47.42 54.6376C47.4572 54.5692 47.513 54.5129 47.5809 54.475C47.6489 54.4371 47.7262 54.4194 47.8039 54.4238C47.8816 54.4282 47.9564 54.4546 48.0196 54.4999C49.1196 55.3208 54.636 55.6738 57.5091 54.3603C58.5188 53.8924 59.0688 53.2768 59.1509 52.5297C59.6927 46.6522 60.1114 40.6843 60.3823 34.7821C60.3823 34.0597 60.4808 33.2798 60.5546 32.4589C60.8748 28.5843 61.2852 23.7657 58.4121 21.2291C55.4077 18.5777 47.1823 17.9948 45.2286 17.8881C45.1876 20.5971 44.7689 34.9052 40.9846 41.8417C37.3809 48.4089 31.7824 49.2298 30.313 49.2298L29.016 60.8536Z" fill="#231F20"/>
<path d="M59.5529 48.1199C59.5529 48.1199 54.8492 50.7714 52.5835 45.9199L59.5529 48.1199Z" fill="white"/>
<path d="M56.7294 49.254C56.2282 49.2592 55.7294 49.1844 55.2518 49.0324C54.5666 48.7854 53.9413 48.3968 53.4165 47.8918C52.8917 47.3869 52.4793 46.7769 52.2062 46.1018C52.1636 46.0013 52.1611 45.8882 52.1993 45.7859C52.2375 45.6836 52.3134 45.5998 52.4115 45.5518C52.4598 45.5284 52.5124 45.515 52.5661 45.5122C52.6198 45.5095 52.6734 45.5176 52.7239 45.5359C52.7744 45.5543 52.8208 45.5826 52.8601 45.6192C52.8995 45.6557 52.9312 45.6998 52.9533 45.7488C53.1833 46.3148 53.5293 46.8263 53.969 47.2505C54.4087 47.6746 54.9323 48.002 55.5062 48.2115C56.8058 48.5224 58.1741 48.3502 59.3562 47.7271C59.451 47.674 59.5629 47.6605 59.6675 47.6898C59.7722 47.719 59.861 47.7885 59.9144 47.8831C59.9654 47.9783 59.9777 48.0896 59.9486 48.1936C59.9196 48.2976 59.8514 48.3864 59.7584 48.4413C58.8257 48.9441 57.7885 49.2223 56.7294 49.254Z" fill="#231F20"/>
<path d="M35.0084 35.8232C34.9704 35.8307 34.9314 35.8307 34.8934 35.8232C34.842 35.809 34.7939 35.7848 34.752 35.7518C34.71 35.7189 34.675 35.6779 34.649 35.6313C34.6231 35.5847 34.6066 35.5334 34.6007 35.4804C34.5947 35.4274 34.5994 35.3737 34.6143 35.3225C35.4352 32.4247 36.0099 32.3837 36.2561 32.3673C36.7158 32.3673 56.2448 29.9046 66.4978 28.6568C66.5513 28.6488 66.6059 28.6516 66.6583 28.6651C66.7107 28.6786 66.7598 28.7026 66.8027 28.7355C66.8456 28.7685 66.8814 28.8098 66.908 28.8569C66.9346 28.904 66.9514 28.956 66.9575 29.0098C66.9715 29.1176 66.9422 29.2265 66.876 29.3126C66.8098 29.3988 66.7122 29.4552 66.6045 29.4695C65.4142 29.6173 38.0621 32.9994 36.3875 33.1799C35.9557 33.9179 35.6323 34.7141 35.427 35.5441C35.3994 35.6313 35.3428 35.7065 35.2667 35.7572C35.1906 35.808 35.0995 35.8312 35.0084 35.8232Z" fill="#231F20"/>
<path d="M47.9377 36.1279C47.9377 34.6421 47.1906 33.2712 46.4272 32.0234C45.8858 30.987 45.1881 30.0401 44.3586 29.216C43.9458 28.8105 43.4482 28.5015 42.9018 28.3113C42.3553 28.1211 41.7735 28.0544 41.1981 28.116C40.6981 28.2226 40.2262 28.4334 39.8132 28.7346C39.4002 29.0359 39.0553 29.4209 38.8011 29.8645C38.3173 30.764 38.037 31.7588 37.9802 32.7786C37.7997 35.0024 38.2067 37.2346 39.1604 39.2516C40.1142 41.2686 41.5812 42.9996 43.4145 44.2711L43.1026 43.9017" fill="white"/>
<path d="M43.4064 44.7151C43.3241 44.7135 43.2442 44.6878 43.1765 44.6412C41.2836 43.3213 39.7693 41.5287 38.7842 39.4419C37.7991 37.3551 37.3776 35.0467 37.5616 32.7464C37.6301 31.6597 37.9415 30.6022 38.4728 29.6517C38.7546 29.1548 39.1403 28.7245 39.6036 28.3902C40.0668 28.0558 40.5967 27.8253 41.1571 27.7144C41.7939 27.6374 42.4399 27.7052 43.0468 27.9127C43.6537 28.1203 44.206 28.4621 44.6623 28.9129C45.5228 29.7531 46.2508 30.719 46.8213 31.7778C47.5354 32.9845 48.463 34.4867 48.3892 36.1367C48.383 36.2442 48.3364 36.3454 48.2587 36.42C48.1811 36.4946 48.0782 36.5371 47.9705 36.539C47.9166 36.5379 47.8634 36.5262 47.814 36.5046C47.7647 36.483 47.72 36.4519 47.6827 36.413C47.6453 36.3741 47.616 36.3282 47.5964 36.278C47.5767 36.2278 47.5672 36.1742 47.5683 36.1203C47.5683 34.7002 46.7474 33.3129 46.1153 32.1965C45.5958 31.2132 44.9348 30.3116 44.1534 29.5203C43.7856 29.1556 43.3417 28.8766 42.8535 28.7035C42.3653 28.5304 41.8449 28.4673 41.3295 28.5189C40.8882 28.6165 40.4724 28.8059 40.1089 29.0746C39.7455 29.3432 39.4426 29.6853 39.2198 30.0786C38.7441 30.9194 38.4636 31.8564 38.3989 32.8203C38.2411 34.8451 38.5838 36.8776 39.397 38.7387C40.2101 40.5997 41.4686 42.2321 43.0616 43.4919C43.1286 43.4837 43.1967 43.4921 43.2597 43.5164C43.3227 43.5408 43.3787 43.5803 43.4228 43.6315L43.7347 44.0009C43.8005 44.0758 43.8368 44.1721 43.8368 44.2718C43.8368 44.3715 43.8005 44.4678 43.7347 44.5427C43.6965 44.5942 43.6471 44.6365 43.5902 44.6664C43.5334 44.6962 43.4705 44.7129 43.4064 44.7151Z" fill="#231F20"/>
<path d="M57.9289 30.2014C58.3913 30.1942 58.7511 29.2365 58.7327 28.0624C58.7143 26.8884 58.3245 25.9425 57.8621 25.9497C57.3997 25.957 57.0399 26.9147 57.0583 28.0887C57.0767 29.2628 57.4665 30.2087 57.9289 30.2014Z" fill="#231F20"/>
<path d="M2.00041 165.689C2.00041 165.689 -4.65702 90.0441 6.3183 74.5703C17.2936 59.0965 44.2435 56.6092 56.7128 66.5913C69.1822 76.5733 78.6635 166.371 78.6635 166.371C78.6635 166.371 37.4219 192.13 2.00041 165.689Z" fill="#427DAA"/>
<path d="M97.5312 56.623L100.612 55.6114L104.39 67.1151C104.516 67.4998 104.484 67.919 104.302 68.2804C104.119 68.6418 103.8 68.9158 103.415 69.0421L103.236 69.101C102.851 69.2274 102.432 69.1957 102.071 69.013C101.709 68.8303 101.435 68.5115 101.309 68.1268L97.5312 56.623Z" fill="white"/>
<path d="M102.757 69.579C102.349 69.5746 101.953 69.4434 101.623 69.2036C101.294 68.9638 101.047 68.6274 100.918 68.241L97.1416 56.7485C97.1006 56.6486 97.1006 56.5365 97.1416 56.4366C97.1651 56.3879 97.1983 56.3445 97.2393 56.3092C97.2803 56.2739 97.328 56.2474 97.3797 56.2313L100.458 55.2134C100.561 55.182 100.673 55.1917 100.769 55.2407C100.866 55.2897 100.94 55.374 100.975 55.4761L104.751 66.9686C104.833 67.2111 104.867 67.4675 104.849 67.7229C104.832 67.9783 104.764 68.2278 104.649 68.4568C104.535 68.6858 104.376 68.8898 104.182 69.0571C103.988 69.2243 103.763 69.3515 103.52 69.4313L103.339 69.4887C103.151 69.5487 102.954 69.5791 102.757 69.579ZM98.0446 56.8716L101.698 67.9865C101.791 68.2678 101.992 68.5008 102.256 68.635C102.512 68.7583 102.804 68.7817 103.077 68.7007L103.257 68.6432C103.538 68.5496 103.77 68.3482 103.903 68.0834C104.035 67.8187 104.057 67.5121 103.963 67.2313L100.318 56.1164L98.0446 56.8716Z" fill="#231F20"/>
<path d="M98.1829 45.0163L93.207 46.6504L96.9029 57.9045L101.879 56.2705L98.1829 45.0163Z" fill="white"/>
<path d="M96.8955 58.2989C96.8088 58.3 96.7239 58.2735 96.6531 58.2234C96.5823 58.1732 96.5292 58.102 96.5015 58.0198L92.791 46.7653C92.75 46.6654 92.75 46.5533 92.791 46.4534C92.8145 46.4047 92.8478 46.3613 92.8887 46.326C92.9297 46.2907 92.9775 46.2642 93.0291 46.2482L98.0037 44.6064C98.0549 44.5886 98.1091 44.5813 98.1631 44.5849C98.2172 44.5885 98.2699 44.6031 98.3182 44.6276C98.3665 44.6521 98.4094 44.6862 98.4442 44.7277C98.479 44.7692 98.5051 44.8173 98.5209 44.8691L102.215 56.1235C102.256 56.2234 102.256 56.3355 102.215 56.4354C102.191 56.4841 102.158 56.5275 102.117 56.5628C102.076 56.5981 102.028 56.6246 101.977 56.6407L97.0022 58.2824L96.8955 58.2989ZM93.7187 46.8967L97.1582 57.3713L101.345 55.9922L97.9134 45.534L93.7187 46.8967Z" fill="#231F20"/>
<path d="M102.679 64.6453L101.212 65.1269C100.243 65.4451 99.7155 66.4888 100.034 67.4579L105.307 83.5164C105.626 84.4855 106.669 85.0132 107.638 84.6949L109.105 84.2134C110.074 83.8951 110.601 82.8515 110.283 81.8823L105.01 65.8239C104.691 64.8547 103.648 64.3271 102.679 64.6453Z" fill="white"/>
<path d="M107.074 85.1847C106.598 85.1848 106.134 85.035 105.748 84.7565C105.362 84.478 105.074 84.085 104.924 83.6332L99.6534 67.5766C99.5597 67.2947 99.5225 66.9971 99.544 66.7008C99.5655 66.4045 99.6453 66.1154 99.7787 65.85C99.9122 65.5846 100.097 65.3482 100.322 65.1543C100.547 64.9603 100.808 64.8127 101.09 64.7199L102.551 64.2438C103.119 64.057 103.739 64.1033 104.273 64.3727C104.807 64.642 105.212 65.1123 105.4 65.6803L110.678 81.7452C110.77 82.0271 110.806 82.3244 110.783 82.6201C110.761 82.9159 110.68 83.2043 110.546 83.4688C110.412 83.7334 110.227 83.9689 110.002 84.1619C109.776 84.3549 109.515 84.5016 109.233 84.5937L107.772 85.0698C107.548 85.1477 107.312 85.1866 107.074 85.1847ZM103.257 64.9497C103.104 64.9502 102.951 64.9751 102.806 65.0236L101.344 65.4997C100.986 65.6229 100.691 65.8825 100.524 66.2221C100.437 66.3893 100.386 66.5721 100.372 66.7597C100.358 66.9472 100.381 67.1357 100.441 67.3139L105.712 83.3787C105.832 83.74 106.09 84.0388 106.43 84.2097C106.77 84.3805 107.164 84.4094 107.526 84.2899L108.987 83.8138C109.348 83.6937 109.648 83.4357 109.82 83.0959C109.992 82.7562 110.023 82.3622 109.906 81.9996L104.628 65.943C104.535 65.6549 104.352 65.4038 104.108 65.2254C103.863 65.047 103.568 64.9505 103.265 64.9497H103.257Z" fill="#231F20"/>
<path d="M94.7449 56.8462C102.42 56.8462 108.643 50.624 108.643 42.9485C108.643 35.273 102.42 29.0508 94.7449 29.0508C87.0694 29.0508 80.8472 35.273 80.8472 42.9485C80.8472 50.624 87.0694 56.8462 94.7449 56.8462Z" fill="white"/>
<path d="M94.7364 57.2656C91.1253 57.2714 87.6447 55.9162 84.9882 53.4702C82.3317 51.0242 80.6945 47.667 80.4029 44.0677C80.1113 40.4684 81.1867 36.8914 83.4147 34.0496C85.6428 31.2078 88.8599 29.31 92.4248 28.7344C95.9897 28.1588 99.6406 28.9477 102.65 30.9438C105.659 32.9399 107.806 35.9966 108.662 39.5048C109.518 43.013 109.02 46.7148 107.269 49.8726C105.517 53.0304 102.64 55.4122 99.2102 56.5432C97.7661 57.0172 96.2563 57.261 94.7364 57.2656ZM94.7364 29.4538C92.6024 29.4554 90.4993 29.9631 88.5996 30.9351C86.6998 31.9071 85.0577 33.3157 83.8079 35.0454C82.5581 36.775 81.7363 38.7764 81.41 40.8853C81.0836 42.9941 81.262 45.1503 81.9305 47.1768C82.7066 49.5383 84.1202 51.6393 86.0152 53.2479C87.9103 54.8565 90.213 55.9101 92.6691 56.2924C95.1253 56.6747 97.6393 56.3708 99.9336 55.4143C102.228 54.4577 104.213 52.8858 105.67 50.8719C107.127 48.8581 108 46.4808 108.191 44.0024C108.382 41.524 107.884 39.0411 106.753 36.8277C105.622 34.6143 103.901 32.7566 101.78 31.4597C99.6598 30.1628 97.2221 29.4771 94.7364 29.4784V29.4538Z" fill="#231F20"/>
<path d="M94.7448 54.2366C100.979 54.2366 106.032 49.1832 106.032 42.9494C106.032 36.7156 100.979 31.6621 94.7448 31.6621C88.511 31.6621 83.4575 36.7156 83.4575 42.9494C83.4575 49.1832 88.511 54.2366 94.7448 54.2366Z" fill="white"/>
<path d="M94.7531 54.6474C92.5972 54.6485 90.4829 54.0538 88.6438 52.929C86.8046 51.8042 85.312 50.193 84.3309 48.2733C83.3498 46.3536 82.9182 44.2001 83.0839 42.0507C83.2496 39.9012 84.0061 37.8393 85.2698 36.0926C86.5336 34.346 88.2554 32.9826 90.2452 32.1529C92.2351 31.3232 94.4155 31.0596 96.5457 31.3911C98.6759 31.7226 100.673 32.6363 102.317 34.0314C103.96 35.4265 105.186 37.2486 105.86 39.2967C106.437 41.0531 106.59 42.9214 106.306 44.7483C106.021 46.5753 105.308 48.3088 104.224 49.8067C103.14 51.3046 101.717 52.5243 100.071 53.3658C98.4243 54.2072 96.602 54.6464 94.7531 54.6474ZM94.7531 32.0646C92.4533 32.0669 90.2133 32.7975 88.3544 34.1516C86.4955 35.5058 85.1133 37.4139 84.4061 39.6022C83.6988 41.7906 83.7029 44.1467 84.4177 46.3327C85.1324 48.5186 86.5212 50.4219 88.3847 51.7697C90.2482 53.1174 92.4907 53.8403 94.7905 53.8346C97.0903 53.829 99.3292 53.095 101.186 51.7381C103.043 50.3812 104.422 48.471 105.126 46.2816C105.83 44.0921 105.823 41.736 105.105 39.5512C104.394 37.3648 103.007 35.4612 101.143 34.1153C99.279 32.7695 97.0355 32.0514 94.7366 32.0646H94.7531Z" fill="#231F20"/>
<path d="M92.791 90.3554L93.341 86.2509C93.341 86.0785 93.6201 73.4122 94.7119 72.4353C95.8037 71.4584 109.972 61.1809 110.966 62.5846C111.959 63.9883 110.03 66.6316 110.03 66.6316C110.03 66.6316 113.354 66.295 113.018 68.2734C112.681 70.2517 110.695 72.2629 110.695 72.2629C110.695 72.2629 112.73 70.7689 113.042 72.9278C113.131 73.5535 113.052 74.1914 112.814 74.7768C112.576 75.3622 112.188 75.8741 111.688 76.2607C111.688 76.2607 114.684 74.9308 114.019 77.4181C113.354 79.9054 106.065 86.2345 106.065 86.2345L105.186 91.6524L92.791 90.3554Z" fill="white"/>
<path d="M105.162 92.0787L92.8486 90.7653H92.7993C92.4299 90.675 92.4299 90.675 92.9388 86.9646L93.0374 86.2258C93.0374 86.1519 93.2508 73.3213 94.5478 72.1475C95.3687 71.384 108.437 61.7796 110.867 62.0587C110.974 62.0643 111.078 62.0938 111.172 62.1449C111.265 62.1961 111.346 62.2676 111.409 62.3542C112.23 63.5117 111.409 65.2438 110.859 66.2042C111.674 66.1774 112.471 66.4488 113.1 66.9676C113.265 67.156 113.385 67.3797 113.451 67.6216C113.516 67.8635 113.525 68.1171 113.478 68.3631C113.232 69.4613 112.744 70.4907 112.049 71.3758C112.237 71.3691 112.425 71.4027 112.599 71.4743C112.864 71.6075 113.088 71.8099 113.246 72.0599C113.405 72.3099 113.494 72.5983 113.502 72.8945C113.641 73.8093 113.449 74.7438 112.96 75.5295C113.385 75.4638 113.818 75.567 114.167 75.8168C114.375 76.0479 114.514 76.3334 114.566 76.64C114.618 76.9467 114.583 77.2619 114.463 77.5489C113.814 80.0116 107.46 85.6265 106.492 86.472L105.671 91.7421C105.661 91.7985 105.64 91.8523 105.609 91.9001C105.578 91.948 105.537 91.989 105.489 92.0205C105.442 92.052 105.388 92.0735 105.332 92.0835C105.275 92.0935 105.218 92.0919 105.162 92.0787ZM93.2836 89.9936L104.817 91.2168L105.638 86.1847C105.65 86.0891 105.696 86.0013 105.769 85.9384C107.772 84.2064 113.075 79.281 113.601 77.3355C113.716 76.884 113.707 76.5146 113.601 76.4325C113.305 76.1862 112.394 76.4325 111.86 76.6459C111.768 76.6874 111.664 76.6927 111.568 76.6607C111.472 76.6288 111.392 76.562 111.343 76.4736C111.291 76.386 111.274 76.2814 111.297 76.1819C111.32 76.0823 111.381 75.9956 111.466 75.94C111.904 75.5987 112.244 75.1481 112.451 74.6335C112.659 74.1189 112.727 73.5587 112.648 73.0094C112.599 72.7057 112.501 72.3363 112.246 72.2296C111.844 72.0572 111.154 72.4594 110.941 72.6154C110.858 72.6751 110.755 72.7015 110.653 72.6893C110.551 72.6771 110.458 72.6273 110.391 72.5497C110.322 72.4729 110.284 72.3736 110.284 72.2706C110.284 72.1676 110.322 72.0682 110.391 71.9915C110.391 71.9915 112.304 70.0624 112.607 68.2236C112.64 68.1028 112.642 67.9758 112.613 67.854C112.585 67.7322 112.526 67.6194 112.443 67.5258C111.934 66.9841 110.514 66.9923 110.063 67.0333C109.983 67.0411 109.903 67.0259 109.831 66.9896C109.76 66.9532 109.701 66.8972 109.66 66.8281C109.616 66.7627 109.592 66.6855 109.592 66.6064C109.592 66.5274 109.616 66.4502 109.66 66.3848C110.161 65.7117 111.302 63.7579 110.654 62.8221C109.225 62.3788 96.4358 71.4661 95.0075 72.7549C94.1866 73.5758 93.768 84.1899 93.768 86.2668C93.768 86.2668 93.7269 86.5951 93.6612 87.0877C93.612 87.8511 93.3739 89.2959 93.2836 89.9936Z" fill="#231F20"/>
<path d="M56.7131 66.5996C56.7131 66.5996 64.6921 71.4264 70.6682 82.4839C76.6443 93.5413 86.1338 128.881 86.1338 128.881L90.6405 86.0547L108.084 89.9868C108.084 89.9868 109.578 152.375 94.1293 159.393C78.6801 166.412 39.187 122.978 39.187 122.978L56.7131 66.5996Z" fill="#427DAA"/>
<path d="M24.2793 64.6042L26.2823 58.1191L52.3866 60.6393L53.8889 66.599C53.8889 66.599 40.2538 73.084 24.2793 64.6042Z" fill="white"/>
<path d="M41.3948 69.3409C35.3534 69.3292 29.4087 67.8233 24.0904 64.9574C24.0063 64.9121 23.9407 64.839 23.9048 64.7506C23.8688 64.6623 23.8648 64.5641 23.8934 64.4731L25.8881 57.988C25.9159 57.8986 25.9733 57.8214 26.0509 57.7692C26.1286 57.7169 26.2217 57.6928 26.315 57.7007L52.4275 60.229C52.5117 60.2364 52.5915 60.2695 52.6562 60.3238C52.7208 60.3782 52.7671 60.4511 52.7887 60.5328L54.2828 66.4924C54.3068 66.5841 54.2978 66.6812 54.2572 66.7668C54.2167 66.8524 54.1472 66.9209 54.0611 66.9604C50.0401 68.5911 45.7334 69.4005 41.3948 69.3409ZM24.7717 64.4156C29.1307 66.7509 33.9367 68.1321 38.8705 68.4675C43.8043 68.8029 48.753 68.0849 53.388 66.3611L52.0417 61.0253L26.5941 58.5626L24.7717 64.4156Z" fill="#231F20"/>
<path d="M78.6636 156.873C78.5871 156.876 78.512 156.852 78.4502 156.807C78.1793 156.643 51.8122 139.782 42.5279 95.8727C42.5158 95.8198 42.5143 95.7651 42.5235 95.7117C42.5326 95.6583 42.5523 95.6072 42.5813 95.5614C42.6103 95.5156 42.6481 95.476 42.6924 95.4449C42.7368 95.4138 42.7869 95.3918 42.8399 95.3801C42.9473 95.3603 43.0583 95.3825 43.15 95.442C43.2416 95.5016 43.3069 95.594 43.3324 95.7003C52.551 139.273 78.6307 155.954 78.8852 156.118C78.9596 156.166 79.0164 156.237 79.0472 156.32C79.0781 156.403 79.0813 156.493 79.0564 156.578C79.0314 156.663 78.9797 156.738 78.9089 156.791C78.8382 156.844 78.7521 156.873 78.6636 156.873Z" fill="#231F20"/>
<path d="M108.634 27.2284L88.3662 25.5046C88.3076 25.502 88.2504 25.4859 88.1991 25.4574C88.1478 25.4289 88.1038 25.3888 88.0707 25.3404C88.0352 25.2927 88.0103 25.2381 87.9975 25.18C87.9848 25.122 87.9846 25.0619 87.9968 25.0038L89.7371 17.4927C89.7643 17.3884 89.8307 17.2986 89.9225 17.242C90.0142 17.1854 90.1242 17.1664 90.2297 17.1889C90.2826 17.2006 90.3327 17.2226 90.3771 17.2537C90.4215 17.2848 90.4593 17.3244 90.4883 17.3702C90.5173 17.416 90.5369 17.4671 90.5461 17.5205C90.5552 17.5739 90.5537 17.6286 90.5416 17.6815L88.8998 24.7329L108.7 26.3747C108.809 26.3747 108.913 26.4179 108.99 26.4949C109.067 26.5719 109.11 26.6763 109.11 26.7851C109.11 26.894 109.067 26.9984 108.99 27.0754C108.913 27.1523 108.809 27.1956 108.7 27.1956L108.634 27.2284Z" fill="#D1D3D4"/>
<path d="M89.91 24.8474C89.8464 24.8468 89.7838 24.8317 89.7269 24.8032C89.67 24.7748 89.6203 24.7337 89.5817 24.6832C89.5155 24.5971 89.4861 24.4883 89.4999 24.3806C89.5138 24.2729 89.5697 24.1751 89.6556 24.1086C91.2269 22.9064 92.9091 21.8564 94.6794 20.9728C95.2557 20.6175 95.9382 20.4751 96.6085 20.5705C97.2624 20.7966 97.8169 21.2436 98.1764 21.8347C98.43 22.2409 98.7869 22.5724 99.2107 22.7952C99.5493 22.8534 99.8961 22.8426 100.23 22.7636C100.565 22.6847 100.88 22.539 101.156 22.3354C103.389 21.1534 105.917 19.8153 107.494 17.6564C107.559 17.5693 107.656 17.5117 107.764 17.4963C107.872 17.4809 107.981 17.509 108.068 17.5743C108.155 17.6397 108.213 17.7362 108.229 17.8433C108.246 17.9505 108.221 18.0601 108.158 18.1489C106.467 20.4474 103.849 21.8347 101.542 23.0743C101.169 23.3412 100.743 23.5248 100.292 23.6126C99.8418 23.7004 99.3778 23.6904 98.9316 23.5832C98.3544 23.3173 97.8668 22.8895 97.5279 22.3519C97.1831 21.9086 96.863 21.531 96.4197 21.3914C95.9354 21.3469 95.45 21.4653 95.0406 21.728C93.3026 22.5817 91.6528 23.6046 90.1153 24.7817C90.0541 24.8219 89.9831 24.8446 89.91 24.8474Z" fill="#D1D3D4"/>
</svg>
